<svg xmlns="http://www.w3.org/2000/svg" xmlns:xlink="http://www.w3.org/1999/xlink" xml:space="preserve" width="160px" height="160px" version="1.1" viewBox="0 0 160 160">
 <path class="fil0" d="M0 138.44c0,10.61 10.94,21.56 21.56,21.56l116.88 0c7.78,0 15.81,-6.01 19.27,-12.91 1,-1.99 2.29,-5.84 2.29,-8.65l0 -74.69 -160 0 0 74.69zm0 -116.88l0 26.56 160 0 0 -26.56c0,-10.61 -10.94,-21.56 -21.56,-21.56l-116.88 0c-6.62,0 -13.37,4.39 -17.24,9.64 -2.28,3.09 -4.32,7.85 -4.32,11.92zm106.72 -5.31l21.25 0c4.38,0 7.97,3.58 7.97,7.97l0 0c0,4.38 -3.59,7.97 -7.97,7.97l-21.25 0c-4.38,0 -7.97,-3.59 -7.97,-7.97l0 0c0,-4.39 3.59,-7.97 7.97,-7.97zm-3.44 111.82l0 -21.26c0,-4.38 3.59,-7.96 7.97,-7.96l0 0c4.38,0 7.97,3.58 7.97,7.96l0 21.26c0,4.38 -3.59,7.96 -7.97,7.96l0 0c-4.38,0 -7.97,-3.58 -7.97,-7.96zm-31.4 -0.1l0 -36.88c0,-4.38 3.58,-7.97 7.96,-7.97l0 0c4.39,0 7.97,3.59 7.97,7.97l0 36.88c0,4.38 -3.58,7.97 -7.97,7.97l0 0c-4.38,0 -7.96,-3.59 -7.96,-7.97zm-31.41 -0.1l0 -21.25c0,-4.38 3.58,-7.97 7.97,-7.97l0 0c4.38,0 7.97,3.59 7.97,7.97l0 21.25c0,4.39 -3.59,7.97 -7.97,7.97l0 0c-4.39,0 -7.97,-3.58 -7.97,-7.97z"/>
</svg>