<svg xmlns="http://www.w3.org/2000/svg" xml:space="preserve" width="400px" height="400px"
  version="1.1" style="fill-rule:evenodd;" viewBox="0 0 400 400"
 xmlns:xlink="http://www.w3.org/1999/xlink">
 <g>
  <path fill="#000000" d="M54.13 117.19l281.16 0c9.88,20.48 15.42,43.44 15.42,67.71 0,23.9 -5.38,46.54 -14.99,66.79l-282.02 0c-9.61,-20.25 -14.99,-42.89 -14.99,-66.79 0,-24.27 5.54,-47.23 15.42,-67.71zm95.82 18.33l-18.59 0 -20.53 59.54 -21.27 -59.54 -18.7 0 0 76.11 12.61 0 0 -58.68 21.7 58.68 10.9 0 21.16 -58.68 0 58.68 12.72 0 0 -76.11zm-75.46 86.86l-1.97 0 0 17.13 2.1 0 0 -9.73c0,-3.33 1.5,-6 5,-6 2.77,0 3.77,1.63 3.77,4.23l0 11.5 2.07 0 0 -10.5c0,-3.13 1.66,-5.23 4.76,-5.23 2.6,0 3.97,1.4 3.97,4.07l0 11.66 2.1 0 0 -12.23c0,-3.8 -2.63,-5.37 -5.5,-5.37 -2.67,0 -4.6,1.27 -5.7,3.34 -0.63,-2.1 -2.4,-3.34 -4.9,-3.34 -2.7,0 -4.33,1.3 -5.7,3.47l0 -3zm44.51 15.43c-0.37,0.1 -0.54,0.1 -0.8,0.1 -1.17,0 -1.14,-0.7 -1.14,-1.73l0 -9.33c0,-3.24 -2.43,-4.94 -6.3,-4.94 -4.23,0 -6.73,2.1 -6.9,5.77l2 0c0.27,-2.77 1.77,-4.03 4.67,-4.03 2.73,0 4.47,0.86 4.47,3.7 0,0.86 -0.17,1.33 -0.6,1.63 -0.84,0.57 -2.3,0.63 -5,0.9 -4.24,0.43 -6.37,2.17 -6.37,5.3 0,3 2.1,4.8 5.6,4.8 2.9,0 5.07,-1.2 6.47,-3.43 0,1.56 0.2,3.13 2.23,3.13 0.6,0 1.1,-0.07 1.67,-0.27l0 -1.6zm-4 -7.63l0 2.8c0,3.27 -2.7,5.27 -5.84,5.27 -2.4,0 -3.93,-1.27 -3.93,-3.27 0,-2.8 2.93,-3.3 5.1,-3.6 2.3,-0.3 4,-0.47 4.67,-1.2zm24.4 -7.8l-2.8 0 -9.56 8.37 0 -14.97 -2 0 0 23.73 2 0 0 -6.5 3.4 -2.9 6.83 9.4 2.63 0 -7.83 -10.83 7.33 -6.3zm20.21 11.5l-2.03 0c-0.67,2.97 -2.5,4.5 -5.24,4.5 -4.13,0 -5.8,-3.33 -5.8,-6.93l13.24 0 0 -0.6c0,-4.74 -2.47,-8.94 -7.54,-8.94 -4.6,0 -7.83,3.8 -7.83,9.24 0,5.43 3.1,8.93 7.87,8.93 4.03,0 6.6,-2.4 7.33,-6.2zm-1.93 -4.13l-11.14 0c0.4,-3.2 1.9,-6.1 5.64,-6.1 3.2,0 5.26,2.3 5.5,6.1zm17.03 -0.4l-8.36 0 0 2.03 8.36 0 0 -2.03zm30.11 -6.97l-2.17 0 -3.43 10.93c-0.33,1.1 -0.57,1.94 -1.03,3.94 -0.5,-2.24 -0.7,-3.1 -0.97,-4l-3.27 -10.87 -2.4 0 -3.06 10.37c-0.77,2.63 -0.47,1.8 -1.14,4.5 -0.6,-2.34 -0.83,-3.3 -1.2,-4.44l-3.26 -10.43 -2.27 0 5.57 17.13 2.33 0 3.33 -11.26c0.24,-0.84 0.44,-1.57 0.87,-3.37 0.4,1.7 0.6,2.43 0.87,3.37l3.4 11.26 2.26 0 5.57 -17.13zm20.24 11.5l-2.03 0c-0.67,2.97 -2.5,4.5 -5.24,4.5 -4.13,0 -5.8,-3.33 -5.8,-6.93l13.24 0 0 -0.6c0,-4.74 -2.47,-8.94 -7.54,-8.94 -4.6,0 -7.83,3.8 -7.83,9.24 0,5.43 3.1,8.93 7.87,8.93 4.03,0 6.6,-2.4 7.33,-6.2zm-1.93 -4.13l-11.14 0c0.4,-3.2 1.9,-6.1 5.64,-6.1 3.2,0 5.26,2.3 5.5,6.1zm10.74 -13.97l-2.04 0 0 23.73 1.9 0 0 -3.33c1,2.53 3.24,3.83 6.14,3.83 4.76,0 7.76,-3.5 7.76,-9.1 0,-5.53 -3,-9.06 -7.66,-9.06 -2.77,0 -5.07,1.33 -6.1,3.76l0 -9.83zm5.8 7.83c3.56,0 5.83,2.84 5.83,7.34 0,4.46 -2.27,7.36 -5.8,7.36 -3.6,0 -5.9,-2.86 -5.9,-7.36 0,-4.5 2.27,-7.34 5.87,-7.34zm27.27 3.77c0,-3.67 -2.7,-5.47 -6.47,-5.47 -3.9,0 -6.3,1.84 -6.3,4.84 0,3.76 3.8,4.2 6.6,4.86 1.8,0.44 4.7,0.97 4.7,3.37 0,2 -1.86,3.33 -4.66,3.33 -3.17,0 -5.07,-1.53 -5.07,-4.4l-2.03 0c0.1,3.94 2.63,6.14 7.03,6.14 4.07,0 6.8,-2.14 6.8,-5.27 0,-3.57 -3.57,-4.43 -6.37,-5.07 -3.23,-0.73 -4.9,-1.1 -4.9,-3.23 0,-1.73 1.54,-2.83 4,-2.83 2.77,0 4.44,1.13 4.64,3.73l2.03 0zm9.57 -11.7l-2.1 0 0 3.43 2.1 0 0 -3.43zm0 6.7l-2.1 0 0 17.13 2.1 0 0 -17.13zm14.58 0l-3.54 0 0 -5.23 -2.06 0 0 5.23 -3.04 0 0 1.7 3.04 0 0 9.83c0,2.57 0.03,3.07 0.2,3.77 0.4,1.67 2.06,1.97 3.56,1.97 0.74,0 1.07,-0.04 1.84,-0.14l0 -1.8c-0.6,0.07 -1,0.1 -1.37,0.1 -2.23,0 -2.17,-1.13 -2.17,-2.86l0 -10.87 3.54 0 0 -1.7zm21 11.5l-2.03 0c-0.67,2.97 -2.5,4.5 -5.23,4.5 -4.14,0 -5.81,-3.33 -5.81,-6.93l13.24 0 0 -0.6c0,-4.74 -2.47,-8.94 -7.53,-8.94 -4.6,0 -7.84,3.8 -7.84,9.24 0,5.43 3.1,8.93 7.87,8.93 4.03,0 6.6,-2.4 7.33,-6.2zm-1.93 -4.13l-11.14 0c0.41,-3.2 1.91,-6.1 5.64,-6.1 3.2,0 5.27,2.3 5.5,6.1zm-154.41 -94.23l20.09 76.11 13.79 0 15.71 -58.47 15.4 58.47 13.57 0 21.06 -76.11 -13.58 0 -14.32 57.94 -15.07 -57.94 -13.58 0 -15.6 57.94 -13.9 -57.94 -13.57 0zm159.82 22.45c-0.64,-16.99 -12.93,-23.94 -28.43,-23.94 -17.11,0 -28.12,8.66 -28.12,22.23 0,15.5 12.51,18.17 28.65,22.34 11.22,2.89 17.74,4.28 17.74,12.19 0,7.48 -6.09,11.97 -16.35,11.97 -10.8,0 -19.67,-4.6 -19.67,-16.36l-13.14 0c0,18.39 14,26.94 32.06,26.94 14.97,0 30.25,-6.63 30.25,-23.84 0,-16.35 -14.54,-19.45 -27.47,-22.76 -14.64,-3.85 -19.35,-4.28 -19.35,-11.55 0,-6.62 5.46,-10.58 14.54,-10.58 9.41,0 15.71,3.85 16.57,13.36l12.72 0zm-81.09 242.03l-83.37 0 0.52 -0.74c2.11,-3.02 4.09,-5.86 5.53,-8.19 18.99,-30.86 17.38,-35.75 14.13,-45.59 -1.56,-4.73 -3.52,-10.7 -3.42,-21.9 0.05,-5.74 2.51,-12.66 5.89,-19.49 5.14,-10.35 12.43,-20.45 16.87,-26.1 5.77,-7.33 11.99,-12.71 18.9,-16.04 6.46,-3.11 13.56,-4.44 21.5,-3.94 -0.54,2.89 -1.86,4.09 -4.89,6.83 -2.88,2.61 -7.16,6.49 -13.47,13.96 -6.99,8.27 -10.67,14.06 -12.63,19.87 -1.97,5.82 -2.17,11.54 -2.25,19.72 -0.08,8.63 3.72,16.59 9.22,23.29 6.96,8.47 16.69,14.95 24.62,18.17 11.7,4.75 21.92,5.31 31.08,2.3 9.12,-3.01 17.12,-9.55 24.42,-19.03 3.8,-4.93 6.15,-9.62 8.7,-14.7l1.49 -2.95c0.83,-1.61 1.44,-2.84 2.05,-4.13 0.7,-1.46 1.32,-2.79 2.15,-4.58 1.4,-3.03 1.62,-4.41 1.66,-5.11 0.07,-0.03 0.19,-0.09 0.38,-0.21 0.38,-0.26 0.92,-0.62 1.67,-1.15 1.26,0.97 2.21,1.82 2.82,2.88 0.76,1.33 1.12,3.17 1.09,6.26 -0.11,11.98 -1.31,20.57 -4.5,28.67 -3.19,8.12 -8.4,15.84 -16.52,26.06 -6.33,7.98 -10.92,12.42 -16.75,15.43 -5.9,3.03 -13.2,4.68 -24.9,7.05 -4.9,0.99 -8.82,2.13 -11.99,3.36zm-44.15 -292.71l-68.8 0c1.37,-4.79 2.87,-9.46 4.52,-13.97 12.89,-35.31 34.42,-61.13 64.28,-64.55l0 78.52zm-79.14 0l-51.08 0c20,-35.07 53.21,-61.63 92.86,-72.9 -15.69,12.74 -27.8,32.27 -36.3,55.53 -2.03,5.59 -3.86,11.39 -5.48,17.37zm89.04 0l68.8 0c-1.37,-4.79 -2.87,-9.46 -4.52,-13.97 -12.89,-35.31 -34.42,-61.13 -64.28,-64.55l0 78.52zm79.14 0l51.08 0c-20,-35.07 -53.21,-61.63 -92.86,-72.9 15.7,12.74 27.8,32.27 36.3,55.53 2.03,5.59 3.86,11.39 5.48,17.37zm-89.61 155.09l-68.8 0c1.37,4.79 2.87,9.45 4.52,13.96 8.25,22.6 20.04,41.32 35.3,52.76 -1.67,-18.9 14.36,-44.93 28.98,-60.9l0 -5.82zm48.84 0l29.85 0c-1.36,4.79 -2.86,9.45 -4.51,13.96 -10.86,29.74 -27.84,52.74 -50.77,61.31 -23.16,-35.23 10.22,-59.66 25.43,-75.27zm40.2 0l51.08 0c-20,35.06 -53.21,61.62 -92.86,72.89 15.69,-12.74 27.8,-32.27 36.29,-55.53 2.04,-5.58 3.87,-11.39 5.49,-17.36zm-168.19 0l-51.07 0c20,35.06 53.21,61.62 92.86,72.89 -15.7,-12.74 -27.81,-32.27 -36.3,-55.53 -2.03,-5.58 -3.86,-11.39 -5.49,-17.36z"/>
 </g>
</svg>
