<svg xmlns="http://www.w3.org/2000/svg" xml:space="preserve" width="501px" height="347px" version="1.1"
  style="fill-rule:evenodd;" viewBox="0 0 501 347"
 xmlns:xlink="http://www.w3.org/1999/xlink">
 <g>
  <path d="M130.5 37.5l0 13 -105 0c-10.31,0 -17.04,5.14 -21.45,11.55 -5.21,7.56 -3.55,17.48 -3.55,29.45l0 198c2.77,-2.03 11.62,-22.24 14,-27 4.67,-9.33 9.33,-18.67 14,-28 2.25,-4.49 4.3,-8.56 6.68,-13.32 4.56,-9.13 4.67,-10.9 10.29,-20.71l37.96 -77.04c9.52,-16.58 32.91,-31.93 51.07,-31.93l261 0 0 -18c0,-12.63 -11.91,-23 -25,-23l-105 0 0 -12c0,-20.42 -15.26,-38 -35,-38l-65 0c-19.17,0 -35,17.38 -35,37zm-123 296c0,8.86 6.23,14 15,14l349 0c11.58,0 22.98,-8.01 28.77,-14.23 6.84,-7.35 10,-18.59 14.88,-28.13l75.07 -151.92c4.47,-9.29 10.28,-14.87 10.28,-26.72 0,-5.61 -6.61,-11 -12,-11l-353 0c-18.17,0 -29.35,14.45 -36.01,27.98l-35.64 73.37c-9.38,19.54 -18.97,37.89 -28.68,57.32 -4.72,9.44 -10.27,19.1 -14.25,28.75 -2.65,6.43 -13.42,25.46 -13.42,30.58zm159 -309l63 0c6.32,0 11.5,5.17 11.5,11.5l0 15.43 -86 0 0 -15.43c0,-6.33 5.17,-11.5 11.5,-11.5z"/>
 </g>
</svg>
