<svg xmlns="http://www.w3.org/2000/svg" xml:space="preserve" width="500px" height="473px" version="1.1" viewBox="0 0 500 473" xmlns:xlink="http://www.w3.org/1999/xlink">
 <g>
  <path class="fil0" d="M0 395.03l0 8.79c0,27.58 22.54,55.97 49.42,64.83 10.09,3.33 21.55,4.5 34.56,4.5l332.04 0c26.56,0 43.77,-5.55 58.31,-17.86 11.31,-9.57 25.67,-31.17 25.67,-51.47l0 -0.6c-0.01,-12.52 -0.3,-20.25 -5.42,-32.06l-35.18 -65.41c-12.02,-20.07 -29.86,-55.37 -42.72,-78.38l-46 -84.86c-2.8,-4.68 -4.48,-8.82 -7.21,-13.3l-10.28 -19.02c-5.88,-10.96 -40.95,-76.81 -47.75,-84.07 -31.15,-33.26 -77.88,-33.97 -110.39,-0.5 -5.83,5.99 -36.99,62.93 -44,77.1l-28.32 51.76c-1.34,2.41 -1.93,4.08 -3.28,6.49l-21.47 39.07c-17.39,32.39 -40.8,73.28 -56.62,104.51 -1.57,3.09 -2.37,3.91 -3.93,6.82 -4.87,9.07 -9.4,17.21 -13.98,26.05 -7.6,14.68 -23.45,36.88 -23.45,57.61zm249.51 -41.02l0 0c16.39,0 29.79,13.4 29.79,29.79l0 0c0,16.38 -13.4,29.78 -29.79,29.78l0 0c-16.38,0 -29.78,-13.4 -29.78,-29.78l0 0c0,-16.39 13.4,-29.79 29.78,-29.79zm0 -233.4l0 0c16.39,0 29.79,13.4 29.79,29.79l0 145.51c0,16.38 -13.4,29.78 -29.79,29.78l0 0c-16.38,0 -29.78,-13.4 -29.78,-29.78l0 -145.51c0,-16.39 13.4,-29.79 29.78,-29.79z"/>
 </g>
</svg>
