<svg xmlns="http://www.w3.org/2000/svg" xml:space="preserve" width="4501px" height="301px" version="1.1"
  style="fill-rule:evenodd;" viewBox="0 0 4501 301" xmlns:xlink="http://www.w3.org/1999/xlink">
 <g>
   <path fill="#282828" d="M4498.48 70.76c-1.06,1.23 -1.96,2.52 -2.71,3.85l0 -4.22 -2.47 2.96 -3.25 -3.18 0 3.7c0,0 -1.91,-5.11 -3.16,-4.29 -0.5,0.55 -0.94,1.12 -1.34,1.7 0,0 0,-0.45 -1.03,-0.37 -1,0.07 -4.6,2.96 -4.6,2.96 0,0 -4.15,-4.81 -5.19,-4.81 -1,0 -3.25,4.29 -3.25,4.29 0,0 -1.03,-3.33 -3.28,-2.44 -1.68,0.77 -3.15,1.72 -4.37,2.81l0 -1.7c0,1.7 -3.94,2.22 -3.94,2.22 0,0 -3.37,-2.22 -4.28,-1.11 -0.84,0.89 -1.88,1.71 -3.03,2.44 -2.63,-0.11 -5.25,-0.11 -7.88,0 -1.25,0 -6.06,-2.22 -6.06,-2.22l-3.37 2.22c0,0 -2.16,-1.33 -3.38,-0.81 -1.19,0.83 -2.19,1.75 -3.06,2.73l-7.53 -1.77 -2.47 1.77c0,0 -2.03,-3.1 -2.38,-2.36 -0.31,0.74 -4.81,2.36 -4.81,2.36l-2.59 -1.4 -7.53 1.4c0,0 -3.94,-2.73 -4.85,-2.73 -0.9,0 -1.81,0 -2.72,1.33 -0.87,1.33 -4.81,0 -6.06,0 -1.25,0 -9.78,1.03 -10.34,1.18 -2.07,-0.92 -3.97,-1.96 -5.75,-3.11 0,0 -1.91,-3.99 -3.16,-3.47 -1.22,0.51 -2.91,-2 -5.16,-0.74 -2.25,1.25 -3.28,-2.74 -4.71,-1.11 -1.47,1.62 -5.19,-0.74 -6.78,0 -1.57,0.74 -6.07,-1.63 -8.19,0 -2.16,1.62 -7.66,3.62 -7.88,2.73 -0.25,-0.88 -2.81,-5.77 -4.06,-4.43 -1.25,1.33 -3.25,3.32 -3.25,3.32 0,0 -2.16,-3.77 -3.62,-3.18 -1.26,0.44 -2.57,0.81 -3.94,1.11 0,0 -2.81,-5.55 -4.25,-4.29l-1.6 1.33c0,0 -1.78,-3.33 -3.93,-1.99 -2.13,1.33 -3.25,3.25 -4.5,2.88 -1.22,-0.37 -2.69,-4.22 -3.94,-2.88 -0.38,0.48 -0.88,0.91 -1.53,1.25 -0.63,0.35 -1.38,0.6 -2.19,0.74 -0.88,0 -5.16,-2.14 -6.97,-0.89 -1.25,0.85 -2.69,1.57 -4.28,2.15 0,0 -2.34,-2.74 -3.25,-2.59 -0.91,0.15 -7.09,-4.51 -7.09,-4.51l0 2.14c0,0 -3.6,-2.96 -4.6,-2.14 -1.03,0.81 -2.03,2.51 -2.03,2.51 0,0 -1.59,-4.29 -2.81,-2.51 -1.25,1.77 -7.22,3.11 -7.53,2.51 -0.35,-0.59 -0.91,-2.36 -2.38,-2.51 -1.47,-0.15 -4.06,0 -4.06,0 -1.88,-0.23 -3.81,-0.23 -5.72,0 -1.31,0.81 -2.44,1.73 -3.37,2.74l-3.94 0.74 -3.03 1.25 -3.85 0.89c0,-0.59 2.38,-3.7 0,-2.37 -1.65,0.86 -3,1.95 -3.93,3.19 0,0 -3.38,-3.19 -5.16,-2.74 -1.81,0.44 -2.5,1.55 -3.16,2.14 1.22,-1.62 1.91,-3.7 0,-3.18 -1.9,0.52 -3.93,0.59 -5.06,1.56 -1.12,0.96 -4.62,0 -5.84,0.88 -1.25,0.89 -3.63,2.96 -3.63,2.96 -1.47,-0.39 -3.03,-0.69 -4.59,-0.88 -2.41,0.43 -4.75,1 -6.97,1.7 0,0 -1.81,-2.15 -4.28,-1.33 -2.5,0.36 -5.06,0.36 -7.53,0l-3.38 -1.63 0 2.14 -4.5 -1.33 -2.25 3.18 -3.28 -1.85 -3.94 3.85c0,0 -1.9,-2.44 -2.81,-2.44 -0.91,0 -3.37,2.59 -3.37,2.59 0,0 -1.57,-1.41 -2.47,-1.63 -0.91,-0.22 -3.6,0.96 -3.6,0.96 0,0 -1.81,-1.92 -3.03,-2.07 -1.75,0 -3.5,0.13 -5.19,0.37 -1.5,-0.2 -3.03,-0.2 -4.5,0 -2.43,0.91 -4.65,2.03 -6.62,3.33l-2.5 -2.15 -5.5 -0.81 -2.38 -2.37c-1.53,-0.16 -3.06,-0.16 -4.59,0 -1.25,0 -2.5,2.37 -2.5,2.37l-2.34 -2.59 -3.03 2.59c-0.69,-1.15 -1.54,-2.26 -2.47,-3.33l0 3.92c0,0 -6.44,-3.77 -6.44,-2.59 -0.63,1.71 -1.53,3.38 -2.69,4.96 0,0 -1.59,-3.18 -2.03,-3.7l0 2.96c0,0 -5.19,-2.96 -5.84,-2.44 -0.69,0.52 -3.6,4.14 -3.6,3.4 0,-0.74 1.13,-4.66 0,-4.07 -1.81,0.97 -3.56,2.01 -5.18,3.11l-1 -2.07c0,-1.04 -1.04,-2 -1.25,-1.63 -0.22,0.37 -4.5,-1.48 -4.5,-1.48l-2.47 2.89c0,-0.89 1.68,-3.41 0,-2.52 -1.69,0.89 -4.28,4.07 -4.85,3.33 -0.56,-0.74 -2.25,-6.07 -2.81,-4.59 -0.56,1.48 0.56,3.63 0,2.59 -0.56,-1.03 -4.28,-4.88 -4.28,-4.07 -0.59,1.4 -1.38,2.77 -2.34,4.07 0,0 -1.94,-4.29 -2.72,-2.96 -1.13,1.18 -2.47,2.25 -4.03,3.18 0,0 1.9,-3.18 0,-2.58 -1.66,0.61 -3.1,1.41 -4.29,2.36l-5.18 -1.92 0 2.29 -5.63 -1.11 0 -2.96 -4.5 1.56c0,0 -2.47,-2.52 -3.15,-1.93 -0.66,0.6 -2.69,4.07 -2.69,4.07l-3.25 -2.14 0 1.4 -4.85 -1.55 -2.59 0 0 -3.11 -2.94 2.59 -2.34 -1.92 -1.03 -0.89 -2.81 -0.89 -2.35 2.74 0 -3.63 -4.28 3.26 -3.59 -1.26 0 2.37 -4.07 -3.11 -2.9 -2.74 0 2c0,0 -3.94,-3.55 -4.28,-2 -0.19,1.16 -0.19,2.33 0,3.48l-4.63 -1.33 -2.12 1.7 -4.72 2.22 -4.97 1.48 -3.03 -0.44 -3.03 2.29 0 -1.7 -2.72 2.22 0 -2.59 -2.13 2.07 -3.93 -1.85 0 2.15 -4.63 -1.56 -2.81 1.63 -2.91 -1.03 -2.72 2.36 -3.12 -1.85 -5.19 2.44 -3.59 -2.44 -9.78 2.44c0,0 -2.94,-3.18 -3.94,-2.73 -1.03,0.44 -6.66,3.4 -6.66,3.4l-5.72 -2 -7 2.37 -3.68 -0.37 -5.19 0 -8.78 0.96c0,0 -3.72,-2.22 -3.72,-1.7 0,0.52 -2.91,2.59 -2.91,2.59 -1,-0.24 -2,-0.41 -3.03,-0.52 -2.94,1.12 -5.72,2.38 -8.34,3.78 0,0 -3.6,-2.52 -4.16,-1.78 -0.56,0.74 -3.72,3.55 -3.72,3.55 0,0 -2.03,-1.92 -2.37,0 -0.47,1.64 -1.19,3.25 -2.13,4.81l-2.25 0 -2.81 3.33 -3.03 1.78 -3.94 0 0 1.48 -3.59 -2.37 -2.82 2.37 0 -2.37 -4.28 2.37c0,0 2.25,-3.26 0,-2.59 -1.56,0.69 -2.87,1.57 -3.93,2.59l0 -3.85 -2.38 1.85 -2.47 -4.44 -8.44 -0.74 0 -4.22 -4.28 0 0 -4.66 -8.53 -1.7 -4.5 -6.22c-1.62,0.12 -3.25,0.12 -4.84,0 -3.22,-0.5 -6.31,-1.35 -9.13,-2.51 -1.78,-1.42 -3.22,-3.02 -4.28,-4.74 -0.97,-0.34 -2.03,-0.59 -3.12,-0.74 -0.82,0 -5.63,-1.11 -6.32,-2.07 -0.37,-0.85 -0.37,-1.74 0,-2.59 0,0 -2.46,-2 -4.28,-0.89 -1.78,1.11 -4.5,0 -4.5,0l-2.25 -2.36 -4.15 -0.37 -4.28 -1.93c0,0 0,-2 -2.69,-0.89 -0.75,0.27 -1.6,0.41 -2.44,0.41 -0.84,0 -1.66,-0.14 -2.41,-0.41 0,0 -1,-2.96 -3.15,-1.7 -1.16,0.79 -2.66,1.33 -4.28,1.56 -2.28,0.6 -4.72,0.95 -7.19,1.03l0 -2.51 -3.59 0 0 -3.85c-1.22,-0.28 -2.54,-0.28 -3.72,0 -1.47,0.52 0,-2.22 0,-2.22 -1.22,0.21 -2.5,0.21 -3.72,0 -1.47,-0.44 -3.94,-5.18 -5.16,-3.92 -1,0.99 -2.19,1.86 -3.62,2.59l-3.94 -2.81 -2 -2 -4.63 0c-0.75,-0.27 -1.56,-0.41 -2.4,-0.41 -0.85,0 -1.69,0.14 -2.44,0.41l-4.28 -4.07 -4.94 -3.48 -2.81 -4.81 -6.97 3.63c0,0 1.78,-4.96 0,-3.63 -1.81,1.33 -6.09,4.59 -6.09,4 0,-0.59 2.15,-6.59 0,-5.48 -2.13,1.11 -5.85,2.74 -5.85,2.74 0,0 -2.68,-5.55 -3.59,-4.81 -1.53,1 -3.16,1.94 -4.84,2.81 0,0 0,-3.11 -1.47,-2.88 -1.66,0.56 -3.28,1.21 -4.82,1.92l-3.84 -1.92 -2.69 0 0 -2.15 -2.37 2.22 -3.03 -2.22 -4.94 2.44 -2.94 -2.44 -9.44 0 -2.93 -2.96 -2.82 3.26c0,-0.74 0.79,-2 0,-1.56 -2.06,1.23 -3.9,2.59 -5.53,4.07l0 -2.96 -2.34 3.11 -3.94 -1.85 -3.37 4.74c0,-1.04 2.25,-4 0,-2.89 -2.25,1.11 -5.53,3.33 -5.53,2.81 0,-0.52 1.25,-4.96 0,-4.66 -1.22,0.3 -4.82,-0.52 -4.82,-0.52l0 -3.55 -2.5 0 0 -4.36 -2.12 1.4 -2.47 -4.73 -7.53 3.84 0 -3.84 -3.06 1.99c0,0 -1.79,-6.73 -3.94,-5.1 -2.13,1.63 -5.16,7.1 -5.16,5.7 0,-1.41 -0.56,-7.4 -2.47,-5.7 -1.47,1.39 -2.81,2.85 -3.93,4.36 0,0 -4.85,-2.59 -4.85,-1.62 0,0.96 -2.37,5.1 -3.03,4.58 -0.69,-0.51 -2.5,-3.47 -2.5,-3.47l-5.72 2.22 -2.72 -3.19 -3.37 4.07 -2.69 -1.85 -9.44 0c-1.81,1.84 -3.84,3.57 -6.09,5.18 0,-0.51 -2.34,-6.06 -2.34,-6.06l-5.19 -1.48 -2.81 3.84 0 -5.18 -4.63 5.18 -2.69 -2.07 -3.03 2.07 -4.62 -5.18 0 5.7 -2.69 -3.85 -5.19 1.48c0,0 -2.34,5.55 -2.34,6.07 -2.25,-1.61 -4.28,-3.34 -6.1,-5.18l-9.43 0 -2.72 1.85 -3.47 -4.07 -2.72 3.18 -5.72 -2.73c0,0 -1.81,2.88 -2.37,3.47 -0.57,0.6 -2.82,-3.7 -3.16,-4.58 -0.31,-0.89 -4.72,1.62 -4.72,1.62 -1.19,-1.51 -2.56,-2.96 -4.03,-4.36 -1.81,-1.63 -2.37,4.14 -2.37,5.7 0,1.55 -3.04,-4.15 -5.19,-5.7 -2.13,-1.55 -3.94,5.1 -3.94,5.1l-3.03 -1.99 0 3.99 -7.66 -3.85 -2.34 4.74 -2.25 -1.41 0 4.22 -2.38 0 0 3.7c0,0 -3.59,0.89 -4.84,0.52 -1.22,-0.37 0,4.07 0,4.66 0,0.59 -2.47,-1.48 -5.5,-2.81 -3.03,-1.33 -0.78,1.85 0,2.88l-3.37 -4.73 -3.94 1.85 -2.47 -3.11 0 2.96c-1.59,-1.5 -3.44,-2.86 -5.53,-4.07 -1,-0.44 -0.66,0.82 0,1.55l-2.69 -3.25 -3.03 2.96 -9.34 0 -2.47 2.44 -4.97 -2.44 -2.91 2.22 -2.5 -2.22 0 2.14 -2.69 0 -3.71 1.93c-1.54,-0.72 -3.16,-1.36 -4.85,-1.93 -1.22,0 -1.56,2.89 -1.56,2.89 -1.69,-0.86 -3.25,-1.8 -4.72,-2.81 -0.91,-0.74 -3.72,4.81 -3.72,4.81 0,0 -3.72,-1.63 -5.75,-2.74 -2,-1.11 0,4.96 0,5.48 0,0.51 -4.25,-2.74 -6.06,-4 -1.81,-1.26 0,3.62 0,3.62l-7.09 -3.62 -2.69 4.81 -4.85 3.48 -4.28 4.07c-0.75,-0.27 -1.56,-0.41 -2.4,-0.41 -0.85,0 -1.69,0.14 -2.44,0.41l-4.59 0 -2.04 1.99 -1.46 0.97c-1.79,0 -2.69,1.18 -3.38,1.33 -1.06,-0.61 -2.03,-1.3 -2.81,-2.07 -1,-1.11 -2.91,2.14 -4.38,3.4 -3.5,-0.74 -8.22,2.81 -10.68,-0.37 -2.47,-3.18 -6.54,-3.03 -8,-1.11 -1.47,1.92 5.84,5.92 -1.47,2 -7.32,-3.92 -2.69,4.21 -5.28,1.55 -2.6,-2.66 -5.16,1.04 -6.19,-0.44 -1,-1.48 -1.78,3.55 -5.06,0 -3.25,-3.55 -8.32,-2.37 -8.32,-0.82 0.28,1.12 0.88,2.19 1.69,3.18 -0.66,-0.5 -1.22,-1.05 -1.69,-1.62 -3.93,-4.22 -8.34,0.44 -8.34,0.44l-1.44 0.96c-0.65,0.18 -1.25,0.46 -1.69,0.82 -1.03,0 -2.03,0 -2.59,-0.89 -0.56,-0.89 -0.78,-0.82 -1.12,0 -0.35,0.81 -0.69,-0.52 -1.13,0 -0.06,0.19 -0.19,0.36 -0.37,0.52 -0.16,0.15 -0.41,0.27 -0.66,0.36 -0.25,0.08 -0.53,0.13 -0.84,0.13 -0.29,0 -0.57,-0.04 -0.85,-0.12 -0.44,-0.36 -1.03,-0.64 -1.69,-0.82l-1.43 -0.96c0,0 -4.28,-4.66 -8.22,-0.44 -0.5,0.57 -1.06,1.12 -1.69,1.62 0.81,-0.99 1.38,-2.06 1.69,-3.18 0,-1.55 -5.06,-2.44 -8.44,0.82 -3.37,3.25 -3.94,-1.7 -4.97,0 -1,1.7 -3.59,-2.22 -6.19,0.44 -2.56,2.66 1.82,-5.47 -5.37,-1.55 -7.22,3.92 0,0 -1.47,-2 -1.47,-2 -5.06,-2.66 -8,1.11 -2.91,3.77 -8.66,-1.78 -12.37,1.11 -3.72,2.88 -3.94,-3.11 -4.94,-2.22 -1.03,0.89 -2.16,-3.26 -6.19,0 -4.06,3.26 -5.53,-1.48 -5.53,-1.48 0,0 -4.59,-2.66 -6.85,-1.7 -2.25,0.96 -1.8,-0.96 -3.6,0 -1.8,0.96 -2.14,0.52 -2.93,1.4 -0.42,0.28 -0.94,0.49 -1.5,0.61 -0.57,0.13 -1.17,0.16 -1.76,0.1 -0.59,-0.06 -1.15,-0.2 -1.64,-0.43 -0.49,-0.22 -0.89,-0.52 -1.17,-0.87 -1.47,-2 0,0 -1.92,4.15 -1.91,4.14 -2.47,0.66 -3.93,-2.45 -1.47,-3.1 -2.59,0.89 -5.74,5.55 -3.15,4.66 -4.73,-2.07 -7.99,2.82 -3.26,4.88 -4.39,-6.81 -8.32,-3.56 -3.94,3.26 -6.75,-2.59 -6.75,-2.59 -0.49,-0.45 -1.12,-0.82 -1.85,-1.09 -0.73,-0.27 -1.55,-0.43 -2.38,-0.48 -0.84,-0.04 -1.68,0.04 -2.47,0.23 -0.78,0.2 -1.49,0.5 -2.08,0.9 -4.27,3.03 -2.92,-5.11 -7.2,-3.18 -4.27,1.92 -3.26,-2.3 -7.54,1.18 -4.27,3.48 -2.92,-3.92 -6.97,0 -4.05,3.92 -2.48,-1.77 -7.88,5.33 -5.4,7.1 -5.06,-1.63 -7.65,2.66 -2.59,4.29 -1.46,-2.07 -5.4,0 -3.94,2.07 -1.91,-1.63 -6.19,2.37 -4.27,4 -2.58,-4.44 -6.18,0 -3.6,4.44 -2.48,-4.59 -5.74,-2.07 -3.26,2.51 -1.13,-2.07 -5.4,4.14 -4.28,6.22 -1.8,-1.63 -3.6,1.85 -1.8,3.48 -3.83,0 -3.94,0 -0.11,0 -2.92,2.52 -3.71,0.82 -0.79,-1.71 -5.4,0 -5.4,0 -4.28,0.81 0,0 -3.26,4.29 -3.27,4.29 -2.14,-2.15 -4.39,0 -2.25,2.14 -5.4,-0.74 -7.99,0 -2.59,0.74 -4.95,0 -9,2.96 -4.05,2.96 -3.94,0 -3.94,0 -2.06,-0.97 -4.24,-1.81 -6.52,-2.52 -1.69,-0.37 -5.06,0 -4.61,0.74 0.45,0.74 -9.12,-2.15 -11.25,0 -2.14,2.15 -3.15,0 -5.63,2.22 -2.47,2.22 -5.51,-1.26 -7.99,0.67 -2.48,1.92 -4.5,-2.37 -6.19,1.33 -1.69,3.7 -3.37,0.66 -4.05,-2.67 -0.67,-3.33 -6.19,-1.03 -9,3.33 -2.81,4.37 -5.4,-2.88 -8.77,0.89 -3.38,3.78 -3.6,-1.55 -5.07,1.78 -1.46,3.33 -2.92,2.66 -2.92,-0.67 0,-3.33 -5.96,-0.81 -8.33,3.7 -1.13,0.38 -2.19,0.86 -3.15,1.41 -0.67,-0.45 -1.46,-1.04 -2.13,-0.96l0 -1.78c-0.96,1.06 -1.79,2.18 -2.48,3.33l-3.04 -2.59 -2.47 2.59c0,0 -1.13,-2 -2.36,-2.37 -1.53,-0.16 -3.09,-0.16 -4.62,0l-2.47 2.37 -5.4 0.81 -2.03 1.78 -2.13 -0.59c-1.51,-0.91 -3.17,-1.71 -4.95,-2.37 -1.49,-0.2 -3.02,-0.2 -4.5,0 -1.71,-0.24 -3.44,-0.36 -5.18,-0.37 -1.24,0 -3.15,2.07 -3.15,2.07 0,0 -2.7,-1.11 -3.6,-0.96 -0.94,0.38 -1.72,0.91 -2.25,1.55l0 0c0,0 -2.47,-2.59 -3.37,-2.59 -0.9,0 -2.7,2.44 -2.7,2.44l-4.84 -3.92 -2.93 1.63 -2.25 -3.18 -4.5 1.33 0 -1.48 -3.37 1.63c-2.52,0.37 -5.13,0.37 -7.65,0 -2.37,-0.81 -4.28,1.33 -4.28,1.33 -2.2,-0.7 -4.5,-1.27 -6.86,-1.7 -1.58,0.18 -3.13,0.48 -4.61,0.89l-3.6 -3.48c-1.24,-1.11 -4.62,0 -5.85,-0.89 -1.24,-0.89 -2.93,-0.96 -5.18,-1.55 -2.25,-0.59 -1.57,1.55 0,3.18 0,-0.59 -1.91,-1.92 -3.04,-2.15 -1.12,-0.22 -5.17,2.74 -5.17,2.74 -0.99,-1.22 -2.32,-2.3 -3.94,-3.18 -2.59,-1.33 0,1.77 0,2.37l-3.82 -0.89 -3.15 -1.26 -3.94 -0.74c-0.88,-1.01 -1.98,-1.93 -3.26,-2.74 -1.94,-0.22 -3.92,-0.22 -5.85,0 0,0 -2.37,0 -3.94,0 -1.58,0 -2.03,2 -2.36,2.52 -0.34,0.52 -6.42,-0.74 -7.65,-2.52 -1.24,-1.77 -2.7,2.52 -2.7,2.52 0,0 -1.24,-1.63 -2.14,-2.52 -0.9,-0.88 -4.61,2.15 -4.61,2.15l0 -2.15c0,0 -5.97,4.74 -6.98,4.52 -1.01,-0.22 -3.26,2.59 -3.26,2.59 -1.57,-0.59 -3.01,-1.31 -4.28,-2.15 -1.8,-1.26 -6.07,0.89 -7.08,0.89 -1.02,0 -2.37,-0.74 -3.61,-2 -1.23,-1.26 -2.7,2.59 -3.93,2.89 -1.24,0.29 -2.48,-1.63 -4.5,-2.89 -2.03,-1.26 -3.94,2 -3.94,2l-1.58 -1.33c-1.57,-1.26 -4.27,4.29 -4.27,4.29 -1.36,-0.29 -2.68,-0.66 -3.94,-1.11 -1.57,-0.59 -3.6,3.18 -3.6,3.18l-3.37 -3.33c-1.24,-1.33 -3.72,3.48 -3.94,4.44 -0.23,0.96 -5.85,-1.48 -7.88,-2.74 -2.02,-1.26 -6.75,1.04 -8.21,0 -1.46,-1.03 -5.17,1.7 -6.75,0 -1.57,-1.7 -2.7,2.44 -4.84,1.11 -2.13,-1.33 -3.93,1.33 -5.17,0.74 -1.24,-0.59 -3.04,3.48 -3.04,3.48 -1.79,1.16 -3.75,2.2 -5.85,3.11 -0.56,0 -9.11,-0.82 -10.24,-1.19 -1.12,-0.37 -5.17,0.89 -6.07,0 -0.9,-0.88 -1.91,-1.33 -2.81,-1.33 -0.9,0 -4.73,2.74 -4.73,2.74l-7.65 -1.41 -2.47 1.41c0,0 -4.5,-1.55 -4.84,-2.37 -0.34,-0.81 -2.48,2.37 -2.48,2.37l-2.36 -1.78 -7.54 1.78c-0.86,-1 -1.92,-1.92 -3.15,-2.74 -1.24,-0.52 -3.37,0.82 -3.37,0.82l-3.27 -2.22c0,0 -4.83,2.36 -6.07,2.22 -2.62,-0.12 -5.26,-0.12 -7.88,0 -1.21,-0.72 -2.27,-1.54 -3.15,-2.45 -0.78,-1.11 -4.27,1.11 -4.27,1.11 0,0 -3.94,-0.51 -3.94,-2.22l0 1.71c-1.17,-1.1 -2.61,-2.05 -4.27,-2.82 -2.37,-0.88 -3.27,2.45 -3.27,2.45 -0.81,-1.52 -1.9,-2.96 -3.26,-4.3 -1.12,0 -5.17,4.81 -5.17,4.81 0,0 -2.25,-2.59 -4.62,-2.96 -2.36,-0.37 -1.01,0 -1.01,0.37 -0.4,-0.59 -0.88,-1.17 -1.46,-1.7 -1.13,-0.81 -3.04,4.29 -3.04,4.29l0 -3.7 -3.26 3.19 -2.48 -2.96 0 4.21c-0.79,-1.31 -1.7,-2.59 -2.7,-3.84 -1.57,-1.85 -2.25,2.36 -2.25,2.36l0 -2.51c0,0 -3.93,1.11 -4.83,-1.11 -0.9,-2.22 0,0 -1.13,-1.26 -1.12,-1.26 -3.15,1.63 -3.15,1.63l-1.46 -2.22c-1.46,-2.22 -3.04,2 -3.04,2 0,0 -1.46,-3.63 -2.36,-5.33 -0.9,-1.7 -7.09,2.96 -7.09,2.96l-4.5 -3.85c-1.26,1.38 -2.21,2.88 -2.81,4.44 0,1.11 -3.71,-2.59 -7.31,-4.44 -3.6,-1.85 -1.02,2.15 0,3.41 -0.9,-0.89 -2.82,-2.82 -4.17,-3.19 -1.35,-0.37 0,4.22 0,4.22l-2.81 -3.33 -3.38 6.81c0,0 -1.57,-2.52 -2.47,-4.44 -0.9,-1.92 -2.37,3.18 -2.37,3.18 -0.88,-1.49 -1.97,-2.93 -3.26,-4.29 -2.14,-2.07 -0.79,1.33 0,2.59 -0.94,-0.96 -1.8,-1.95 -2.59,-2.96 -0.67,-0.74 -2.13,2.81 -2.13,2.81 -1.05,-1.12 -2.63,-1.98 -4.5,-2.44 -1.35,-0.37 -1.69,0 -1.69,0.67 0,-0.67 -0.68,-1.11 -0.79,-1.41 -0.11,-0.3 -3.94,4.07 -3.94,3.55 -0.95,-1.96 -2.08,-3.89 -3.37,-5.77 -0.9,-1.48 0,5.18 0,5.18l-2.81 -4.07c0,0 -3.6,2.59 -4.5,1.48 -0.9,-1.11 -2.37,3.85 -2.37,3.85l-3.37 -4.37c-2.14,-2.81 -3.71,2.74 -3.71,2.74 0.18,-1.9 0.18,-3.8 0,-5.7 0,-1.85 -3.94,3.33 -3.94,3.33 -0.62,-1.42 -1.65,-2.75 -3.04,-3.92 -1.8,-1.26 -3.6,2.07 -3.6,2.07l-1.57 -2.59c-1.58,-2.59 -2.7,1.26 -2.7,1.26 0,0 -1.24,-2.37 -2.48,-4.37 -1.24,-1.99 -3.26,1.85 -3.26,1.85l-4.95 -3.18c-2.14,-1.55 0,2.44 0,3.11 -1.95,-1.65 -3.76,-3.38 -5.4,-5.18 -1.8,-2 -4.61,5.25 -4.61,5.25l-3.94 -4.07c-1.58,-1.7 -5.18,2.74 -5.18,2.74 0.2,-1.35 0.2,-2.71 0,-4.07 0,-2 -2.7,3.7 -2.7,3.7 0,0 -2.47,-3.33 -2.81,-4.07 -0.34,-0.74 -4.16,3.33 -4.16,3.33 -1.37,-1.43 -2.61,-2.91 -3.71,-4.44 -1.24,-1.85 -4.5,3.48 -4.5,3.48 -1.06,-1.5 -2.38,-2.92 -3.94,-4.22 -0.9,0 -2.14,2.82 -2.14,2.82l-4.5 -2.82c-1.24,-1.11 -4.61,2 -8.89,0 -4.27,-1.99 -4.61,1.04 -6.3,0 -1.69,-1.03 -5.29,1.41 -6.19,0 -0.9,-1.4 -3.26,-3.18 -4.5,-5.03 -1.23,-1.85 -7.31,7.4 -11.25,4.66 -3.93,-2.73 -7.65,1.63 -9.78,0.74 -2.14,-0.88 -2.7,1.63 -4.17,0 -1.13,-1.15 -2.37,-2.27 -3.71,-3.33 -1.46,-1.48 -1.8,5.18 -3.71,4.44 -1.91,-0.74 -1.35,0 -2.48,0 -0.66,0.24 -1.38,0.39 -2.13,0.45l-3.04 0c-0.75,-0.06 -1.48,-0.21 -2.14,-0.45l0 0c-0.8,-0.16 -1.67,-0.16 -2.47,0 -1.92,0.74 -2.25,-5.92 -3.6,-4.44 -1.41,1.04 -2.69,2.16 -3.83,3.33 -1.35,1.85 -2.02,-0.74 -4.16,0 -2.14,0.74 -6.08,-3.33 -9.79,-0.74 -3.71,2.59 -9.67,-6.51 -11.25,-4.66 -1.57,1.85 -3.6,3.85 -4.5,5.03 -0.9,1.19 -4.27,-1.55 -6.07,0 -1.8,1.56 -2.14,-1.85 -6.42,0 -4.27,1.85 -7.65,-1.33 -8.88,0l-4.51 2.82c0,0 -1.12,-2.96 -2.13,-2.82 -1.56,1.3 -2.89,2.72 -3.94,4.22 0,0 -3.26,-5.33 -4.5,-3.48 -1.24,1.85 -3.6,4.44 -3.6,4.44 0,0 -4.05,-4.07 -4.28,-3.33 -0.22,0.74 -2.81,4.07 -2.81,4.07 0,0 -2.36,-5.7 -2.7,-3.7 -0.19,1.36 -0.19,2.72 0,4.07 0,0 -3.6,-4.44 -5.17,-2.74l-3.94 4.07c0,0 -2.81,-7.4 -4.61,-5.25 -1.8,2.15 -4.62,4.59 -5.29,5.18 0,-0.67 2.02,-4.66 0,-3.11l-4.95 3.18c0,0 -2.14,-3.92 -3.26,-1.85 -1.13,2.08 -2.48,4.37 -2.48,4.37 0,0 -1.12,-3.85 -2.7,-1.26l-1.57 2.59c0,0 -1.8,-3.33 -3.6,-2.07 -1.39,1.17 -2.42,2.5 -3.04,3.92 0,0 -3.71,-5.18 -3.94,-3.33 -0.18,1.9 -0.18,3.8 0,5.7 0,0 -1.57,-5.55 -3.71,-2.74 -2.14,2.81 -3.38,4.37 -3.38,4.37 0,0 -1.46,-4.96 -2.36,-3.85 -0.9,1.11 -4.5,-1.48 -4.5,-1.48l-2.81 4.07c0,0 0.9,-6.66 0,-5.18 -1.3,1.88 -2.42,3.81 -3.38,5.77 0,0.52 -3.26,-4.29 -3.93,-3.55 -0.68,0.74 0,0.74 -0.79,1.41 0,-0.67 0,-1.04 -1.69,-0.67 -1.87,0.46 -3.45,1.32 -4.5,2.44 0,0 -1.46,-3.55 -2.14,-2.81 -0.78,1.01 -1.64,2 -2.58,2.96 0.56,-1.26 1.91,-4.66 0,-2.59 -1.35,1.35 -2.48,2.79 -3.38,4.29 0,0 -1.57,-5.03 -2.36,-3.18 -0.79,1.85 -2.48,4.44 -2.48,4.44l-3.37 -6.81 -2.81 3.33c0,0 1.91,-4.81 0,-4.22 -1.92,0.6 -3.27,2.3 -4.17,3.19 0.68,-1.26 2.82,-4.96 0,-3.41 -2.81,1.56 -7.31,5.55 -7.31,4.44 -0.6,-1.56 -1.55,-3.06 -2.81,-4.44l-4.39 3.85c0,0 -6.08,-4.59 -7.09,-2.96 -1.01,1.63 -2.36,5.33 -2.36,5.33 0,0 -1.58,-4.22 -3.04,-2l-1.46 2.22c0,0 -1.91,-2.96 -3.15,-1.63 -1.24,1.33 0,-0.96 -1.13,1.26 -1.12,2.22 -4.83,1.11 -4.83,1.11l0 2.59c0,0 -0.68,-4.22 -2.25,-2.37 -1.01,1.25 -1.91,2.54 -2.7,3.85l0 -4.22 -2.48 2.96 -3.26 -3.18 0 3.7c0,0 -1.91,-5.11 -3.04,-4.29 -0.53,0.55 -1.02,1.11 -1.46,1.7 0,0 0,-0.45 -1.01,-0.37 -1.02,0.07 -4.5,2.96 -4.5,2.96 0,0 -4.17,-4.81 -5.29,-4.81 -1.35,1.33 -2.45,2.78 -3.26,4.29 0,0 -0.9,-3.33 -3.27,-2.44 -1.66,0.77 -3.11,1.72 -4.27,2.81l0 -1.7c0,1.7 -3.94,2.22 -3.94,2.22 0,0 -3.49,-2.22 -4.27,-1.11 -0.88,0.9 -1.94,1.72 -3.15,2.44 -2.63,-0.11 -5.26,-0.11 -7.88,0 -1.24,0 -6.07,-2.22 -6.07,-2.22l-3.27 2.22c0,0 -2.13,-1.33 -3.37,-0.81 -1.21,0.81 -2.23,1.73 -3.04,2.73l-7.65 -1.77 -2.36 1.77c0,0 -2.14,-3.1 -2.48,-2.36 -0.33,0.74 -4.83,2.36 -4.83,2.36l-2.37 -1.4 -7.76 1.4c0,0 -3.94,-2.73 -4.73,-2.73 -0.78,0 -1.91,0 -2.81,1.33 -0.9,1.33 -4.84,0 -6.07,0 -1.24,0 -9.68,1.03 -10.24,1.18 -2.1,-0.9 -4.06,-1.95 -5.85,-3.11 0,0 -1.8,-3.99 -3.04,-3.47 -1.24,0.51 -3.04,-2 -5.17,-0.74 -2.14,1.25 -3.27,-2.74 -4.84,-1.11 -1.58,1.62 -5.18,-0.74 -6.75,0 -1.58,0.74 -5.96,-1.63 -8.1,0 -2.14,1.62 -7.65,3.62 -7.88,2.73 -0.22,-0.88 -2.81,-5.77 -3.93,-4.43l-3.49 3.32c0,0 -2.03,-3.77 -3.6,-3.18 -1.26,0.46 -2.58,0.83 -3.94,1.11 0,0 -2.7,-5.55 -4.27,-4.29l-1.58 1.33c0,0 -1.69,-3.33 -3.94,-1.99 -2.25,1.33 -3.26,3.25 -4.5,2.88 -1.23,-0.37 -2.7,-4.22 -3.93,-2.88 -1.24,1.33 -2.7,1.99 -3.6,1.99 -0.9,0 -5.18,-2.14 -7.09,-0.89 -1.27,0.85 -2.71,1.57 -4.28,2.15 0,0 -2.36,-2.74 -3.26,-2.59 -0.9,0.15 -6.98,-4.51 -6.98,-4.51l0 2.14c0,0 -3.71,-2.96 -4.5,-2.14 -0.84,0.8 -1.59,1.64 -2.25,2.51 0,0 -1.57,-4.29 -2.7,-2.51 -1.12,1.77 -7.31,3.11 -7.65,2.51 -0.34,-0.59 -0.79,-2.36 -2.36,-2.51 -1.58,-0.15 -3.94,0 -3.94,0 -1.93,-0.23 -3.91,-0.23 -5.85,0 -1.28,0.8 -2.38,1.72 -3.26,2.74l-3.94 0.74 -3.15 1.25 -3.82 0.89c0,-0.59 2.47,-3.7 0,-2.37 -1.62,0.89 -2.96,1.97 -3.94,3.19 0,0 -3.26,-3.19 -5.18,-2.74 -1.91,0.44 -2.47,1.55 -3.03,2.14 1.23,-1.62 1.68,-3.7 0,-3.18 -1.69,0.52 -3.94,0.59 -5.18,1.56 -1.24,0.96 -4.61,0 -5.85,0.88l-3.6 3.48c-1.48,-0.42 -3.02,-0.72 -4.61,-0.89 -2.36,0.43 -4.66,1 -6.86,1.7 0,0 -1.92,-2.14 -4.28,-1.33 -2.52,0.37 -5.13,0.37 -7.65,0l-3.37 -1.62 0 1.62 -4.5 -1.33 -2.14 3.18 -4.05 -1.85 -3.94 3.85c0,0 -1.91,-2.44 -2.7,-2.44 -0.79,0 -3.38,2.51 -3.38,2.59 0,0 -1.46,-1.33 -2.36,-1.56 -0.9,-0.22 -3.6,0.97 -3.6,0.97 0,0 -1.8,-1.93 -3.15,-2.08 -1.74,0.01 -3.47,0.14 -5.17,0.37 -1.49,-0.19 -3.02,-0.19 -4.5,0 -1.79,0.67 -3.44,1.46 -4.95,2.37l-2.14 0.59 -2.03 -1.77 -5.4 -0.81 -2.47 -2.37c-1.53,-0.16 -3.09,-0.16 -4.61,0 -1.24,0 -2.37,2.37 -2.37,2.37l-2.47 -2.59 -3.04 2.59c-0.69,-1.16 -1.52,-2.27 -2.47,-3.33l0 1.7c-0.68,0 -1.47,0.51 -2.14,0.96 -0.96,-0.55 -2.02,-1.02 -3.15,-1.41 -2.36,-4.51 -8.33,-6.88 -8.33,-3.7 0,3.19 -1.46,3.93 -2.92,0.67 -1.46,-3.26 -1.91,1.92 -5.06,-1.78 -3.15,-3.7 -5.85,3.56 -8.78,-0.88 -2.92,-4.44 -8.21,-6.59 -9,-3.33 -0.79,3.25 -2.14,6.43 -4.05,2.66 -1.91,-3.77 -3.6,0.67 -6.19,-1.33 -2.58,-2 -5.4,2 -7.98,-0.67 -2.59,-2.66 -3.6,0 -5.63,-2.22 -2.02,-2.22 -11.25,1.04 -11.25,0 0,-1.03 -2.93,-1.11 -4.61,-0.74 -2.29,0.71 -4.47,1.56 -6.53,2.52 0,0 0,3.33 -3.94,0 -3.93,-3.33 -6.52,-2.22 -9,-2.96 -2.47,-0.74 -5.85,2.29 -7.98,0 -2.14,-2.3 -1.13,4.29 -4.39,0 -3.26,-4.29 1.01,-3.48 -3.26,-4.29 0,0 -4.73,-1.78 -5.4,0 -0.68,1.77 -3.6,0 -3.6,-0.82 0,-0.81 -2.37,3.18 -3.94,0 -1.58,-3.18 0.67,4.29 -3.71,-1.85 -4.39,-6.14 -2.14,-1.77 -5.4,-4.14 -3.27,-2.37 -2.14,6.81 -5.74,2.07 -3.6,-4.73 -1.91,3.85 -6.19,0 -4.27,-3.85 -2.25,-0.37 -6.19,-2.37 -3.93,-1.99 -2.81,4.22 -5.4,0 -2.58,-4.21 -2.13,4.3 -7.65,-2.66 -5.51,-6.95 -3.93,-1.33 -7.87,-5.33 -3.94,-3.99 -2.59,3.55 -6.86,0 -4.28,-3.55 -3.27,0.74 -7.65,-1.18 -4.39,-1.92 -2.82,6.21 -7.21,3.18 -0.57,-0.39 -1.27,-0.7 -2.05,-0.89 -0.78,-0.2 -1.61,-0.27 -2.44,-0.23 -0.83,0.04 -1.63,0.2 -2.35,0.47 -0.72,0.27 -1.34,0.65 -1.82,1.1 0,0 -2.81,5.99 -6.86,2.58 -4.05,-3.4 -5.07,8.44 -8.33,3.56 -3.26,-4.89 -4.61,1.77 -7.99,-2.81 -3.37,-4.59 -4.27,-8.59 -5.73,-5.55 -1.47,3.03 -2.25,6.58 -3.94,2.44 -1.69,-4.15 0,-6.14 -1.91,-4.15 -0.28,0.35 -0.68,0.65 -1.18,0.87 -0.48,0.23 -1.05,0.38 -1.63,0.43 -0.59,0.06 -1.2,0.03 -1.76,-0.1 -0.57,-0.12 -1.09,-0.33 -1.51,-0.6 -0.79,-0.89 -1.01,-0.45 -2.92,-1.41 -1.92,-0.96 -1.47,0.96 -3.6,0 -2.14,-0.96 -6.87,1.7 -6.87,1.7 0,0 -1.46,4.74 -5.51,1.48 -4.05,-3.25 -5.06,0.89 -6.19,0 -1.12,-0.89 -1.46,5.03 -4.95,2.22 -3.48,-2.81 -9.45,2.67 -12.37,-1.11 -2.93,-3.77 -6.53,-3.03 -7.99,-1.11 -1.46,1.93 5.85,5.92 -1.46,2 -7.31,-3.92 -2.81,4.22 -5.4,1.55 -2.59,-2.66 -5.06,1.04 -6.19,-0.44 -1.12,-1.48 -1.69,3.55 -4.95,0 -3.26,-3.55 -8.44,-2.37 -8.44,-0.81 0.3,1.11 0.88,2.18 1.69,3.18 -0.64,-0.51 -1.2,-1.06 -1.69,-1.63 -3.94,-4.22 -8.21,0.44 -8.21,0.44 -0.45,0.34 -0.94,0.67 -1.46,0.96 -0.66,0.18 -1.23,0.46 -1.69,0.82 -0.26,0.08 -0.55,0.12 -0.84,0.12 -0.29,0 -0.58,-0.05 -0.84,-0.13 -0.26,-0.09 -0.49,-0.21 -0.66,-0.36 -0.18,-0.15 -0.3,-0.33 -0.36,-0.52 0,-0.89 -0.79,-0.81 -1.13,0 -0.33,0.81 -0.67,-0.52 -1.12,0 -0.45,0.52 -1.58,1.18 -2.59,0.89 -0.45,-0.36 -1.03,-0.64 -1.69,-0.82l-1.46 -0.96c0,0 -4.27,-4.66 -8.32,-0.44 -0.49,0.57 -1.05,1.12 -1.69,1.63 0.81,-1 1.38,-2.07 1.69,-3.18 0,-1.56 -5.07,-2.45 -8.33,0.81 -3.26,3.25 -3.94,-1.7 -5.06,0 -1.13,1.7 -3.6,-2.22 -6.08,0.44 -2.47,2.67 1.69,-5.47 -5.4,-1.55 -7.08,3.92 0,0 -1.46,-2 -1.46,-2 -5.06,-2.66 -7.99,1.11 -2.92,3.78 -7.2,0 -10.68,0.37 -1.47,-1.26 -3.27,-4.51 -4.39,-3.4 -0.79,0.77 -1.74,1.47 -2.81,2.07 -0.68,0 -1.58,-1.7 -3.38,-1.33l-1.46 -0.96 -2.03 -2 -4.61 0c-0.74,-0.27 -1.57,-0.41 -2.42,-0.41 -0.84,0 -1.68,0.14 -2.42,0.41l-4.27 -4.07 -4.84 -3.48 -2.7 -4.81 -7.09 3.63c0,0 1.92,-4.96 0,-3.63 -1.91,1.33 -6.07,4.59 -6.07,4 0,-0.59 2.14,-6.59 0,-5.48 -2.14,1.11 -5.74,2.74 -5.74,2.74 0,0 -2.7,-5.55 -3.71,-4.81 -1.47,1.01 -3.05,1.95 -4.73,2.81 0,0 0,-3.11 -1.57,-2.88 -1.68,0.56 -3.3,1.21 -4.84,1.92l-3.6 -1.92 -2.81 0 0 -2.15 -2.37 2.22 -3.03 -2.22 -4.84 2.44 -2.59 -2.44 -9.34 0 -3.03 -2.96 -2.7 3.26c0,-0.74 0.67,-2 0,-1.56 -2.09,1.21 -3.94,2.58 -5.52,4.07l0 -2.96 -2.47 3.11 -3.94 -1.85 -3.37 4.74c0,-1.04 2.25,-4 0,-2.89 -2.25,1.11 -5.52,3.33 -5.52,2.81 0,-0.52 1.24,-4.96 0,-4.66 -1.23,0.3 -5.62,-0.37 -5.62,-0.37l0 -3.7 -2.36 0 0 -4.36 -2.25 1.4 -2.37 -4.73 -7.65 3.99 0 -3.99 -3.03 1.99c0,0 -1.8,-6.73 -3.94,-5.1 -2.14,1.63 -5.18,7.4 -5.18,5.7 0,-1.71 0,-7.4 -2.36,-5.7 -1.49,1.4 -2.84,2.85 -4.05,4.36 0,0 -4.5,-2.59 -4.72,-1.62 -0.23,0.96 -2.48,5.1 -3.16,4.58 -0.67,-0.51 -2.25,-3.47 -2.25,-3.47l-5.74 2.22 -2.81 -3.19 -3.49 4.22 -2.7 -2 -9.33 0c-1.84,1.84 -3.91,3.57 -6.19,5.18 0,-0.51 -2.36,-6.06 -2.36,-6.06l-5.18 -1.48 -2.7 4.36 0 -5.7 -4.5 5.18 -2.81 -2.07 -2.7 2.07 -4.61 -5.18 0 5.7 -2.82 -4.22 -5.17 1.48c0,0 -2.36,5.55 -2.36,6.07 -2.24,-1.61 -4.27,-3.34 -6.08,-5.18l-9.45 0 -2.7 1.85 -3.26 -4.22 -3.04 3.19 -5.74 -2.22c0,0 -1.91,2.88 -2.47,3.47 -0.56,0.6 -2.48,-3.7 -3.04,-4.58 -0.56,-0.89 -4.84,1.62 -4.84,1.62 -1.05,-1.61 -2.29,-3.17 -3.71,-4.66 -1.91,-1.33 -2.7,4.44 -2.7,6 0,1.55 -2.81,-4.15 -4.95,-6 -2.14,-1.85 -3.94,5.11 -3.94,5.11l-3.04 -1.7 0 3.99 -7.53 -3.99 -2.48 4.73 -2.14 -1.4 0 4.36 -2.47 0 0 3.7c0,0 -3.6,0.89 -4.84,0.52 -1.24,-0.37 0,4.07 0,4.66 0,0.59 -2.36,-1.48 -5.51,-2.81 -3.15,-1.33 -0.79,1.85 0,2.88l-3.38 -4.73 -3.93 1.85 -2.37 -3.11 0 2.96c-1.61,-1.48 -3.46,-2.84 -5.51,-4.07 -1.12,-0.44 -0.67,0.82 0,1.55l-2.81 -3.25 -2.93 2.96 -9.67 0 -2.36 2.44 -4.95 -2.44 -3.04 2.22 -2.36 -2.22 0 2.14 -3.04 0 -3.71 1.93c-1.59,-0.71 -3.24,-1.36 -4.95,-1.93 -1.13,0 -1.47,2.89 -1.47,2.89 -1.69,-0.87 -3.31,-1.81 -4.83,-2.81 -0.9,-0.74 -3.6,4.81 -3.6,4.81 0,0 -3.72,-1.63 -5.85,-2.74 -2.14,-1.11 0,4.96 0,5.48 0,0.51 -4.17,-2.74 -6.08,-4 -1.91,-1.26 0,3.62 0,3.62l-6.97 -3.62 -3.04 4.66 -4.84 3.48 -4.27 4.07c-0.75,-0.27 -1.58,-0.41 -2.42,-0.41 -0.85,0 -1.68,0.14 -2.42,0.41l-4.5 0 -2.14 2 -3.71 2.81c-1.41,-0.73 -2.63,-1.6 -3.6,-2.59 -1.24,-1.26 -3.72,3.48 -5.18,3.92 -1.21,0.21 -2.49,0.21 -3.71,0 0,0 1.57,2.74 0,2.22 -1.2,-0.28 -2.51,-0.28 -3.71,0l0 3.85 -3.6 0 0 2.73c-2.47,-0.08 -4.91,-0.43 -7.2,-1.03 -1.66,-0.27 -3.15,-0.87 -4.28,-1.7 -2.14,-1.26 -3.15,1.7 -3.15,1.7 -0.74,0.26 -1.57,0.4 -2.42,0.4 -0.84,0 -1.67,-0.14 -2.42,-0.4 -2.36,-1.11 -2.7,0.89 -2.7,0.89l-4.27 1.92 -4.16 0.37 -2.25 2.37c0,0 -2.7,1.11 -4.5,0 -1.8,-1.11 -4.28,0.88 -4.28,0.88 0.36,0.85 0.36,1.75 0,2.6 0,0.96 -5.51,2.07 -6.3,2.07 -1.1,0.14 -2.16,0.39 -3.15,0.74 -1.03,1.7 -2.43,3.29 -4.16,4.73 -2.85,1.16 -5.97,2.01 -9.23,2.52 -1.61,0.11 -3.23,0.11 -4.83,0l-4.5 6.21 -8.55 1.7 0 5.33 -4.28 0 0 4.22 -8.44 0.74 -2.47 4.44 -2.37 -1.85 0 3.85c-1.05,-1.02 -2.38,-1.9 -3.93,-2.59 -2.25,-0.67 0,2.59 0,2.59l-4.28 -2.37 0 2.37 -2.81 -2.37 -3.6 2.37 0 -1.48 -3.94 0 -3.04 -1.78 -3.15 -3.55 -2.7 0c-0.93,-1.56 -1.65,-3.17 -2.13,-4.81 0,-1.92 -2.37,0 -2.37,0 0,0 -3.03,-2.81 -3.6,-3.55 -0.56,-0.74 -4.27,1.77 -4.27,1.77 -2.34,-1.37 -4.82,-2.63 -7.43,-3.77 -1.03,0.11 -2.05,0.28 -3.03,0.52 0,0 -2.93,-2.07 -2.93,-2.59 0,-0.52 -3.71,1.7 -3.71,1.7l-8.78 -0.96 -5.17 0 -3.71 0.37 -6.98 -2.37 -5.74 2c0,0 -5.73,-3.11 -6.63,-3.41 -0.9,-0.29 -3.94,2.74 -3.94,2.74l-9.79 -2.44 -3.6 2.44 -5.18 -2.44 -3.15 1.85 -2.7 -2.37 -3.71 0.82 -2.59 -1.93 -4.61 1.26 0 -1.85 -4.05 1.85 -2.14 -2.07 0 2.59 -2.7 -2.22 0 1.7 -3.03 -2.29 -3.38 0.44 -4.95 -1.48 -4.72 -2.22 -1.58 -1.7 -4.61 1.33c0.19,-1.15 0.19,-2.32 0,-3.48 0,-1.55 -4.28,2 -4.28,2l0 -2 -2.92 2.74 -4.05 3.11 0 -2.37 -3.6 1.26 -4.28 -3.26 0 3.63 -2.36 -2.74 -2.81 0.89 -0.9 0.89 -2.48 1.92 -2.92 -2.59 0 3.63 -2.48 0 -5.06 1.03 0 -1.48 -3.26 2.15c0,0 -2.14,-3.48 -2.7,-4.07 -0.56,-0.59 -3.15,1.92 -3.15,1.92l-4.39 -1.55 0 3.03 -5.4 1.33 0 -2.36 -5.17 1.92c-1.2,-0.95 -2.65,-1.76 -4.28,-2.37 -1.91,-0.59 0,2.59 0,2.59 -1.57,-0.93 -2.93,-2 -4.05,-3.18 -0.79,-1.33 -2.7,2.96 -2.7,2.96 -0.98,-1.3 -1.77,-2.67 -2.36,-4.07 0,-0.81 -3.72,2.96 -4.28,4.07 -0.56,1.11 0.56,-1.11 0,-2.59 -0.56,-1.48 -2.14,3.85 -2.81,4.59 -0.68,0.74 -2.37,-2.22 -4.84,-3.33 -2.48,-1.11 0,1.63 0,2.52l-2.48 -2.89c0,0 -4.27,2.22 -4.5,1.48 -0.22,-0.74 -0.78,0.59 -1.23,1.63l-0.9 2.07c-1.64,-1.1 -3.37,-2.14 -5.18,-3.11 -1.12,-0.59 0,3.26 0,4.07 0,0.81 -2.92,-2.81 -3.6,-3.4 -0.67,-0.6 -5.85,2.44 -5.85,2.44l0 -2.96c0,0.52 -2.02,3.7 -2.02,3.7 -1.34,-1.62 -2.4,-3.33 -3.15,-5.11 0,-1.18 -6.42,2.59 -6.42,2.59l0 -3.77c-0.96,1.06 -1.78,2.18 -2.47,3.33l-3.04 -2.59 -2.02 2.59c0,0 -1.58,-2.15 -2.82,-2.15 -1.52,-0.16 -3.08,-0.16 -4.61,0l-2.36 2.37 -5.51 0.81 -2.48 2.15c-1.98,-1.3 -4.21,-2.42 -6.64,-3.33 -1.48,-0.2 -3.01,-0.2 -4.5,0 -1.57,-0.3 -3.2,-0.5 -4.83,-0.59 -1.24,0 -3.04,2.07 -3.04,2.07 0,0 -2.81,-1.11 -3.6,-0.96 -0.79,0.15 -2.48,1.63 -2.48,1.63 0,0 -2.36,-2.59 -3.37,-2.59 -1.01,0 -2.81,2.44 -2.81,2.44l-4.28 -4 -2.92 1.78 -2.25 -3.18 -4.5 1.4 0 -1.7 -3.38 1.7c-2.48,0.37 -5.05,0.37 -7.54,0 -2.47,-0.81 -4.27,1.33 -4.27,1.33 -2.25,-0.7 -4.58,-1.27 -6.98,-1.7 -1.63,0.02 -3.25,0.14 -4.84,0.37 0,0 -2.36,-2.36 -3.6,-3.47 -1.23,-1.11 -4.5,0 -5.73,-0.89 -1.24,-0.89 -3.04,-0.96 -5.18,-1.56 -2.14,-0.59 -1.46,1.56 0,3.19 -0.79,-0.6 -2.14,-1.93 -3.26,-2.15 -1.13,-0.22 -5.18,2.74 -5.18,2.74 -0.93,-1.24 -2.28,-2.33 -3.93,-3.18 -2.48,-1.34 0,1.77 0,2.36l-3.83 -0.88 -3.04 -0.82 -3.93 -0.74c-0.94,-1.01 -2.07,-1.93 -3.38,-2.74 -1.9,-0.22 -3.84,-0.22 -5.74,0 0,0 -2.47,0 -4.05,0 -1.57,0 -2.02,2 -2.36,2.52 -0.34,0.52 -6.41,-0.74 -7.54,-2.52 -1.12,-1.77 -2.81,2.52 -2.81,2.52 0,0 -1.24,-1.63 -2.02,-2.52 -0.79,-0.88 -4.62,2.15 -4.62,2.15l0 -2.15c0,0 -6.07,4.74 -6.97,4.52 -0.9,-0.22 -3.38,2.59 -3.38,2.59 -1.57,-0.59 -3,-1.31 -4.27,-2.15 -1.8,-1.26 -6.08,0.89 -6.98,0.89 -0.9,0 -2.36,-0.74 -3.71,-2 -1.35,-1.26 -2.59,2.59 -3.94,2.89 -1.35,0.29 -2.36,-1.63 -4.5,-2.89 -2.14,-1.26 -3.94,2 -3.94,2l-1.57 -1.33c-1.46,-1.26 -4.28,4.29 -4.28,4.29 -1.35,-0.3 -2.67,-0.67 -3.93,-1.11 -1.47,-0.59 -3.6,3.18 -3.6,3.18 0,0 -2.14,-2.07 -3.27,-3.33 -1.12,-1.26 -3.71,3.48 -4.05,4.44 -0.33,0.96 -5.73,-1.48 -7.87,-2.74 -2.14,-1.26 -6.64,1.04 -8.21,0 -1.58,-1.03 -5.18,1.7 -6.75,0 -1.58,-1.7 -2.7,2.44 -4.73,1.11 -2.02,-1.33 -4.05,1.33 -5.17,0.74 -1.13,-0.59 -3.15,3.48 -3.15,3.48 -1.76,1.13 -3.64,2.16 -5.63,3.11 -0.67,0 -9.22,-0.82 -10.46,-1.19 -1.24,-0.37 -5.18,0.89 -6.08,0 -0.9,-0.88 -1.8,-0.96 -2.7,-0.96 -0.9,0 -4.83,2.74 -4.83,2.74l-7.54 -1.41 -2.48 1.41c0,0 -4.61,-1.55 -4.95,-2.37 -0.34,-0.81 -2.36,2.37 -2.36,2.37l-2.25 -2.07 -7.54 1.77c-1.09,-0.9 -2.33,-1.72 -3.71,-2.44 -1.24,-0.52 -3.38,0.82 -3.38,0.82l-3.37 -2.22c0,0 -4.84,2.36 -6.08,2.22 -2.62,-0.12 -5.25,-0.12 -7.87,0 -1.17,-0.73 -2.19,-1.55 -3.04,-2.45 -0.9,-1.11 -4.27,1.11 -4.27,1.11 0,0 -3.94,-0.51 -3.94,-2.22l0 1.71c-1.22,-1.09 -2.7,-2.04 -4.39,-2.82 -2.25,-0.88 -3.26,2.45 -3.26,2.45 0,0 -2.36,-4.15 -3.26,-4.3 -0.9,-0.14 -5.18,4.81 -5.18,4.81 0,0 -2.25,-2.59 -4.61,-2.96 -2.36,-0.37 -1.01,0 -1.01,0.37 -0.41,-0.58 -0.86,-1.15 -1.35,-1.7 -1.24,-1.11 -2.7,4 -2.7,4l0 -3.7 -3.27 3.18 -2.47 -2.96 0 4.22c-0.75,-1.33 -1.65,-2.62 -2.7,-3.85 -0.68,-0.74 -1.01,-0.52 -1.35,0l0 176.69 11.25 0 6.75 -1.78 4.5 -0.44c0,0 1.57,-10.51 4.84,-2.37 3.26,8.14 3.71,1.63 3.71,1.63 0,0 3.71,-9.03 6.41,-1.26 2.7,7.77 2.7,-8.36 5.18,0 2.47,8.36 2.7,-3.7 5.51,1.26 2.81,4.95 3.6,3.33 3.6,3.33l5.51 0c0,0 2.48,-5.03 5.51,0 3.04,5.03 5.74,0 5.74,0l8.21 0.66 4.5 -3.11 2.82 1.78 5.96 0 7.99 0 7.65 0.52c2.87,-0.68 6.01,-0.68 8.89,0 4.5,1.33 5.62,-0.74 5.62,-0.74l2.81 -4.07 5.18 2.81 6.64 -2.96 7.08 0.74 5.18 -5.03 4.84 2.74 4.27 -5.63 6.75 3.78 7.88 -0.37 9.22 -1.11 14.29 5.03 4.39 -2.44 4.27 1.48c0,0 -0.9,-10.36 5.18,-4.81 6.07,5.55 7.87,2.81 7.87,2.81l13.39 2.59 10.35 -1.7 3.15 0 -8.1 3.11c2.85,1.09 6.18,1.54 9.45,1.25 3.98,-0.35 7.81,-1.23 11.25,-2.59 0,0 0.68,-2.29 2.36,-2.73l1.92 0.44c0.59,0.36 1.08,0.79 1.46,1.26 3.94,4.58 5.4,2.22 9.34,3.62 3.93,1.41 7.65,-0.52 9.9,0 0,0 1.68,-4.29 3.15,-2.29 1.46,2 2.47,0 4.16,-0.74l10.46 0 4.61 -4.14 4.84 2.44 6.53 -0.82c1.01,0.96 1.69,1.48 1.69,0.89 -0.07,-0.34 -0.07,-0.69 0,-1.03l4.27 -0.52c0.33,0.05 0.68,0.05 1.01,0l1.58 0 5.17 2 9.12 0.59 6.3 -0.89c0.78,1.26 1.46,2.29 1.68,1.78 0.23,-0.52 0.57,-1.19 0.9,-2.15l2.48 -0.59 0 0.51 4.39 -1.33c1.18,-0.19 2.38,-0.31 3.6,-0.37 0.17,1.46 0.17,2.92 0,4.37 0,0 3.93,-3.77 4.38,-1.55 0.02,0.56 0.32,1.1 0.85,1.54 0.53,0.44 1.25,0.75 2.08,0.9 0,0 3.15,-3.78 4.61,-1.63 1.46,2.15 3.94,2.07 5.4,3.03 1.46,0.96 4.39,-3.48 6.19,0 1.8,3.48 7.2,0 7.2,0l2.59 2.96 2.13 -2.96 0 5.63c0,0 5.07,-2.89 5.4,-1.78 0.24,1.45 0.24,2.91 0,4.37 0,0 2.59,-3.93 3.6,-1.48l1.13 2.36c0,0 1.35,-3.25 3.26,0 1.91,3.26 -0.67,2.67 1.8,3.11 2.48,0.44 2.59,-4.44 5.06,-1.78 2.48,2.67 4.05,-2.21 6.19,0.67 2.14,2.89 3.26,-2.66 3.94,0 0.67,2.66 0,-3.33 2.92,0.44 2.93,3.78 4.62,-5.91 8.67,0.45 4.05,6.36 5.74,7.4 7.2,4.36 1.46,-3.03 -3.26,-7.4 1.46,-2.81 4.73,4.59 6.87,-2.44 9.34,1.04 2.48,3.48 5.4,-1.04 6.86,2.22 1.47,3.25 9.9,-1.48 9.9,-1.48 0,0 3.27,-0.37 5.74,2.66 2.48,3.04 8.33,-2.22 9,0.59 0.68,2.82 0.79,-5.03 3.71,0.67 2.93,5.7 5.07,-2.89 7.09,2 2.03,4.88 8.66,7.4 8.66,4.14 0,-3.25 1.47,-3.99 2.93,-0.59 1.46,3.4 1.91,-2.07 5.06,1.7 3.15,3.77 5.85,-3.48 8.78,0.89 2.92,4.36 8.21,6.58 9,3.33 0.78,-3.26 2.13,-6.37 3.93,-2.67 1.8,3.7 3.6,-0.66 6.3,1.34 2.7,1.99 5.4,-2 7.88,0.59 2.47,2.59 3.6,0 5.85,2.29 2.25,2.3 11.25,-1.03 11.25,0 0,1.04 2.93,1.11 4.73,0.74 2.28,-0.73 4.47,-1.6 6.52,-2.59 0,0 0,-3.25 3.94,0 3.94,3.26 6.52,2.22 9,2.96 2.47,0.74 5.85,-2.29 7.99,0 2.13,2.3 1.12,-4.22 4.38,0 3.27,4.22 -1.12,3.48 3.27,4.37 0,0 4.72,1.77 5.4,0 0.67,-1.78 3.71,0 3.71,0.74 0,0.74 2.14,-3.18 3.94,0 1.8,3.18 -0.79,-4.29 3.6,1.92 4.38,6.22 2.13,1.7 5.4,4.14 3.26,2.45 2.13,-6.8 5.73,-2.22 3.6,4.59 1.8,-3.69 6.19,0 4.39,3.7 2.14,0.45 6.19,2.45 4.05,1.99 2.92,-4.22 5.4,0 2.47,4.21 2.14,-4.44 7.54,2.66 5.4,7.1 4.05,1.33 7.98,5.25 3.94,3.92 2.59,-3.47 6.87,0 4.27,3.48 3.26,-0.74 7.65,1.26 4.38,2 2.92,-6.36 7.2,-3.26 4.27,3.11 8.66,-0.44 8.66,-0.44 0,0 2.81,-5.92 6.86,-2.66 4.05,3.25 5.07,-8.29 8.33,-3.48 3.26,4.81 4.72,-1.78 7.99,2.89 3.26,4.66 4.38,8.58 5.73,5.47 1.35,-3.11 2.14,-6.58 4.05,-2.37 1.92,4.22 0,6.07 1.69,4.15 0.28,-0.36 0.67,-0.67 1.16,-0.91 0.49,-0.24 1.05,-0.41 1.65,-0.48 0.6,-0.07 1.22,-0.05 1.81,0.06 0.58,0.12 1.12,0.31 1.57,0.59 0.79,0.88 1.12,0.44 2.92,1.48 1.8,1.03 1.47,-1.04 3.6,0 2.14,1.03 6.87,-1.63 6.87,-1.63 0,0 1.46,-4.88 5.51,-1.56 4.05,3.33 5.06,-0.81 6.07,0 1.02,0.82 1.47,-5.1 5.07,-2.14 3.6,2.96 9.45,-2.66 12.37,1.03 2.93,3.7 6.53,3.11 7.99,1.11 1.46,-1.99 -5.85,-5.91 1.46,-1.99 7.31,3.92 2.93,-4.15 5.4,-1.48 2.48,2.66 5.06,-1.19 6.08,0.44 1.01,1.63 1.91,-3.55 5.06,0 3.15,3.55 8.33,2.52 8.33,0.89 -0.32,-1.04 -0.82,-2.06 -1.47,-3.03 0,0 0.68,0.81 1.47,1.55 4.05,4.14 8.32,-0.44 8.32,-0.44l1.46 -1.11c0.67,-0.13 1.26,-0.39 1.69,-0.74 0.27,-0.09 0.57,-0.13 0.86,-0.12 0.3,0.01 0.6,0.06 0.86,0.15 0.26,0.09 0.49,0.23 0.66,0.39 0.17,0.16 0.28,0.34 0.32,0.54 0,0.89 0.68,0.81 1.01,0 0.34,-0.82 0.79,0.52 1.13,0 0.34,-0.52 1.69,-1.19 2.7,-0.96 0.45,0.34 1.03,0.6 1.69,0.74l1.46 1.11c0,0 4.39,4.58 8.32,0.44 0.5,-0.5 0.95,-1.02 1.35,-1.55 -0.56,0.98 -1.01,2 -1.35,3.03 0,1.63 5.07,2.44 8.33,-0.89 3.26,-3.33 3.94,1.78 5.06,0 1.13,-1.77 3.6,2.22 6.19,-0.44 2.59,-2.67 -1.91,5.47 5.4,1.48 7.31,-4 0,0 1.35,1.99 1.35,2 5.17,2.59 7.99,-1.11 2.81,-3.69 8.77,1.78 12.37,-1.03 3.6,-2.81 3.94,3.03 5.06,2.14 1.13,-0.88 2.03,3.33 6.08,0 4.05,-3.32 5.51,1.56 5.51,1.56 0,0 4.73,2.66 6.86,1.63 2.14,-1.04 1.92,1.03 3.6,0 1.69,-1.04 2.14,-0.6 2.93,-1.48 0.45,-0.28 0.99,-0.47 1.57,-0.59 0.59,-0.11 1.2,-0.13 1.8,-0.06 0.6,0.07 1.17,0.24 1.66,0.48 0.49,0.24 0.89,0.55 1.16,0.91 1.35,1.92 0,0 1.8,-4.15 1.8,-4.14 2.47,-0.74 3.93,2.37 1.47,3.11 2.59,-0.89 5.74,-5.47 3.15,-4.59 4.84,1.92 7.99,-2.89 3.15,-4.81 4.39,6.88 8.33,3.48 3.93,-3.41 6.97,2.66 6.97,2.66 0.45,0.46 1.06,0.84 1.77,1.12 0.71,0.28 1.51,0.45 2.34,0.49 0.83,0.04 1.66,-0.04 2.43,-0.24 0.77,-0.2 1.46,-0.52 2.01,-0.93 4.39,-3.1 2.93,5.04 7.31,3.26 4.39,-1.77 3.27,2.22 7.54,-1.26 4.28,-3.47 2.93,3.92 6.98,0 4.05,-3.92 2.47,1.7 7.87,-5.25 5.4,-6.96 5.06,1.48 7.65,-2.66 2.59,-4.15 1.46,1.92 5.4,0 3.94,-1.93 1.8,1.55 6.08,-2.45 4.27,-3.99 2.58,4.37 6.18,0 3.6,-4.36 2.48,4.59 5.85,2.22 3.38,-2.36 1.02,2 5.4,-4.14 4.39,-6.14 1.69,1.48 3.6,-1.92 1.92,-3.41 3.72,0 3.94,0 0.23,0 2.93,-2.52 3.6,-0.74 0.68,1.77 5.51,0 5.51,0 4.28,-0.89 0,0 3.15,-4.37 3.15,-4.36 2.25,2.15 4.39,0 2.14,-2.14 5.41,0.74 7.99,0 2.59,-0.74 4.95,0 9,-2.96 4.05,-2.96 3.94,0 3.94,0 2.05,0.99 4.23,1.86 6.53,2.59 1.91,0 5.06,0 4.61,-0.74 -0.45,-0.74 9.22,2.15 11.25,0 2.02,-2.14 3.15,0 5.74,-2.29 2.58,-2.3 5.4,1.33 7.87,-0.59 2.48,-1.93 4.5,2.36 6.3,-1.34 1.8,-3.7 3.26,-0.66 4.05,2.67 0.79,3.33 6.08,1.03 9,-3.33 2.93,-4.37 5.4,2.88 8.66,-0.89 3.27,-3.77 3.6,1.55 5.07,-1.7 1.46,-3.26 2.92,-2.66 2.92,0.59 0,3.26 6.41,0.74 8.55,-4.14 2.14,-4.89 4.39,3.7 7.31,-2 2.93,-5.7 2.93,2.15 3.6,-0.67 0.68,-2.81 6.08,2.82 9,-0.59 2.93,-3.4 5.86,-2.66 5.86,-2.66 0,0 8.21,4.81 9.67,1.48 1.46,-3.33 4.39,1.33 6.98,-2.22 2.58,-3.55 4.61,3.85 9.33,-1.04 1.35,-1.48 1.92,-2 2.14,-2 -0.86,1.54 -1.09,3.2 -0.67,4.81 1.46,2.89 3.26,2.08 7.2,-4.36 3.93,-6.44 5.85,3.33 8.77,-0.45 2.93,-3.77 2.14,2.22 2.81,-0.44 0.68,-2.66 1.8,2.89 3.94,0 2.14,-2.88 3.71,2 6.3,-0.67 2.59,-2.66 2.48,2.22 4.95,1.78 2.48,-0.44 0,0 1.8,-3.11 1.8,-3.1 3.26,0 3.26,0l1.13 -2.36c1.01,-2.45 3.6,1.48 3.6,1.48 -0.18,-1.46 -0.18,-2.92 0,-4.37 0,-1.11 5.4,1.78 5.4,1.78l0 -5.55 2.25 2.96 2.47 -2.96c0,0 5.4,3.4 7.2,0 1.8,-3.41 4.73,0.96 6.19,0 1.46,-0.96 3.94,-0.82 5.4,-3.04 1.46,-2.22 4.73,1.63 4.73,1.63 0.82,-0.13 1.55,-0.45 2.06,-0.89 0.51,-0.45 0.77,-0.99 0.75,-1.55 0,-2.22 4.39,1.55 4.39,1.55 -0.17,-1.47 -0.17,-2.96 0,-4.44 0,-0.88 7.98,1.78 7.98,1.78l0 -3.11c0,-3.11 3.27,4.22 3.61,5.33 0.33,1.11 3.26,-4.88 3.26,-4.88 0,0 6.86,2.88 8.66,0 1.8,-2.89 3.6,1.92 4.39,-0.45 0.79,-2.37 7.54,2.59 8.66,1.93 1.13,-0.67 4.28,0 4.28,-2.74 0.16,1.43 0.16,2.86 0,4.29 0,1.55 5.06,-4.66 6.97,-5.7 1.91,-1.03 3.15,4.37 4.61,1.78 1.47,-2.59 3.27,4.59 4.39,3.03 1.13,-1.55 3.15,2.89 5.4,0.44 2.25,-2.44 3.26,3.04 3.6,1.12 0.34,-1.93 5.74,3.25 7.2,1.33 1.46,-1.93 3.26,2.29 3.26,2.29 2.14,-0.52 5.74,1.41 9.79,0 4.05,-1.41 5.4,0.96 9.34,-3.62 3.94,-4.59 5.85,1.03 5.85,1.03 3.43,1.39 7.26,2.27 11.25,2.59 4.39,0 4.84,0.74 14.51,-3.18 9.68,-3.92 5.4,2.22 8.33,0.44 2.93,-1.77 5.51,1.93 9.68,-1.55 4.16,-3.48 4.83,1.26 8.77,1.7 2.33,0.44 4.8,0.45 7.14,0.04 2.34,-0.42 4.46,-1.25 6.14,-2.41 4.83,-3.1 3.37,3.55 7.98,-2.36 0.58,-0.89 1.3,-1.73 2.14,-2.52 -0.77,1.65 -1,3.39 -0.67,5.1 1.46,2.6 3.26,3.78 5.4,-1.1 2.13,-4.89 6.18,4.58 8.43,1.33 2.25,-3.26 5.07,5.47 9,-0.67 0.9,-1.26 1.35,-2.07 1.69,-2.44 -0.65,1.34 -0.99,2.74 -1.01,4.14 0.79,1.78 6.19,4.44 9.45,-1.26 3.26,-5.69 7.87,2.6 12.26,-1.55 4.39,-4.14 5.06,3.55 6.86,1.55 1.8,-1.99 3.27,3.93 6.87,0.45 3.6,-3.48 3.93,4.22 8.32,-2.59l1.91 -2.96c-0.58,1.75 -0.58,3.57 0,5.33 1.8,2.37 5.74,5.25 7.99,0 2.25,-5.26 2.25,2.22 6.98,-3.11 4.72,-5.33 4.72,3.77 6.07,1.55 1.35,-2.22 4.73,3.33 7.65,0 2.93,-3.33 4.28,4.59 7.2,1.11 2.93,-3.47 2.14,2.89 5.07,0.89 2.92,-2 4.72,4.59 8.32,0.81 3.6,-3.77 0,0 1.13,3.04 1.12,3.03 2.47,3.18 5.4,-1.85 2.92,-5.03 1.46,2.59 3.93,-1.78 2.48,-4.36 3.6,4.59 7.2,-0.89 0.68,-0.88 1.02,-1.47 1.35,-1.84 -0.64,1.37 -1.09,2.78 -1.35,4.21 0,2.52 2.25,1.78 5.85,-1.7 3.6,-3.48 5.07,5.25 7.54,0 2.48,-5.25 3.6,5.92 7.65,0.81 4.05,-5.1 5.4,3.41 11.25,-1.03 5.85,-4.44 1.46,3.55 5.06,1.33 3.6,-2.22 2.93,4.59 8.78,-0.74 5.85,-5.33 0,0 0,2.07 0,2.07 2.92,5.26 6.19,1.41 3.26,-3.85 3.26,4.07 6.52,0 3.26,-4.07 4.73,4.96 8.33,1.4 3.6,-3.55 5.74,5.55 9.67,2 3.94,-3.55 3.94,4.15 9,-3.4 5.07,-7.55 5.52,6.51 7.99,4.07 2.48,-2.44 1.91,3.48 6.86,2 4.95,-1.48 0.79,6.36 4.39,1.92 3.6,-4.44 6.19,5.33 11.25,0.67 5.06,-4.67 5.4,4.21 7.54,0.66 2.14,-3.55 2.59,3.77 6.19,0.89 3.6,-2.89 2.58,3.11 5.4,0 2.81,-3.11 2.25,4.22 5.4,1.55 3.15,-2.66 3.37,4.59 7.98,-1.11 4.62,-5.69 4.73,5.11 5.85,2.44 1.13,-2.66 5.4,3.7 7.32,1.04 1.91,-2.66 2.92,-1.26 3.48,1.33 0.57,2.59 2.93,-1.48 2.93,-1.48 2.14,-2.22 4.72,3.11 6.97,1.04 2.25,-2.07 2.93,2.66 5.74,-0.89 2.81,-3.55 2.81,2.52 5.06,1.63 2.25,-0.89 3.27,4.36 6.53,1.33 3.27,-3.03 2.59,0 3.6,3.7 1.02,3.7 2.93,2.37 5.07,0 2.13,-2.37 3.6,-0.37 6.86,-3.4 3.26,-3.04 3.26,2.36 5.74,0.59 2.47,-1.78 5.06,2.66 7.31,0 2.25,-2.67 0,0 2.92,2.81 2.93,2.81 2.48,1.78 3.94,-1.33 1.46,-3.11 2.81,-1.48 2.81,-1.48 0,0 1.47,-2.52 3.72,0.81 2.25,3.33 2.13,2.44 3.6,-1.7 1.46,-4.14 9.45,2.59 12.6,-0.74 3.15,-3.33 7.31,1.78 9.45,-0.59 2.13,-2.37 3.48,2.81 5.51,1.4 2.69,-6.35 3.23,-13.02 1.57,-19.53l5.74 -0.52 6.75 2.96 5.18 -2.81 2.7 4.07c0,0 1.23,2.07 5.85,0.74 2.83,-0.67 5.93,-0.67 8.77,0l7.65 -0.52 7.88 0 6.41 0 2.7 -1.77 4.5 3.1 8.33 -0.66c0,0 2.7,4.88 5.73,0 3.04,-4.89 5.52,0 5.52,0l5.4 0c0,0 1.01,1.7 3.71,-3.33 2.7,-5.03 3.04,6.88 5.4,-1.26 2.36,-8.14 2.59,7.99 5.17,0 2.59,-7.99 6.53,1.26 6.53,1.26 0,0 0,6.51 3.6,-1.63 3.6,-8.14 4.84,2.37 4.84,2.37l4.05 0.59 6.63 1.78 11.93 0 4.95 -1.48 5.17 1.25c0,0 1.24,3.7 3.94,-4.21 2.7,-7.92 5.18,0 5.18,0l11.92 0 6.98 -3.41 7.65 -4.21 2.36 -1.78 4.84 -1.92 5.17 0 5.85 -1.48 5.52 -2 6.75 -1.85 0 -5.4 3.93 4.14 0 -6.88 3.49 5.55 2.48 -5.85 4.83 5.85 2.14 -4.37 6.19 4.15c0,0 1.46,2.37 2.59,-8.21 1.12,-10.59 5.85,7.99 5.85,7.99l0.67 -7.77c0,-7.85 2.7,3.25 2.7,3.25l3.94 -2.37 2.14 -5.17 6.41 6.88 5.17 -2.81 3.6 1.85 7.43 -3.93 5.17 1.19 8.1 -3.92 4.95 2.73 6.42 -4.21 3.94 3.92 5.17 -1.11 5.51 3.7 5.18 -1.48 11.25 1.48 5.74 -2.3 4.5 1.56 5.17 -3.55 5.85 1.99 7.31 0.6 5.4 -1.93 5.29 1.93 7.31 -0.6 5.85 -1.99 5.18 3.55 4.5 -1.56 5.74 2.3 11.25 -1.48 5.28 1.48 5.4 -3.7 5.18 1.11 3.94 -3.92 6.41 4.21 4.95 -2.73 8.1 3.92 5.29 -1.19 7.31 3.93 3.6 -1.85 5.18 2.81 6.41 -6.88 2.14 5.17 4.05 2.37c0,0 2.02,-11.1 2.7,-3.25l0.56 7.77c0,0 4.61,-18.5 5.85,-7.99 1.24,10.5 2.7,8.21 2.7,8.21l6.07 -4.15 2.14 4.37 4.95 -5.85 3.38 5.85 4.16 -5.11 0 6.89 3.94 -4.15 0 5.4 6.75 1.85 5.51 2 5.85 1.48 5.17 0 4.85 1.92 2.36 1.78 7.65 4.22 6.97 3.4 11.93 0c0,0 2.47,-7.99 5.17,0 2.7,7.99 3.94,4.22 3.94,4.22l4.5 -1.7 4.84 2.14 11.92 0 6.64 -1.77 4.05 -0.6c0,0 1.46,-10.5 4.84,-2.36 3.37,8.14 3.71,1.63 3.71,1.63 0,0 3.6,-9.03 6.41,-1.26 2.82,7.77 2.7,-8.36 5.18,0 2.47,8.36 2.7,-3.7 5.4,1.26 2.7,4.95 3.71,3.32 3.71,3.32l5.4 0c0,0 2.48,-5.03 5.51,0 3.04,5.04 5.74,0 5.74,0l8.33 0.67 4.5 -3.11 2.7 1.78 6.41 0 7.88 0 7.65 0.52c2.87,-0.68 6.01,-0.68 8.88,0 4.5,1.33 5.74,-0.74 5.74,-0.74l2.7 -4.07 5.18 2.81 6.75 -2.96 5.73 0.52c-1.66,6.51 -1.12,13.17 1.58,19.53 2.02,1.41 3.49,-3.77 5.51,-1.41 2.03,2.37 6.08,-2.66 9.45,0.6 3.38,3.25 11.25,-3.48 12.6,0.74 1.35,4.21 1.46,5.03 3.71,1.7 2.25,-3.33 3.6,-0.82 3.6,-0.82 0,0 1.47,-1.62 2.93,1.48 1.46,3.11 1.01,4.15 3.94,1.34 2.92,-2.82 0.67,-5.78 2.81,-2.82 2.14,2.96 4.72,-1.62 7.31,0 2.59,1.63 2.48,-3.7 5.74,-0.59 3.26,3.11 4.73,1.26 6.86,3.41 2.14,2.14 3.94,3.55 5.07,0 1.12,-3.56 0,-6.81 3.6,-3.7 3.6,3.1 4.38,-2.22 6.52,-1.34 2.14,0.89 2.25,-5.1 5.06,-1.62 2.82,3.47 3.6,-1.04 5.74,0.88 2.14,1.93 4.84,-3.25 6.98,-1.03 0,0 2.13,4.14 2.92,1.48 0.79,-2.67 1.69,-3.92 3.49,-1.33 1.8,2.59 6.3,-3.7 7.31,-1.04 1.01,2.66 1.24,-8.14 5.85,-2.44 4.61,5.7 4.61,-1.55 7.99,1.11 3.37,2.66 2.47,-4.44 5.4,-1.56 2.92,2.89 1.69,-3.1 5.4,0 3.71,3.11 4.05,-4.36 6.19,-0.88 2.13,3.47 2.13,-5.26 7.53,-0.67 5.4,4.59 7.99,-5.03 11.25,-0.66 3.27,4.36 -0.9,-3.56 4.39,-1.93 5.29,1.63 4.28,-4.44 6.86,-2 2.59,2.45 2.93,-11.69 7.99,-4.07 5.07,7.63 5.07,0 9,3.41 3.94,3.4 6.08,-5.55 9.68,-2 3.6,3.55 5.06,-5.47 8.32,-1.41 3.27,4.07 3.27,-3.84 6.53,0 3.26,3.85 6.52,0.52 6.19,-1.4 -0.34,-1.92 -6.19,-7.4 0,-2.07 6.18,5.32 5.06,-1.48 8.66,0.74 3.6,2.22 0,-5.77 5.06,-1.33 5.06,4.43 6.86,-4 11.25,1.03 4.39,5.03 5.06,-6.07 7.65,-0.81 2.59,5.25 3.94,-3.48 7.54,0 3.6,3.47 5.85,4.21 5.85,1.7 -0.25,-1.43 -0.71,-2.84 -1.35,-4.22 0,0.37 0.67,0.96 1.35,1.85 3.6,5.48 4.61,-3.55 7.2,0.89 2.59,4.44 1.01,-3.26 3.94,1.77 2.92,5.04 4.38,4.81 5.4,1.85 1.01,-2.95 -2.48,-6.73 1.12,-3.03 3.6,3.7 5.4,-2.81 8.33,-0.81 2.92,1.99 2.13,-4.37 5.06,-0.89 2.92,3.48 4.39,-4.22 7.2,-1.11 2.81,3.11 6.19,-2.37 7.65,0 1.47,2.37 1.47,-6.81 6.08,-1.55 4.61,5.25 4.72,-2.22 6.97,3.1 2.25,5.33 6.19,2.37 7.99,0 0.59,-1.75 0.59,-3.57 0,-5.32l1.91 2.96c4.39,6.8 4.73,-0.89 8.33,2.59 3.6,3.47 5.06,-2.45 6.86,-0.45 1.8,2 2.59,-5.7 6.86,-1.55 4.28,4.14 9,-4.15 12.27,1.55 3.26,5.7 8.66,3.04 9.45,1.26 -0.05,-1.4 -0.35,-2.79 -0.9,-4.14 0,0.37 0.67,1.18 1.57,2.44 3.94,6.14 6.86,-2.59 9,0.66 2.14,3.26 6.3,-6.21 8.44,-1.33 2.14,4.88 3.94,3.7 5.4,1.11 0.32,-1.71 0.09,-3.45 -0.68,-5.1 0.89,0.76 1.62,1.61 2.14,2.51 4.61,5.92 3.15,-0.74 7.99,2.37 1.67,1.15 3.8,1.98 6.14,2.4 2.33,0.42 4.8,0.41 7.13,-0.03 3.94,-0.45 4.39,-5.18 8.78,-1.7 4.39,3.47 6.86,0 9.68,1.55 2.81,1.55 -1.47,-4.44 8.32,-0.44 9.79,3.99 10.13,3.1 14.51,3.18 3.99,-0.33 7.83,-1.21 11.25,-2.59 0,0 1.8,-5.63 5.85,-1.04 4.05,4.59 5.4,2.22 9.34,3.63 3.94,1.4 7.65,-0.52 9.79,0 0,0 1.8,-4.29 3.27,-2.3 1.47,2 6.84,-3.33 7.19,-1.33 0.34,2 1.47,-3.55 3.72,-1.11 2.25,2.44 4.28,-2 5.28,-0.44 1.03,1.55 2.94,-5.7 4.4,-3.04 1.44,2.67 2.91,-2.96 4.72,-1.77 1.78,1.18 7.19,7.4 6.85,5.7 -0.16,-1.43 -0.16,-2.87 0,-4.3 0,2.59 3.28,2.15 4.28,2.74 1.03,0.59 8,-4.44 8.65,-1.92 0.69,2.51 2.6,-2.22 4.41,0.44 1.78,2.67 8.66,0 8.66,0 0,0 2.93,5.92 3.25,4.88 0.34,-1.03 3.62,-8.43 3.62,-5.32l0 3.11c0,0 7.53,-2.67 7.97,-1.78 0.19,1.48 0.19,2.96 0,4.44 0,0 3.94,-3.77 4.41,-1.56 -0.03,0.56 0.22,1.11 0.75,1.55 0.5,0.45 1.22,0.76 2.06,0.9 0,0 3.25,-3.78 4.72,-1.63 1.47,2.14 3.94,2.07 5.4,3.03 1.44,0.96 4.25,-3.47 6.19,0 1.91,3.48 7.19,0 7.19,0l2.59 2.96 2.13 -2.96 0 5.63c0,0 5.06,-2.89 5.4,-1.78 0.19,1.45 0.19,2.91 0,4.36 0,0 2.6,-3.92 3.6,-1.47l1.12 2.36c0,0 1.47,-3.25 3.28,0 1.79,3.26 -0.81,2.67 1.79,3.11 2.59,0.44 2.46,-4.44 4.96,-1.77 2.47,2.66 4.04,-2.23 6.29,0.66 2.25,2.89 3.15,-2.66 3.93,0 0.78,2.66 0,-3.33 2.94,0.44 2.91,3.78 4.59,-5.91 8.66,0.45 4.06,6.36 5.75,7.4 7.18,4.36 0.44,-1.61 0.19,-3.27 -0.65,-4.81 0,0 0.78,0.52 2.12,2 4.72,4.89 6.88,-2.44 9.35,1.04 2.47,3.48 5.5,-1.04 6.97,2.22 1.46,3.25 9.68,-1.48 9.68,-1.48 0,0 3.38,-0.37 5.85,2.66 2.47,3.04 8.31,-2.22 9,0.59 0.68,2.82 0.68,-5.03 3.59,0.67 2.94,5.7 5.06,-2.89 7.31,2 2.25,4.88 8.57,7.4 8.57,4.14 0,-3.26 1.46,-3.99 2.9,-0.59 1.47,3.4 1.81,-2.07 5.06,1.7 3.29,3.77 5.88,-3.48 8.69,0.89 2.81,4.36 8.31,6.58 9.1,3.33 0.81,-3.26 2.15,-6.36 3.93,-2.67 1.82,3.7 3.72,-0.66 6.32,1.34 2.59,1.99 5.4,-2 8,0.59 2.56,2.59 3.46,0 5.62,2.29 2.13,2.3 11.25,-1.03 11.25,0 0,1.04 2.69,1.11 4.59,0.74 2.29,-0.73 4.47,-1.6 6.54,-2.59 0,0 0,-3.25 3.93,0 3.94,3.26 6.53,2.22 9,2.96 2.47,0.74 5.85,-2.29 8,0 2.13,2.29 1.13,-4.22 4.38,0 3.25,4.22 -1,3.48 3.15,4.37 0,0 4.85,1.77 5.5,0 0.69,-1.78 3.6,0 3.6,0.74 0,0.74 2.37,-3.18 3.94,0 1.59,3.18 -0.66,-4.3 3.71,1.92 4.41,6.22 2.16,1.7 5.29,4.14 3.15,2.45 2.25,-6.8 5.87,-2.22 3.59,4.59 1.91,-3.7 6.19,0 4.25,3.7 2.12,0.45 6.19,2.45 4.03,1.99 2.81,-4.22 5.28,0 2.47,4.21 2.25,-4.44 7.65,2.66 5.38,7.1 4.03,1.33 7.97,5.25 3.94,3.92 2.6,-3.48 6.88,0 4.28,3.48 3.25,-0.74 7.65,1.26 4.38,2 2.82,-6.36 7.19,-3.26 0.56,0.41 1.25,0.73 2,0.93 0.78,0.2 1.63,0.28 2.44,0.24 0.84,-0.04 1.62,-0.21 2.34,-0.49 0.72,-0.28 1.31,-0.66 1.78,-1.12 0,0 2.91,-5.92 6.97,-2.66 4.03,3.25 5.06,-8.29 8.31,-3.48 3.29,4.81 4.63,-1.78 8,2.89 3.38,4.66 4.29,8.58 5.72,5.47 1.47,-3.11 2.25,-6.58 3.94,-2.37 1.69,4.22 0,6.07 1.81,4.15 0.28,-0.36 0.69,-0.67 1.16,-0.91 0.5,-0.24 1.06,-0.41 1.66,-0.48 0.59,-0.07 1.21,-0.05 1.81,0.06 0.59,0.11 1.12,0.31 1.56,0.59 0.78,0.88 1,0.44 2.94,1.48 1.9,1.03 1.44,-1.04 3.59,0 2.13,1.03 6.85,-1.63 6.85,-1.63 0,0 1.46,-4.88 5.53,-1.55 4.03,3.32 5.06,-0.82 6.06,0 1.03,0.81 1.47,-5.11 5.06,-2.15 3.63,2.96 9.47,-2.66 12.38,1.03 2.93,3.7 6.53,3.11 8,1.12 1.47,-2 -5.85,-5.92 1.47,-2 7.31,3.92 2.81,-4.15 5.28,-1.48 2.47,2.66 5.18,-1.19 6.18,0.44 1,1.63 1.82,-3.55 5.07,0 3.25,3.55 8.31,2.52 8.31,0.89 -0.31,-1.03 -0.78,-2.05 -1.34,-3.03 0.4,0.53 0.84,1.05 1.34,1.55 3.94,4.14 8.34,-0.44 8.34,-0.44l1.47 -1.11c0.66,-0.13 1.25,-0.39 1.69,-0.74 1,0 2,0 2.69,0.96 0.68,0.96 0.78,0.81 1.12,0 0.35,-0.82 0.56,0.52 1,0 0.47,-0.52 1.69,-1.19 2.72,-0.96 0.41,0.35 1,0.61 1.69,0.74l1.47 1.11c0,0 4.25,4.58 8.31,0.44 0.78,-0.74 1.12,-1.18 1.47,-1.55 -0.66,0.97 -1.16,1.99 -1.47,3.03 0,1.63 4.94,2.44 8.31,-0.89 3.38,-3.33 3.94,1.78 5.06,0 1.13,-1.77 3.63,2.22 6.1,-0.44 2.47,-2.67 -1.69,5.47 5.4,1.48 7.07,-4 0,0 1.44,2 1.47,1.99 5.06,2.58 8,-1.12 2.94,-3.69 8.66,1.78 12.38,-1.03 3.72,-2.81 3.93,3.03 5.06,2.15 1.12,-0.89 2.12,3.32 6.06,0 3.94,-3.33 5.53,1.55 5.53,1.55 0,0 4.72,2.66 6.97,1.63 2.25,-1.04 1.69,1.03 3.5,0 1.78,-1.04 2.13,-0.6 2.91,-1.48 0.47,-0.28 1,-0.48 1.59,-0.59 0.56,-0.11 1.19,-0.13 1.78,-0.06 0.6,0.07 1.19,0.24 1.66,0.48 0.5,0.24 0.87,0.55 1.16,0.91 1.46,1.92 0,0 1.81,-4.15 1.78,-4.14 2.59,-0.74 3.94,2.37 1.34,3.11 2.59,-0.89 5.71,-5.47 3.16,-4.59 4.75,1.92 8,-2.89 3.25,-4.81 4.38,6.88 8.32,3.48 3.93,-3.41 6.87,2.66 6.87,2.66 0,0 4.38,3.55 8.66,0.44 4.28,-3.1 2.94,5.04 7.22,3.26 4.25,-1.78 3.37,2.22 7.62,-1.26 4.28,-3.48 2.81,3.92 6.88,0 4.06,-3.92 2.47,1.7 8,-5.25 5.5,-6.96 5.06,1.48 7.53,-2.66 2.47,-4.15 1.47,1.92 5.4,0 3.94,-1.93 1.91,1.55 6.19,-2.45 4.28,-3.99 2.56,4.37 6.19,0 3.59,-4.36 2.47,4.59 5.72,2.22 3.28,-2.36 1.12,2 5.4,-4.14 4.29,-6.14 1.91,1.48 3.6,-1.92 1.69,-3.41 3.84,0 3.94,0 0.12,0 2.93,-2.52 3.71,-0.74 0.79,1.77 5.54,0 5.54,0 4.25,-0.89 0,0 3.12,-4.37 3.16,-4.36 2.16,2.15 4.41,0 2.25,-2.14 5.4,0.74 7.97,0 2.59,-0.74 5.06,0 9,-2.96 3.93,-2.96 3.93,0 3.93,0 2.07,0.99 4.25,1.86 6.53,2.59 1.82,0 5.07,0 4.72,-0.74 -0.31,-0.74 9,2.15 11.25,0 2.25,-2.14 3.16,0 5.75,-2.29 2.6,-2.3 5.41,1.33 7.88,-0.59 2.47,-1.93 4.5,2.36 6.31,-1.34 1.78,-3.69 3.25,-0.66 3.94,2.67 0.65,3.33 6.19,1.03 9,-3.33 2.81,-4.37 5.5,2.88 8.75,-0.89 3.28,-3.77 3.62,1.55 5.06,-1.7 1.47,-3.26 2.94,-2.67 2.94,0.59 0,3.26 6.53,0.74 8.65,-4.14 2.16,-4.89 4.29,3.7 7.22,-2 2.91,-5.7 2.82,2.15 3.6,-0.67 0.78,-2.81 6.18,2.82 9,-0.59 2.81,-3.4 5.72,-2.66 5.72,-2.66 0,0 8.43,4.81 9.9,1.48 1.47,-3.33 4.28,1.33 6.88,-2.22 2.59,-3.55 4.59,3.85 9.43,-1.04 4.85,-4.88 0,0 1.35,2.81 1.37,2.82 3.28,2.08 7.22,-4.36 3.93,-6.44 5.84,3.33 8.65,-0.45 2.82,-3.77 2.25,2.22 2.94,-0.44 0.66,-2.66 1.78,2.89 3.94,0 2.12,-2.89 3.59,2 6.19,-0.66 2.56,-2.67 2.46,2.21 5.06,1.77 2.56,-0.44 0,0 1.78,-3.11 1.81,-3.1 3.28,0 3.28,0l1.13 -2.36c1,-2.45 3.59,1.47 3.59,1.47 -0.25,-1.45 -0.25,-2.91 0,-4.36 0,-1.11 5.41,1.78 5.41,1.78l0 -6.29 2.12 2.96 2.59 -2.96c0,0 5.41,3.4 7.19,0 1.81,-3.41 4.75,0.96 6.19,0 1.47,-0.96 3.94,-0.82 5.41,-3.04 1.46,-2.22 4.62,1.63 4.62,1.63 0.81,-0.14 1.53,-0.46 2.06,-0.9 0.53,-0.44 0.85,-0.98 0.85,-1.54 0,-2.22 4.4,1.55 4.4,1.55 -0.18,-1.45 -0.18,-2.91 0,-4.36 1.22,0.05 2.41,0.17 3.6,0.37l4.37 1.33 0 -0.52c0.88,0.14 1.69,0.34 2.5,0.59l0 0c0,0.97 0.78,1.85 0.88,2.15 0.12,0.3 0.9,-0.52 1.68,-1.78l6.32 0.89 9.12 -0.59 5.16 -2 1.59 0c0.31,0.06 0.66,0.06 1,0l0 0 4.28 0.52 0 1.03c0,0.6 0.57,0 1.57,-0.88l6.53 0.81 4.93 -2.44 4.5 4.14 10.47 0c1.69,0.82 3.38,1.71 4.16,0.74 0.81,-0.96 3.28,2.3 3.28,2.3 2.13,-0.52 5.72,1.4 9.78,0 4.06,-1.41 5.41,0.96 9.35,-3.63 0.37,-0.47 0.87,-0.9 1.46,-1.26l1.91 -0.44c1.69,0.44 2.34,2.74 2.34,2.74 3.47,1.35 7.29,2.23 11.25,2.59 3.29,0.29 6.63,-0.16 9.47,-1.26l-8.09 -3.11 3.12 0 10.38 1.7 13.37 -2.59c0,0 1.91,2.74 7.88,-2.81 5.97,-5.55 5.19,4.81 5.19,4.81l4.25 -1.48 4.4 2.44 14.72 -5.1 9.69 0.89 7.87 0.37 6.75 -3.78 4.29 5.63 4.84 -2.74 5.16 5.03 7.09 -0.74 6.66 2.96 5.15 -2.81 2.81 4.07c0,0 1.13,2.07 5.63,0.74 2.91,-0.68 6.09,-0.68 9,0l7.53 -0.52 8 0 6.31 0 2.82 -1.78 4.5 3.11 8.18 -0.67c0,0 2.82,4.89 5.88,0 3.03,-4.88 5.37,0 5.37,0l5.53 0c0,0 0.91,1.71 3.6,-3.32 2.69,-5.04 3.15,6.88 5.5,-1.26 2.37,-8.14 2.5,7.99 5.19,0 2.68,-7.99 6.4,1.26 6.4,1.26 0,0 0,6.51 3.72,-1.63 3.72,-8.14 4.84,2.36 4.84,2.36l3.94 0.6 6.75 1.77 11.25 0 0 -176.61c-0.22,-0.52 -1.03,-0.74 -1.69,0z"/>
   <path fill="#151515" d="M4481.83 201.95l-3.94 -0.51c0,0 -1.56,-10.51 -4.84,-2.45 -3.25,8.07 -3.72,1.71 -3.72,1.71 0,0 -3.69,-9.03 -6.41,-1.26 -2.69,7.77 -2.69,-8.36 -5.15,0 -2.5,8.36 -2.72,-3.7 -5.54,1.26 -2.81,4.95 -3.59,3.25 -3.59,3.25l-5.5 0.37c0,0 -2.5,-5.03 -5.41,0 -2.93,5.03 -5.84,0 -5.84,0l-8.22 0.67 -4.5 -3.18 -2.81 1.85 -6.41 0 -8 0 -7.53 0.59c-2.9,-0.68 -6.09,-0.68 -9,0 -4.5,1.33 -5.62,-0.82 -5.62,-0.82l-2.82 -3.99 -5.18 2.74 -6.63 -2.96 -7.09 0.81 -5.19 -5.11 -4.84 2.82 -4.25 -5.7 -6.75 3.85 -7.88 -0.37 -9.69 -0.89 -14.28 5.03 -4.4 -2.44 -4.25 1.48c0,0 1,-10.36 -5.19,-4.81 -6.19,5.55 -7.88,2.74 -7.88,2.74l-13.37 2.59 -10.38 -1.63 -3.12 0 8.09 3.18c-2.87,1.07 -6.18,1.51 -9.47,1.26 -3.96,-0.35 -7.78,-1.24 -11.25,-2.59 0,0 -0.65,-2.3 -2.34,-2.74l-1.91 0.44c-0.59,0.37 -1.09,0.79 -1.46,1.26 -3.94,4.59 -5.41,2.15 -9.35,3.63 -3.94,1.48 -7.65,-0.59 -9.9,0 0,0 -1.69,-4.29 -3.16,-2.3 -1.44,2 -2.47,0 -4.16,-0.81l-10.47 0 -4.5 -4.07 -4.93 2.44 -6.53 -0.81c-1,0.96 -1.69,1.48 -1.57,0.89l0 -1.04 -4.28 -0.52c-0.34,0.06 -0.69,0.06 -1,0l-1.59 0 -5.16 2 -9.12 0.59 -6.32 -0.89c-0.78,1.26 -1.43,2.22 -1.68,1.78 -0.22,-0.44 -0.57,-1.26 -0.88,-2.15 -0.81,-0.25 -1.62,-0.44 -2.5,-0.59l0 0.52 -4.37 -1.33c-1.16,-0.23 -2.38,-0.36 -3.6,-0.37 -0.18,1.45 -0.18,2.91 0,4.36 0,0 -3.93,-3.77 -4.4,-1.55 0,0.55 -0.28,1.09 -0.82,1.52 -0.53,0.43 -1.28,0.73 -2.09,0.85 0,0 -3.16,-3.7 -4.62,-1.56 -1.47,2.15 -3.94,2 -5.41,3.04 -1.44,1.03 -4.38,-3.48 -6.19,0 -1.78,3.47 -7.19,0 -7.19,0l-2.59 2.96 -2.12 -2.96 0 5.62c0,0 -5.07,-2.88 -5.41,-1.77 -0.25,1.45 -0.25,2.91 0,4.36 0,0 -2.59,-3.92 -3.59,-1.55l-1.13 2.44c0,0 -1.37,-3.33 -3.28,0 -1.91,3.33 0.78,2.66 -1.78,3.11 -2.6,0.44 -2.6,-4.44 -5.06,-1.78 -2.5,2.66 -4.07,-2.22 -6.19,0.67 -2.16,2.88 -3.16,-2.67 -3.94,0 -0.81,2.66 0,-3.33 -2.94,0.44 -2.93,3.77 -4.62,-5.99 -8.65,0.37 -4.07,6.36 -5.75,7.4 -7.22,4.44 -1.44,-2.96 3.28,-7.4 -1.35,-2.81 -4.59,4.59 -6.96,-2.44 -9.43,1.03 -2.47,3.48 -5.41,-1.03 -6.88,2.22 -1.47,3.26 -9.9,-1.48 -9.9,-1.48 0,0 -3.25,0 -5.72,2.59 -2.47,2.59 -8.35,-2.14 -9,0.67 -0.69,2.81 -0.78,-5.03 -3.6,0.59 -2.81,5.62 -5.18,-2.81 -7.22,2.07 -2.03,4.89 -8.65,7.4 -8.65,4.15 0,-3.26 -1.47,-4 -2.94,-0.67 -1.44,3.33 -1.91,-2 -5.06,1.78 -3.13,3.77 -5.85,-3.48 -8.75,0.88 -2.94,4.37 -8.22,6.59 -9,3.26 -0.81,-3.33 -2.16,-6.36 -3.94,-2.59 -1.81,3.77 -3.62,-0.67 -6.31,1.33 -2.69,2 -5.41,-2 -7.88,0.59 -2.47,2.59 -3.59,0 -5.75,2.3 -2.12,2.29 -11.25,-1.04 -11.25,0 0,1.03 -2.9,1.11 -4.72,0.74 -2.28,-0.73 -4.46,-1.6 -6.53,-2.59 0,0 0,-3.26 -3.93,0 -3.94,3.25 -6.5,2.22 -9,2.96 -2.47,0.74 -5.85,-2.3 -7.97,0 -2.16,2.29 -1.03,-4.29 -4.41,0 -3.37,4.29 1.13,3.47 -3.12,4.36 0,0 -4.85,1.78 -5.54,0 -0.65,-1.77 -3.71,0 -3.71,0.74 0,0.74 -2.13,-3.18 -3.94,0 -1.78,3.18 0.81,-4.29 -3.6,1.93 -4.37,6.21 -2.12,1.7 -5.4,4.14 -3.25,2.44 -2.13,-6.81 -5.72,-2.22 -3.63,4.59 -1.81,-3.7 -6.19,0 -4.4,3.7 -2.15,0.44 -6.19,2.44 -4.06,2 -2.93,-4.22 -5.4,0 -2.47,4.22 -2.16,-4.44 -7.53,2.66 -5.41,7.11 -4.07,1.34 -8,5.18 -3.94,3.85 -2.6,-3.47 -6.88,0 -4.25,3.48 -3.25,-0.66 -7.62,1.26 -4.41,1.93 -2.82,-6.29 -7.22,-3.18 -4.38,3.11 -8.66,-0.44 -8.66,-0.44 0,0 -2.81,-5.92 -6.87,-2.67 -4.03,3.26 -5.07,-8.28 -8.32,-3.55 -3.25,4.74 -4.62,-1.7 -8,2.96 -3.37,4.66 -4.37,8.58 -5.71,5.48 -1.35,-3.11 -2.16,-6.66 -3.94,-2.45 -1.81,4.22 0,6.15 -1.81,4.22 -0.25,-0.37 -0.63,-0.69 -1.13,-0.94 -0.5,-0.25 -1.06,-0.42 -1.66,-0.49 -0.62,-0.08 -1.25,-0.05 -1.84,0.07 -0.59,0.12 -1.12,0.33 -1.56,0.62 -0.78,0.89 -1.13,0.45 -2.91,1.48 -1.81,1.04 -1.47,-1.03 -3.5,0 -2.03,1.04 -6.97,-1.63 -6.97,-1.63 0,0 -1.47,-4.88 -5.53,-1.62 -4.03,3.25 -5.06,-0.82 -6.06,0 -1,0.81 -1.47,-5.03 -5.06,-2.15 -3.6,2.89 -9.44,-2.59 -12.38,1.11 -2.94,3.7 -6.53,3.11 -8,1.04 -1.44,-2.08 5.88,-5.92 -1.44,-1.93 -7.31,4 -2.93,-4.14 -5.4,-1.48 -2.47,2.67 -5.06,-1.18 -6.1,0.45 -1,1.62 -1.9,-3.56 -5.06,0 -3.12,3.55 -8.31,2.44 -8.31,0.88 0.31,-1.04 0.81,-2.06 1.47,-3.03l-1.47 1.55c-4.06,4.15 -8.31,-0.44 -8.31,-0.44l-1.47 -1.11c-0.66,-0.15 -1.25,-0.4 -1.69,-0.74 -1.03,0 -2.03,0 -2.72,0.96 -0.65,0.96 -0.65,0.82 -1,0.37 -0.34,-0.44 -0.78,0.52 -1.12,-0.37 -0.35,-0.89 -1.69,-1.18 -2.69,-0.96 -0.47,0.34 -1.06,0.59 -1.69,0.74l-1.47 1.11c0,0 -4.4,4.59 -8.34,0.44l-1.34 -1.55c0.56,0.99 1.03,2 1.34,3.03 0,1.56 -5.06,2.37 -8.31,-0.88 -3.25,-3.26 -3.94,1.77 -5.07,0 -1.12,-1.78 -3.59,2.14 -6.18,-0.45 -2.6,-2.59 1.9,5.48 -5.28,1.48 -7.22,-3.99 0,0 -1.47,1.93 -1.47,1.92 -5.07,2.66 -8,-1.04 -2.91,-3.7 -8.75,1.78 -12.38,-1.11 -3.59,-2.88 -3.94,3.03 -5.06,2.15 -1.13,-0.89 -2.03,3.4 -6.06,0 -4.07,-3.41 -5.53,1.62 -5.53,1.62 0,0 -4.72,2.59 -6.85,1.63 -2.15,-0.96 -1.81,0.96 -3.59,0 -1.81,-0.96 -2.16,-0.59 -2.94,-1.48 -0.44,-0.29 -0.97,-0.5 -1.56,-0.62 -0.6,-0.12 -1.22,-0.15 -1.81,-0.07 -0.63,0.07 -1.19,0.24 -1.69,0.49 -0.47,0.25 -0.88,0.57 -1.13,0.94 -1.34,1.93 0,0 -1.81,-4.22 -1.78,-4.21 -2.47,-0.66 -3.94,2.45 -1.43,3.1 -2.56,-0.89 -5.72,-5.48 -3.15,-4.59 -4.84,1.92 -8,-2.96 -3.15,-4.88 -4.37,6.88 -8.31,3.55 -3.94,-3.33 -6.97,2.67 -6.97,2.67 -0.47,0.45 -1.06,0.84 -1.78,1.12 -0.72,0.28 -1.5,0.44 -2.34,0.49 -0.81,0.04 -1.66,-0.04 -2.44,-0.25 -0.75,-0.2 -1.44,-0.51 -2,-0.92 -4.37,-3.11 -2.94,5.03 -7.19,3.18 -4.28,-1.85 -3.37,2.3 -7.65,-1.26 -4.28,-3.55 -2.82,4 -6.88,0 -4.03,-3.99 -2.59,1.78 -7.97,-5.18 -5.4,-6.95 -5.06,1.48 -7.65,-2.66 -2.6,-4.14 -1.35,1.93 -5.28,0 -3.94,-1.92 -1.94,1.48 -6.19,-2.44 -4.28,-3.92 -2.6,4.37 -6.19,0 -3.62,-4.37 -2.5,4.59 -5.87,2.22 -3.38,-2.37 -1,1.92 -5.29,-4.14 -4.28,-6.07 -1.78,1.48 -3.71,-1.93 -1.91,-3.4 -3.69,0 -3.94,0 -0.22,0 -2.81,-2.51 -3.6,-0.74 -0.78,1.78 -5.5,0 -5.5,0 -4.15,-0.89 0,0 -3.15,-4.36 -3.16,-4.37 -2.25,2.14 -4.38,0 -2.15,-2.15 -5.4,0.74 -8,0 -2.59,-0.74 -4.93,0 -9,-2.96 -4.06,-2.96 -3.93,0 -3.93,0 -2.07,0.99 -4.25,1.86 -6.54,2.59 -1.9,0.37 -5.06,0 -4.59,-0.74 0.44,-0.74 -9.12,2.14 -11.25,0 -2.16,-2.15 -3.16,0 -5.62,-2.3 -2.5,-2.29 -5.54,1.34 -8,-0.59 -2.47,-1.92 -4.5,2.37 -6.32,-1.33 -1.78,-3.7 -3.25,-0.67 -4.03,2.59 -0.78,3.25 -6.09,1.11 -9,-3.26 -2.94,-4.36 -5.31,2.89 -8.69,-0.88 -3.37,-3.78 -3.59,1.55 -5.06,-1.78 -1.44,-3.33 -2.9,-2.59 -2.9,0.67 0,3.25 -6.41,0.66 -8.57,-4.15 -2.12,-4.81 -4.37,3.7 -7.31,-2.07 -2.91,-5.77 -2.91,2.22 -3.59,-0.59 -0.69,-2.81 -6.07,2.81 -9,-0.67 -2.94,-3.47 -5.85,-2.59 -5.85,-2.59 0,0 -8.22,4.74 -9.68,1.48 -1.47,-3.25 -4.38,1.34 -6.97,-2.22 -2.6,-3.55 -4.63,3.78 -9.35,-1.03 -1.34,-1.48 -1.9,-2 -2.12,-2 0.84,1.54 1.09,3.2 0.65,4.81 -1.43,2.81 -3.25,2 -7.18,-4.44 -3.94,-6.44 -5.85,3.4 -8.78,-0.37 -2.91,-3.77 -2.13,2.15 -2.82,-0.44 -0.65,-2.59 -1.78,2.88 -3.93,0 -2.13,-2.89 -3.72,1.99 -6.29,-0.67 -2.59,-2.66 -2.5,2.22 -4.96,1.78 -2.47,-0.45 0,0 -1.79,-3.11 -1.81,-3.11 -3.28,0 -3.28,0l-1.12 -2.44c-1,-2.37 -3.6,1.55 -3.6,1.55 0.19,-1.45 0.19,-2.91 0,-4.36 0,-1.11 -5.4,1.77 -5.4,1.77l0 -5.62 -2.13 2.96 -2.59 -2.96c0,0 -5.41,3.4 -7.19,0 -1.81,-3.41 -4.75,0.96 -6.19,0 -1.46,-0.96 -3.93,-0.82 -5.4,-3.04 -1.47,-2.22 -4.72,1.56 -4.72,1.56 -0.84,-0.11 -1.56,-0.41 -2.09,-0.84 -0.5,-0.44 -0.79,-0.98 -0.72,-1.53 0,-2.22 -4.41,1.55 -4.41,1.55 0.19,-1.47 0.19,-2.96 0,-4.43 0,-0.89 -7.97,1.77 -7.97,1.77l0 -3.55c0,-3.11 -3.15,4.22 -3.62,5.33 -0.44,1.11 -3.25,-4.89 -3.25,-4.89 0,0 -6.75,2.89 -8.66,0 -1.91,-2.88 -3.59,2 -4.41,-0.44 -0.78,-2.44 -7.53,2.66 -8.65,2 -1.13,-0.67 -4.28,0 -4.28,-2.74 -0.16,1.43 -0.16,2.86 0,4.29 0,1.55 -5.07,-4.66 -6.85,-5.7 -1.81,-1.03 -3.28,4.37 -4.72,1.7 -1.46,-2.66 -3.15,4.67 -4.4,3.11 -1.22,-1.55 -3.16,2.89 -5.28,0.45 -2.13,-2.44 -3.38,3.03 -3.72,1.11 -0.35,-1.93 -5.72,3.25 -7.19,1.33 -1.47,-1.93 -3.27,2.29 -3.27,2.29 -2.14,-0.59 -5.74,1.41 -9.79,0 -4.05,-1.4 -5.4,0.96 -9.34,-3.62 -3.93,-4.59 -5.85,1.03 -5.85,1.03 -3.42,1.39 -7.26,2.27 -11.25,2.59 -4.38,0 -4.72,0.74 -14.51,-3.18 -9.79,-3.92 -5.4,2.15 -8.32,0.44 -2.93,-1.7 -5.4,1.93 -9.68,-1.55 -4.28,-3.48 -4.84,1.26 -8.78,1.7 -2.33,0.43 -4.79,0.43 -7.13,0.01 -2.33,-0.41 -4.45,-1.23 -6.14,-2.38 -4.84,-3.1 -3.38,3.48 -7.99,-2.44 -0.54,-0.87 -1.26,-1.69 -2.14,-2.44 0.77,1.65 1,3.39 0.68,5.11 -1.46,2.59 -3.26,3.7 -5.4,-1.11 -2.14,-4.81 -6.19,4.58 -8.44,1.33 -2.25,-3.26 -5.06,5.47 -9,-0.67 -0.9,-1.33 -1.35,-2.07 -1.69,-2.44 0.66,1.34 1,2.74 1.02,4.14 -0.79,1.78 -6.19,4.44 -9.45,-1.25 -3.27,-5.7 -7.88,2.59 -12.27,-1.56 -4.38,-4.14 -5.06,3.55 -6.86,1.56 -1.8,-2 -3.26,3.92 -6.86,0.44 -3.6,-3.48 -3.94,4.14 -8.33,-2.66l-1.91 -2.89c0.59,1.76 0.59,3.57 0,5.33 -1.8,2.37 -5.74,5.25 -7.99,0 -2.25,-5.26 -2.25,2.22 -6.97,-3.11 -4.73,-5.33 -4.61,3.77 -6.08,1.56 -1.46,-2.23 -4.73,3.32 -7.65,0 -2.93,-3.34 -4.28,4.58 -7.2,1.1 -2.93,-3.47 -2.14,2.82 -5.06,0.89 -2.93,-1.92 -4.73,4.59 -8.33,0.82 -3.6,-3.78 0,0 -1.12,3.03 -1.13,3.03 -2.48,3.18 -5.4,-1.92 -2.93,-5.11 -1.47,2.66 -3.94,-1.71 -2.48,-4.36 -3.6,4.59 -7.2,-0.88 -0.68,-0.89 -1.01,-1.48 -1.35,-1.85 0.64,1.37 1.1,2.78 1.35,4.21 0,2.45 -2.25,1.78 -5.85,-1.7 -3.6,-3.47 -5.06,5.25 -7.54,0 -2.47,-5.25 -3.6,5.92 -7.65,0.82 -4.05,-5.11 -5.4,3.33 -11.25,-1.04 -5.85,-4.36 -1.46,3.48 -5.06,1.33 -3.6,-2.14 -2.93,4.59 -8.66,-0.74 -5.74,-5.32 0,0 0,2 0,2 -2.93,5.33 -6.19,1.48 -3.26,-3.85 -3.26,4.07 -6.53,0 -3.26,-4.07 -4.61,4.88 -8.32,1.4 -3.71,-3.47 -5.74,5.55 -9.68,2 -3.93,-3.55 -3.93,4.15 -9,-3.4 -5.06,-7.55 -5.51,6.51 -7.99,4.07 -2.47,-2.44 -1.91,3.48 -6.86,2 -4.95,-1.48 -0.67,6.36 -4.39,1.92 -3.71,-4.44 -6.18,5.33 -11.25,0.67 -5.06,-4.66 -5.4,4.21 -7.53,0.66 -2.14,-3.55 -2.59,3.7 -6.19,0.89 -3.6,-2.81 -2.48,3.11 -5.4,0 -2.93,-3.11 -2.25,4.22 -5.4,1.55 -3.15,-2.66 -3.38,4.59 -7.99,-1.11 -4.61,-5.69 -4.61,5.11 -5.85,2.45 -1.24,-2.67 -5.4,3.7 -7.31,1.03 -1.91,-2.66 -2.93,-1.33 -3.49,1.33 -0.56,2.67 -2.92,-1.48 -2.92,-1.48 -2.14,-2.22 -4.73,3.04 -6.98,1.04 -2.25,-2 -2.92,2.66 -5.74,-0.89 -2.81,-3.55 -2.81,2.44 -5.06,1.63 -2.25,-0.81 -3.26,4.29 -6.52,1.26 -3.27,-3.04 -2.59,0 -3.6,3.77 -1.02,3.77 -2.93,2.37 -5.07,0 -2.13,-2.37 -3.6,-0.44 -6.86,-3.48 -3.26,-3.03 -3.26,2.44 -5.74,0.67 -2.47,-1.78 -5.06,2.66 -7.31,0 -2.25,-2.66 0,0 -2.81,2.88 -2.82,2.89 -2.59,1.78 -3.94,-1.33 -1.35,-3.11 -2.93,-1.55 -2.93,-1.55 0,0 -1.46,-2.44 -3.6,0.81 -2.13,3.26 -2.25,2.52 -3.71,-1.7 -1.46,-4.22 -9.34,2.59 -12.6,-0.67 -3.26,-3.25 -7.2,1.78 -9.45,-0.59 -2.25,-2.36 -3.49,2.82 -5.51,1.41 -2.7,-6.36 -3.24,-13.03 -1.58,-19.53l-5.73 -0.6 -6.75 2.96 -5.18 -2.73 -2.7 3.99c0,0 -1.24,2.15 -5.74,0.82 -2.87,-0.68 -6.01,-0.68 -8.88,0l-7.65 -0.6 -7.88 0 -6.41 0 -2.7 -1.85 -4.5 3.19 -8.33 -0.67c0,0 -2.7,4.88 -5.74,0 -3.03,-4.88 -5.51,0 -5.51,0l-5.4 -0.37c0,0 -1.01,1.7 -3.71,-3.26 -2.7,-4.95 -3.04,6.88 -5.4,-1.25 -2.36,-8.14 -2.48,7.91 -5.18,0 -2.7,-7.92 -6.41,1.25 -6.41,1.25 0,0 0,6.44 -3.71,-1.7 -3.71,-8.14 -4.84,2.44 -4.84,2.44l-4.05 0.52 -6.64 1.78 -11.92 0 -4.84 -2.15 -5.17 1.26c0,0 -1.24,3.77 -3.94,-4.22 -2.7,-7.99 -5.18,0 -5.18,0l-11.92 0 -6.98 -3.33 -7.65 -4.22 -2.36 -1.84 -4.84 -1.85 -5.18 0 -5.85 -1.48 -5.51 -2 -6.75 -1.93 0 -5.32 -3.94 4.07 0 -6.81 -3.48 5.77 -2.37 -5.84 -4.95 5.84 -2.13 -4.36 -6.08 4.14c0,0 -1.57,2.29 -2.7,-8.21 -1.12,-10.51 -5.85,7.99 -5.85,7.99l-0.56 -7.77c-0.68,-7.85 -2.7,3.25 -2.7,3.25l-4.05 -2.36 -2.14 -5.18 -6.41 6.88 -5.18 -2.81 -3.6 1.85 -7.31 -3.93 -5.29 1.11 -8.1 -3.84 -4.95 2.73 -6.41 -4.21 -3.94 3.92 -5.17 -1.11 -5.4 3.7 -5.29 -1.56 -11.25 1.56 -5.74 -2.3 -4.5 1.56 -5.17 -3.55 -5.85 1.99 -7.32 0.6 -5.28 -2 -5.4 2 -7.32 -0.6 -5.85 -1.99 -5.17 3.55 -4.5 -1.56 -5.74 2.3 -11.25 -1.56 -5.17 1.56 -5.52 -3.7 -5.17 1.11 -3.94 -3.92 -6.41 4.21 -4.95 -2.73 -8.1 3.84 -5.18 -1.11 -7.42 3.93 -3.6 -1.85 -5.18 2.81 -6.41 -6.88 -2.14 5.18 -3.94 2.36c0,0 -2.13,-11.1 -2.7,-3.25l-1.23 8.21c0,0 -4.5,-18.5 -5.85,-7.99 -1.35,10.51 -2.59,8.21 -2.59,8.21l-6.19 -4.14 -2.14 4.36 -4.83 -5.84 -2.93 5.4 -4.16 -5.1 0 6.8 -3.94 -4.07 0 5.33 -6.75 1.92 -5.51 2 -5.85 1.48 -5.18 0 -4.83 1.85 -2.37 1.85 -7.65 4.22 -6.97 3.33 -11.93 0c0,0 -2.47,-7.92 -5.17,0 -2.7,7.92 -3.94,4.21 -3.94,4.21l-5.18 -1.25 -4.83 2.14 -11.93 0 -6.64 -1.77 -4.05 -0.52c0,0 -1.46,-10.51 -4.83,-2.44 -3.38,8.06 -3.6,1.7 -3.6,1.7 0,0 -3.72,-9.03 -6.53,-1.26 -2.81,7.77 -2.59,-8.36 -5.17,0 -2.59,8.36 -2.7,-3.7 -5.4,1.26 -2.7,4.96 -3.72,3.26 -3.72,3.26l-5.4 0.37c0,0 -2.47,-5.04 -5.51,0 -3.04,5.03 -5.74,0 -5.74,0l-8.32 0.66 -4.5 -3.18 -2.7 1.85 -6.42 0 -7.87 0 -7.65 0.59c-2.84,-0.67 -5.94,-0.67 -8.78,0 -4.61,1.33 -5.85,-0.81 -5.85,-0.81l-2.7 -4 -5.17 2.74 -6.75 -2.96 -5.74 0.59c1.66,6.51 1.12,13.18 -1.57,19.53 -2.03,1.41 -3.49,-3.77 -5.52,-1.4 -2.02,2.37 -6.07,-2.66 -9.45,0.59 -3.37,3.26 -11.25,-3.55 -12.6,0.67 -1.35,4.21 -1.46,5.1 -3.6,1.7 -2.13,-3.4 -3.71,-0.81 -3.71,-0.81 0,0 -1.46,-1.56 -2.81,1.55 -1.35,3.11 -1.13,4.14 -3.94,1.33 -2.81,-2.81 -0.79,-5.77 -2.92,-2.88 -2.14,2.88 -4.73,-1.56 -7.32,0 -2.58,1.55 -2.47,-3.7 -5.73,-0.67 -3.27,3.03 -4.73,1.26 -6.87,3.48 -2.13,2.22 -3.93,3.55 -5.06,0 -1.12,-3.56 0,-6.81 -3.6,-3.78 -3.6,3.04 -4.39,-2.14 -6.53,-1.26 -2.14,0.89 -2.25,-5.1 -5.06,-1.62 -2.81,3.47 -3.6,-1.04 -5.74,0.89 -2.14,1.92 -4.84,-3.26 -6.97,-1.04 0,0 -2.14,4.14 -2.93,1.48 -0.79,-2.66 -1.69,-4 -3.49,-1.33 -1.8,2.66 -6.3,-3.7 -7.31,-1.04 -1.01,2.66 -1.12,-8.14 -5.85,-2.44 -4.72,5.7 -4.61,-1.55 -7.99,1.11 -3.37,2.66 -2.47,-4.44 -5.4,-1.55 -2.92,2.88 -1.68,-3.11 -5.4,0 -3.71,3.1 -4.05,-4.44 -6.18,-0.89 -2.14,3.55 -2.14,-5.25 -7.54,-0.67 -5.4,4.59 -7.99,-5.03 -11.25,-0.66 -3.26,4.36 0.9,-3.55 -4.39,-1.93 -5.29,1.63 -4.27,-4.44 -6.86,-1.99 -2.59,2.44 -2.81,-11.69 -7.99,-4.07 -5.17,7.62 -5.06,0 -9,3.4 -3.94,3.4 -6.08,-5.55 -9.68,-2 -3.6,3.55 -5.06,-5.47 -8.32,-1.4 -3.26,4.07 -3.26,-3.85 -6.53,0 -3.26,3.84 -6.52,0.51 -6.18,-1.48 0.33,-2 6.18,-7.4 0,-2 -6.19,5.4 -5.18,-1.48 -8.78,0.74 -3.6,2.22 0,-5.77 -5.06,-1.33 -5.06,4.44 -6.86,-4 -11.25,1.03 -4.39,5.03 -5.06,-6.06 -7.65,-0.81 -2.59,5.25 -3.94,-3.55 -7.54,0 -3.6,3.55 -5.85,4.14 -5.85,1.7 0.25,-1.43 0.71,-2.84 1.35,-4.22 0,0.37 -0.67,0.96 -1.35,1.85 -3.6,5.48 -4.61,-3.55 -7.2,0.89 -2.59,4.44 -1.01,-3.33 -3.94,1.7 -2.92,5.03 -4.38,4.89 -5.4,1.93 -1.01,-2.96 2.48,-6.74 -1.12,-3.04 -3.6,3.7 -5.4,-2.81 -8.33,-0.81 -2.92,2 -2.13,-4.44 -5.06,-0.89 -2.92,3.55 -4.39,-4.22 -7.2,-1.11 -2.81,3.11 -6.19,-2.44 -7.65,0 -1.46,2.44 -1.35,-6.88 -6.08,-1.55 -4.72,5.32 -4.72,-2.22 -6.97,3.1 -2.25,5.33 -6.19,2.37 -7.99,0 -0.59,-1.75 -0.59,-3.57 0,-5.32l-1.91 2.88c-4.39,6.81 -4.73,-0.88 -8.33,2.67 -3.6,3.55 -5.06,-2.44 -6.86,-0.45 -1.8,2 -2.59,-5.7 -6.86,-1.55 -4.28,4.14 -9,-4.15 -12.26,1.55 -3.27,5.7 -8.67,3.04 -9.45,1.26 0.01,-1.41 0.35,-2.8 1.01,-4.14 0,0.37 -0.79,1.11 -1.69,2.44 -3.94,6.14 -6.86,-2.66 -9,0.66 -2.14,3.33 -6.3,-6.21 -8.44,-1.33 -2.13,4.89 -3.93,3.7 -5.4,1.11 -0.32,-1.71 -0.09,-3.45 0.68,-5.1 -0.88,0.74 -1.6,1.57 -2.14,2.44 -4.61,5.92 -3.15,-0.67 -7.99,2.44 -1.68,1.14 -3.81,1.96 -6.14,2.38 -2.34,0.42 -4.8,0.41 -7.13,-0.01 -3.94,-0.45 -4.39,-5.25 -8.78,-1.7 -4.38,3.55 -6.75,0 -9.68,1.55 -2.92,1.55 1.47,-4.44 -8.32,-0.44 -9.79,3.99 -10.13,3.03 -14.51,3.18 -3.99,-0.32 -7.83,-1.21 -11.25,-2.59 0,0 -1.8,-5.7 -5.85,-1.04 -4.05,4.66 -5.4,2.15 -9.34,3.63 -3.94,1.48 -7.65,-0.59 -9.79,0 0,0 -1.8,-4.29 -3.26,-2.3 -1.46,2 -6.86,-3.33 -7.2,-1.33 -0.34,2 -1.46,-3.55 -3.6,-1.11 -2.14,2.44 -4.39,-1.99 -5.4,-0.44 -1.01,1.55 -2.93,-5.7 -4.39,-3.11 -1.46,2.59 -2.92,-2.88 -4.61,-1.7 -1.69,1.18 -7.31,7.4 -6.98,5.7 0.17,-1.43 0.17,-2.87 0,-4.3 0,2.59 -3.26,2.08 -4.27,2.74 -1.01,0.67 -7.99,-4.44 -8.66,-1.99 -0.68,2.44 -2.59,-2.15 -4.39,0.44 -1.8,2.59 -8.66,0 -8.66,0 0,0 -2.93,5.92 -3.27,4.88 -0.34,-1.03 -3.6,-8.43 -3.6,-5.32l0 3.1c0,0 -7.54,-2.66 -7.99,-1.77 -0.17,1.47 -0.17,2.96 0,4.44 0,0 -3.93,-3.78 -4.38,-1.56 0.04,0.55 -0.22,1.1 -0.74,1.53 -0.51,0.44 -1.25,0.73 -2.08,0.84 0,0 -3.26,-3.7 -4.72,-1.55 -1.46,2.14 -3.94,1.99 -5.4,3.03 -1.46,1.04 -4.28,-3.48 -6.19,0 -1.91,3.48 -7.2,0 -7.2,0l-2.47 2.96 -2.25 -2.96 0 5.62c0,0 -5.07,-2.88 -5.4,-1.77 -0.18,1.45 -0.18,2.91 0,4.36 0,0 -2.59,-3.92 -3.6,-1.55l-1.13 2.44c0,0 -1.46,-3.33 -3.26,0 -1.8,3.33 0.79,2.66 -1.8,3.11 -2.59,0.44 -2.48,-4.44 -4.95,-1.78 -2.48,2.67 -4.05,-2.22 -6.3,0.67 -2.25,2.88 -3.15,-2.66 -3.94,0 -0.79,2.66 0,-3.33 -2.81,0.44 -2.81,3.77 -4.73,-5.99 -8.78,0.37 -4.05,6.36 -5.73,7.4 -7.2,4.44 -0.42,-1.61 -0.19,-3.27 0.68,-4.81 0,0 -0.79,0.52 -2.14,2 -4.72,4.81 -6.86,-2.44 -9.34,1.04 -2.47,3.47 -5.51,-1.04 -6.97,2.21 -1.46,3.26 -9.68,-1.48 -9.68,-1.48 0,0 -3.37,0 -5.85,2.6 -2.47,2.58 -8.21,-2.15 -9,0.66 -0.79,2.81 -0.67,-5.03 -3.6,0.59 -2.92,5.63 -5.06,-2.81 -7.31,2.07 -2.25,4.89 -8.55,7.4 -8.55,4.15 0,-3.26 -1.46,-4 -2.93,-0.67 -1.46,3.33 -1.8,-2 -5.06,1.78 -3.26,3.77 -5.85,-3.48 -8.66,0.89 -2.81,4.36 -8.33,6.58 -9,3.25 -0.68,-3.33 -2.25,-6.36 -4.05,-2.59 -1.8,3.78 -3.71,-0.66 -6.3,1.33 -2.59,2 -5.29,-1.99 -7.88,0.6 -2.58,2.58 -3.6,0 -5.73,2.29 -2.14,2.29 -11.25,-1.04 -11.25,0 0,1.03 -2.7,1.11 -4.62,0.74 -2.29,-0.73 -4.47,-1.6 -6.52,-2.59 0,0 0,-3.26 -3.94,0 -3.94,3.25 -6.52,2.22 -9,2.96 -2.47,0.74 -5.85,-2.29 -7.99,0 -2.14,2.29 -1.13,-4.29 -4.39,0 -3.26,4.29 1.13,3.48 -3.15,4.36 0,0 -4.84,1.78 -5.51,0 -0.68,-1.77 -3.6,0 -3.6,0.74 0,0.74 -2.25,-3.18 -3.94,0 -1.69,3.19 0.68,-4.29 -3.6,1.93 -4.27,6.21 -2.25,1.7 -5.4,4.14 -3.15,2.44 -2.25,-6.81 -5.85,-2.22 -3.6,4.59 -1.8,-3.7 -6.19,0 -4.38,3.7 -2.13,0.45 -6.07,2.44 -3.94,2 -2.93,-4.21 -5.4,0 -2.48,4.22 -2.25,-4.44 -7.65,2.67 -5.4,7.1 -4.05,1.33 -7.99,5.18 -3.94,3.84 -2.59,-3.48 -6.86,0 -4.28,3.47 -3.26,-0.67 -7.54,1.25 -4.27,1.93 -2.92,-6.29 -7.31,-3.18 -0.56,0.41 -1.24,0.72 -2.02,0.93 -0.76,0.2 -1.6,0.28 -2.42,0.24 -0.83,-0.04 -1.63,-0.21 -2.34,-0.49 -0.71,-0.28 -1.32,-0.66 -1.77,-1.12 0,0 -2.93,-5.92 -6.98,-2.67 -4.05,3.26 -5.06,-8.28 -8.32,-3.55 -3.26,4.74 -4.61,-1.7 -7.99,2.96 -3.38,4.66 -4.28,8.59 -5.74,5.48 -1.46,-3.11 -2.14,-6.66 -3.94,-2.44 -1.8,4.21 0,6.14 -1.8,4.21 -0.25,-0.37 -0.64,-0.69 -1.12,-0.94 -0.49,-0.25 -1.07,-0.42 -1.67,-0.49 -0.61,-0.07 -1.24,-0.05 -1.83,0.07 -0.59,0.12 -1.13,0.34 -1.56,0.62 -0.79,0.89 -1.02,0.45 -2.93,1.48 -1.91,1.04 -1.46,-1.03 -3.6,0 -2.14,1.04 -6.86,-1.62 -6.86,-1.62 0,0 -1.46,-4.89 -5.51,-1.63 -4.05,3.25 -5.07,-0.82 -6.08,0 -1.01,0.81 -1.46,-5.03 -5.06,-2.15 -3.6,2.89 -9.45,-2.59 -12.38,1.11 -2.92,3.7 -6.52,3.11 -7.98,1.04 -1.47,-2.07 5.85,-5.92 -1.35,-1.93 -7.2,4 -2.93,-4.14 -5.4,-1.47 -2.48,2.66 -5.07,-1.19 -6.19,0.44 -1.13,1.63 -1.8,-3.55 -5.06,0 -3.27,3.55 -7.09,1.7 -7.09,0.07 0.33,-1.03 0.78,-2.04 1.35,-3.03l-1.35 1.55c-3.94,4.15 -8.33,-0.44 -8.33,-0.44l-1.46 -1.11c-0.63,-0.17 -1.21,-0.42 -1.69,-0.74 -1.01,0 -2.02,0 -2.7,0.96 -0.67,0.96 -0.78,0.82 -1.12,0.37 -0.34,-0.44 -0.56,0.52 -1.01,-0.37 -0.45,-0.89 -1.69,-1.18 -2.7,-0.96 -0.46,0.34 -1.04,0.59 -1.69,0.74l-1.46 1.11c0,0 -4.28,4.59 -8.33,0.44l-1.46 -1.55c0.65,0.97 1.14,1.99 1.46,3.03 0,1.56 -4.95,2.37 -8.33,-0.89 -3.37,-3.25 -3.93,1.78 -5.06,0 -1.12,-1.77 -3.6,2.15 -6.07,-0.44 -2.48,-2.59 1.68,5.48 -5.4,1.48 -7.09,-4 0,0 -1.47,1.92 -1.46,1.93 -5.06,2.67 -7.98,-1.03 -2.93,-3.7 -8.67,1.77 -12.38,-1.11 -3.71,-2.89 -3.94,3.03 -5.06,2.14 -1.13,-0.88 -2.14,3.41 -6.08,0 -3.93,-3.4 -5.51,1.63 -5.51,1.63 0,0 -4.72,2.59 -6.86,1.63 -2.14,-0.96 -1.8,0.96 -3.6,0 -1.8,-0.96 -2.14,-0.59 -2.93,-1.48 -0.43,-0.29 -0.97,-0.5 -1.56,-0.62 -0.59,-0.12 -1.22,-0.15 -1.82,-0.08 -0.61,0.08 -1.19,0.25 -1.67,0.49 -0.49,0.26 -0.88,0.58 -1.13,0.95 -1.47,1.92 0,0 -1.69,-4.22 -1.69,-4.22 -2.59,-0.66 -4.05,2.44 -1.46,3.11 -2.48,-0.88 -5.74,-5.47 -3.26,-4.59 -4.72,1.92 -7.99,-2.96 -3.26,-4.88 -4.38,6.88 -8.32,3.55 -3.94,-3.33 -6.86,2.66 -6.86,2.66 0,0 -4.39,3.56 -8.67,0.45 -4.27,-3.11 -2.92,5.03 -7.2,3.18 -4.27,-1.85 -3.37,2.29 -7.65,-1.26 -4.27,-3.55 -2.81,4 -6.86,0 -4.05,-3.99 -2.48,1.78 -7.99,-5.18 -5.51,-6.95 -5.06,1.48 -7.54,-2.66 -2.47,-4.14 -1.46,1.92 -5.4,0 -3.93,-1.92 -1.91,1.48 -6.18,-2.44 -4.28,-3.92 -2.48,4.36 -6.19,0 -3.71,-4.37 -2.48,4.58 -5.74,2.22 -3.26,-2.37 -1.01,1.92 -5.4,-4.15 -4.39,-6.06 -1.91,1.48 -3.6,-1.92 -1.69,-3.4 -3.82,0 -3.94,0 -0.11,0 -2.92,-2.52 -3.71,-0.74 -0.79,1.78 -5.4,0 -5.4,0 -4.39,-0.89 0,0 -3.26,-4.37 -3.26,-4.36 -2.14,2.15 -4.39,0 -2.25,-2.14 -5.4,0.74 -7.99,0 -2.58,-0.73 -5.06,0 -9,-2.95 -3.93,-2.96 -3.93,0 -3.93,0 -2.06,0.99 -4.24,1.85 -6.53,2.58 -1.8,0.37 -5.06,0 -4.72,-0.73 0.33,-0.75 -9.01,2.14 -11.26,0 -2.25,-2.15 -3.26,0 -5.85,-2.3 -2.58,-2.29 -5.4,1.33 -7.87,-0.59 -2.48,-1.92 -4.5,2.37 -6.3,-1.33 -1.8,-3.7 -3.26,-0.67 -3.94,2.59 -0.67,3.25 -6.19,1.11 -9,-3.26 -2.81,-4.36 -5.51,2.89 -8.77,-0.89 -3.27,-3.77 -3.6,1.56 -5.07,-1.77 -1.46,-3.33 -2.92,-2.59 -2.92,0.66 0,3.26 -6.53,0.67 -8.66,-4.14 -2.14,-4.81 -4.28,3.7 -7.09,-2.07 -2.81,-5.77 -2.93,2.22 -3.71,-0.59 -0.79,-2.81 -6.19,2.81 -9,-0.67 -2.82,-3.48 -5.74,-2.59 -5.74,-2.59 0,0 -8.44,4.74 -9.9,1.48 -1.46,-3.25 -4.28,1.33 -6.86,-2.22 -2.59,-3.55 -4.62,3.78 -9.34,-1.03 -4.73,-4.81 0,0 -1.46,2.81 -1.47,2.81 -3.27,2 -7.21,-4.44 -3.94,-6.44 -5.74,3.4 -8.66,-0.37 -2.93,-3.78 -2.25,2.14 -2.93,-0.45 -0.67,-2.59 -1.8,2.89 -3.93,0 -2.14,-2.88 -3.6,2 -6.19,-0.66 -2.59,-2.67 -2.48,2.22 -5.06,1.77 -2.59,-0.44 0,0 -1.8,-3.1 -1.8,-3.11 -3.27,0 -3.27,0l-1.12 -2.45c-1.01,-2.36 -3.6,1.56 -3.6,1.56 0.23,-1.45 0.23,-2.92 0,-4.37 0,-1.11 -5.4,1.78 -5.4,1.78l0 -5.62 -2.14 2.96 -2.59 -2.96c0,0 -5.4,3.4 -7.2,0 -1.8,-3.41 -4.72,0.96 -6.18,0 -1.47,-0.97 -3.94,-0.82 -5.4,-3.04 -1.47,-2.22 -4.62,1.56 -4.62,1.56 -0.82,-0.12 -1.56,-0.42 -2.09,-0.85 -0.53,-0.43 -0.82,-0.97 -0.83,-1.52 0,-2.22 -4.39,1.55 -4.39,1.55 0.17,-1.45 0.17,-2.91 0,-4.36 -1.22,0.01 -2.43,0.14 -3.6,0.37l-4.39 1.33 0 -0.52 -2.47 0.59c0,0.89 -0.79,1.78 -0.9,2.15 -0.11,0.37 -0.9,-0.52 -1.69,-1.78l-6.3 0.89 -9.11 -0.59 -5.18 -2 -1.57 0c-0.33,0.06 -0.68,0.06 -1.01,0l-4.28 0.52c-0.07,0.34 -0.07,0.69 0,1.03 0,0.6 -0.67,0 -1.69,-0.88l-6.52 0.81 -4.84 -2.44 -4.61 4.07 -10.47 0c-1.68,0.89 -3.37,1.77 -4.16,0.81 -0.79,-0.96 -3.15,2.3 -3.15,2.3 -2.25,-0.6 -5.85,1.4 -9.9,0 -4.05,-1.41 -5.4,0.96 -9.34,-3.63 -0.37,-0.47 -0.86,-0.9 -1.46,-1.26l-1.91 -0.44c-1.69,0.44 -2.36,2.74 -2.36,2.74 -3.45,1.35 -7.28,2.23 -11.25,2.59 -3.28,0.24 -6.58,-0.2 -9.45,-1.26l8.1 -3.18 -3.15 0 -10.35 1.62 -13.39 -2.59c0,0 -1.91,2.82 -7.88,-2.73 -5.96,-5.55 -5.17,4.81 -5.17,4.81l-4.28 -1.48 -4.38 2.44 -14.97 -4.66 -9.67 0.89 -7.88 0.36 -6.75 -3.84 -4.27 5.69 -4.84 -2.81 -5.18 5.11 -6.41 -0.82 -6.64 2.96 -5.17 -2.73 -2.81 3.99c0,0 -1.13,2.15 -5.63,0.82 -2.87,-0.68 -6.01,-0.68 -8.89,0l-7.65 -0.6 -7.99 0 -6.75 0 -2.81 -1.85 -4.5 3.19 -8.66 -0.67c0,0 -2.81,4.88 -5.74,0 -2.92,-4.88 -5.51,0 -5.51,0l-5.51 -0.37c0,0 -0.9,1.7 -3.6,-3.26 -2.7,-4.95 -3.15,6.88 -5.52,-1.25 -2.36,-8.14 -2.47,7.91 -5.17,0 -2.7,-7.92 -6.41,1.25 -6.41,1.25 0,0 0,6.44 -3.72,-1.7 -3.71,-8.14 -4.83,2.44 -4.83,2.44l-3.94 0.52 -6.75 1.78 -10.8 0 0 44.02 11.25 0 6.75 -1.77 4.5 -0.45c0,0 1.57,-10.51 4.84,-2.37 3.26,8.14 3.71,1.63 3.71,1.63 0,0 3.71,-9.03 6.41,-1.26 2.7,7.77 2.7,-8.36 5.18,0 2.47,8.36 2.7,-3.7 5.51,1.26 2.81,4.96 3.6,3.33 3.6,3.33l5.51 0c0,0 2.48,-5.03 5.51,0 3.04,5.03 5.74,0 5.74,0l8.21 0.67 4.5 -3.11 2.82 1.77 5.96 0 7.99 0 7.65 0.52c2.87,-0.68 6.01,-0.68 8.89,0 4.5,1.34 5.62,-0.74 5.62,-0.74l2.81 -4.07 5.18 2.82 6.64 -2.96 7.08 0.74 5.18 -5.04 4.84 2.74 4.27 -5.62 6.75 3.77 7.88 -0.37 9.22 -1.11 14.29 5.03 4.39 -2.44 4.27 1.48c0,0 -0.9,-10.36 5.18,-4.81 6.07,5.55 7.87,2.81 7.87,2.81l13.39 2.59 10.35 -1.7 3.15 0 -8.1 3.11c2.85,1.1 6.18,1.54 9.45,1.26 3.98,-0.35 7.81,-1.24 11.25,-2.59 0,0 0.68,-2.3 2.36,-2.74l1.92 0.44c0.59,0.37 1.08,0.79 1.46,1.26 3.94,4.59 5.4,2.22 9.34,3.63 3.93,1.4 7.65,-0.52 9.9,0 0,0 1.68,-4.29 3.15,-2.3 1.46,2 2.47,0 4.16,-0.74l10.46 0 4.61 -4.14 4.84 2.44 6.53 -0.81c1.01,0.96 1.69,1.48 1.69,0.89 -0.07,-0.35 -0.07,-0.7 0,-1.04l4.27 -0.52c0.33,0.06 0.68,0.06 1.01,0l1.58 0 5.17 2 9.12 0.59 6.3 -0.89c0.78,1.26 1.46,2.3 1.68,1.78 0.23,-0.52 0.57,-1.18 0.9,-2.15l2.48 -0.59 0 0.52 4.39 -1.33c1.18,-0.2 2.38,-0.32 3.6,-0.37 0.17,1.45 0.17,2.91 0,4.36 0,0 3.93,-3.77 4.38,-1.55 0.02,0.56 0.32,1.1 0.85,1.54 0.53,0.44 1.25,0.76 2.08,0.9 0,0 3.15,-3.77 4.61,-1.63 1.46,2.15 3.94,2.08 5.4,3.04 1.46,0.96 4.39,-3.48 6.19,0 1.8,3.48 7.2,0 7.2,0l2.59 2.96 2.13 -2.96 0 5.62c0,0 5.07,-2.89 5.4,-1.77 0.24,1.45 0.24,2.91 0,4.36 0,0 2.59,-3.92 3.6,-1.48l1.13 2.37c0,0 1.35,-3.26 3.26,0 1.91,3.25 -0.67,2.66 1.8,3.1 2.48,0.45 2.59,-4.43 5.06,-1.77 2.48,2.66 4.05,-2.22 6.19,0.67 2.14,2.88 3.26,-2.67 3.94,0 0.67,2.66 0,-3.33 2.92,0.44 2.93,3.77 4.62,-5.92 8.67,0.44 4.05,6.37 5.74,7.4 7.2,4.37 1.46,-3.03 -3.26,-7.4 1.46,-2.81 4.73,4.58 6.87,-2.44 9.34,1.03 2.48,3.48 5.4,-1.03 6.86,2.22 1.47,3.26 9.9,-1.48 9.9,-1.48 0,0 3.27,-0.37 5.74,2.67 2.48,3.03 8.33,-2.22 9,0.59 0.68,2.81 0.79,-5.03 3.71,0.66 2.93,5.7 5.07,-2.88 7.09,2 2.03,4.89 8.66,7.4 8.66,4.15 0,-3.26 1.47,-4 2.93,-0.6 1.46,3.41 1.91,-2.07 5.06,1.71 3.15,3.77 5.85,-3.48 8.78,0.88 2.92,4.37 8.21,6.59 9,3.33 0.78,-3.25 2.13,-6.36 3.93,-2.66 1.8,3.7 3.6,-0.67 6.3,1.33 2.7,2 5.4,-2 7.88,0.59 2.47,2.59 3.6,0 5.85,2.3 2.25,2.29 11.25,-1.04 11.25,0 0,1.03 2.93,1.11 4.73,0.74 2.28,-0.73 4.47,-1.6 6.52,-2.59 0,0 0,-3.26 3.94,0 3.94,3.25 6.52,2.22 9,2.96 2.47,0.74 5.85,-2.3 7.99,0 2.13,2.29 1.12,-4.22 4.38,0 3.27,4.21 -1.12,3.47 3.27,4.36 0,0 4.72,1.78 5.4,0 0.67,-1.77 3.71,0 3.71,0.74 0,0.74 2.14,-3.18 3.94,0 1.8,3.18 -0.79,-4.29 3.6,1.93 4.38,6.21 2.13,1.7 5.4,4.14 3.26,2.44 2.13,-6.81 5.73,-2.22 3.6,4.59 1.8,-3.7 6.19,0 4.39,3.7 2.14,0.44 6.19,2.44 4.05,2 2.92,-4.22 5.4,0 2.47,4.22 2.14,-4.44 7.54,2.66 5.4,7.11 4.05,1.34 7.98,5.26 3.94,3.92 2.59,-3.48 6.87,0 4.27,3.47 3.26,-0.74 7.65,1.26 4.38,1.99 2.92,-6.37 7.2,-3.26 4.27,3.11 8.66,-0.44 8.66,-0.44 0,0 2.81,-5.92 6.86,-2.67 4.05,3.26 5.07,-8.28 8.33,-3.48 3.26,4.81 4.72,-1.77 7.99,2.89 3.26,4.66 4.38,8.58 5.73,5.48 1.35,-3.11 2.14,-6.59 4.05,-2.37 1.92,4.22 0,6.06 1.69,4.14 0.28,-0.36 0.67,-0.67 1.16,-0.91 0.49,-0.24 1.05,-0.4 1.65,-0.47 0.6,-0.08 1.22,-0.05 1.81,0.06 0.58,0.11 1.12,0.31 1.57,0.58 0.79,0.89 1.12,0.45 2.92,1.48 1.8,1.04 1.47,-1.03 3.6,0 2.14,1.04 6.87,-1.63 6.87,-1.63 0,0 1.46,-4.88 5.51,-1.55 4.05,3.33 5.06,-0.81 6.07,0 1.02,0.81 1.47,-5.11 5.07,-2.15 3.6,2.96 9.45,-2.66 12.37,1.04 2.93,3.7 6.53,3.11 7.99,1.11 1.46,-2 -5.85,-5.92 1.46,-2 7.31,3.92 2.93,-4.14 5.4,-1.48 2.48,2.67 5.06,-1.18 6.08,0.45 1.01,1.62 1.91,-3.56 5.06,0 3.15,3.55 8.33,2.51 8.33,0.88 -0.32,-1.04 -0.82,-2.06 -1.47,-3.03 0,0 0.68,0.81 1.47,1.55 4.05,4.15 8.32,-0.44 8.32,-0.44l1.46 -1.11c0.67,-0.12 1.26,-0.38 1.69,-0.74 0.27,-0.08 0.57,-0.12 0.86,-0.12 0.3,0.01 0.6,0.06 0.86,0.16 0.26,0.09 0.49,0.22 0.66,0.38 0.17,0.16 0.28,0.35 0.32,0.54 0,0.89 0.68,0.82 1.01,0 0.34,-0.81 0.79,0.52 1.13,0 0.34,-0.52 1.69,-1.18 2.7,-0.96 0.45,0.34 1.03,0.6 1.69,0.74l1.46 1.11c0,0 4.39,4.59 8.32,0.44 0.5,-0.49 0.95,-1.01 1.35,-1.55 -0.56,0.99 -1.01,2 -1.35,3.03 0,1.63 5.07,2.45 8.33,-0.88 3.26,-3.33 3.94,1.77 5.06,0 1.13,-1.78 3.6,2.22 6.19,-0.45 2.59,-2.66 -1.91,5.48 5.4,1.48 7.31,-3.99 0,0 1.35,2 1.35,2 5.17,2.59 7.99,-1.11 2.81,-3.7 8.77,1.78 12.37,-1.04 3.6,-2.81 3.94,3.04 5.06,2.15 1.13,-0.89 2.03,3.33 6.08,0 4.05,-3.33 5.51,1.55 5.51,1.55 0,0 4.73,2.67 6.86,1.63 2.14,-1.03 1.92,1.04 3.6,0 1.69,-1.03 2.14,-0.59 2.93,-1.48 0.45,-0.27 0.99,-0.47 1.57,-0.58 0.59,-0.11 1.2,-0.14 1.8,-0.06 0.6,0.07 1.17,0.23 1.66,0.47 0.49,0.24 0.89,0.55 1.16,0.91 1.35,1.92 0,0 1.8,-4.14 1.8,-4.15 2.47,-0.74 3.93,2.37 1.47,3.1 2.59,-0.89 5.74,-5.48 3.15,-4.59 4.84,1.92 7.99,-2.89 3.15,-4.8 4.39,6.89 8.33,3.48 3.93,-3.4 6.97,2.67 6.97,2.67 0.45,0.45 1.06,0.84 1.77,1.12 0.71,0.28 1.51,0.44 2.34,0.49 0.83,0.04 1.66,-0.04 2.43,-0.25 0.77,-0.2 1.46,-0.51 2.01,-0.92 4.39,-3.11 2.93,5.03 7.31,3.26 4.39,-1.78 3.27,2.21 7.54,-1.26 4.28,-3.48 2.93,3.92 6.86,0 3.94,-3.92 2.59,1.7 7.99,-5.26 5.4,-6.95 5.06,1.48 7.65,-2.66 2.59,-4.14 1.46,1.92 5.4,0 3.94,-1.92 1.8,1.55 6.08,-2.44 4.27,-4 2.58,4.36 6.18,0 3.6,-4.37 2.48,4.59 5.85,2.22 3.38,-2.37 1.02,2 5.4,-4.14 4.39,-6.15 1.69,1.48 3.6,-1.93 1.92,-3.4 3.72,0 3.94,0 0.23,0 2.93,-2.51 3.6,-0.74 0.68,1.78 5.51,0 5.51,0 4.28,-0.89 0,0 3.15,-4.36 3.15,-4.37 2.25,2.14 4.39,0 2.14,-2.15 5.41,0.74 7.99,0 2.59,-0.74 4.95,0 9,-2.96 4.05,-2.96 3.94,0 3.94,0 2.05,0.99 4.23,1.86 6.53,2.59 1.91,0 5.06,0 4.61,-0.74 -0.45,-0.74 9.22,2.14 11.25,0 2.02,-2.15 3.15,0 5.74,-2.3 2.58,-2.29 5.4,1.34 7.87,-0.59 2.48,-1.92 4.5,2.37 6.3,-1.33 1.8,-3.7 3.26,-0.67 4.05,2.66 0.79,3.33 6.08,1.04 9,-3.33 2.93,-4.36 5.4,2.89 8.66,-0.88 3.27,-3.78 3.6,1.55 5.07,-1.71 1.46,-3.25 2.92,-2.66 2.92,0.6 0,3.25 6.41,0.74 8.55,-4.15 2.14,-4.88 4.39,3.7 7.31,-2 2.93,-5.69 2.93,2.15 3.6,-0.66 0.68,-2.81 6.08,2.81 9,-0.59 2.93,-3.41 5.86,-2.67 5.86,-2.67 0,0 8.21,4.81 9.67,1.48 1.46,-3.33 4.39,1.33 6.98,-2.22 2.58,-3.55 4.61,3.85 9.33,-1.03 1.35,-1.48 1.92,-2 2.14,-2 -0.86,1.54 -1.09,3.19 -0.67,4.81 1.46,2.88 3.26,2.07 7.2,-4.37 3.93,-6.43 5.85,3.33 8.77,-0.44 2.93,-3.77 2.14,2.22 2.81,-0.44 0.68,-2.67 1.8,2.88 3.94,0 2.14,-2.89 3.71,1.99 6.3,-0.67 2.59,-2.66 2.48,2.22 4.95,1.77 2.48,-0.44 0,0 1.8,-3.1 1.8,-3.11 3.26,0 3.26,0l1.13 -2.37c1.01,-2.44 3.6,1.48 3.6,1.48 -0.18,-1.45 -0.18,-2.91 0,-4.36 0,-1.12 5.4,1.77 5.4,1.77l0 -5.55 2.25 2.96 2.47 -2.96c0,0 5.4,3.41 7.2,0 1.8,-3.4 4.73,0.96 6.19,0 1.46,-0.96 3.94,-0.81 5.4,-3.03 1.46,-2.22 4.73,1.63 4.73,1.63 0.82,-0.14 1.55,-0.46 2.06,-0.9 0.51,-0.44 0.77,-0.99 0.75,-1.55 0,-2.22 4.39,1.56 4.39,1.56 -0.17,-1.48 -0.17,-2.96 0,-4.44 0,-0.89 7.98,1.77 7.98,1.77l0 -3.1c0,-3.11 3.27,4.21 3.61,5.32 0.33,1.11 3.26,-4.88 3.26,-4.88 0,0 6.86,2.89 8.66,0 1.8,-2.89 3.6,1.92 4.39,-0.44 0.79,-2.37 7.54,2.59 8.66,1.92 1.13,-0.67 4.28,0 4.28,-2.74 0.16,1.43 0.16,2.86 0,4.29 0,1.56 5.06,-4.66 6.97,-5.69 1.91,-1.04 3.15,4.36 4.61,1.77 1.47,-2.59 3.27,4.59 4.39,3.04 1.13,-1.56 3.15,2.88 5.4,0.44 2.25,-2.44 3.26,3.03 3.6,1.11 0.34,-1.92 5.74,3.26 7.2,1.33 1.46,-1.92 3.26,2.3 3.26,2.3 2.14,-0.52 5.74,1.4 9.79,0 4.05,-1.41 5.4,0.96 9.34,-3.63 3.94,-4.59 5.85,1.04 5.85,1.04 3.43,1.38 7.26,2.26 11.25,2.59 4.39,0 4.84,0.74 14.51,-3.19 9.68,-3.92 5.4,2.22 8.33,0.45 2.93,-1.78 5.51,1.92 9.68,-1.56 4.16,-3.47 4.83,1.26 8.77,1.71 2.33,0.44 4.8,0.45 7.14,0.03 2.34,-0.42 4.46,-1.25 6.14,-2.4 4.83,-3.11 3.37,3.55 7.98,-2.37 0.53,-0.9 1.25,-1.75 2.14,-2.51 -0.77,1.65 -1,3.39 -0.67,5.1 1.46,2.59 3.26,3.77 5.4,-1.11 2.13,-4.88 6.18,4.59 8.43,1.33 2.25,-3.25 5.07,5.48 9,-0.66 0.9,-1.26 1.35,-2.08 1.69,-2.45 -0.65,1.35 -0.99,2.74 -1.01,4.15 0.79,1.77 6.19,4.44 9.45,-1.26 3.26,-5.7 7.87,2.59 12.26,-1.55 4.39,-4.15 5.06,3.55 6.86,1.55 1.8,-2 3.27,3.92 6.87,0.44 3.6,-3.47 3.93,4.22 8.32,-2.59l1.91 -2.95c-0.58,1.75 -0.58,3.57 0,5.32 1.8,2.37 5.74,5.26 7.99,0 2.25,-5.25 2.25,2.22 6.98,-3.11 4.72,-5.32 4.72,3.78 6.07,1.56 1.35,-2.22 4.73,3.33 7.65,0 2.93,-3.33 4.28,4.59 7.2,1.11 2.93,-3.48 2.14,2.88 5.07,0.89 2.92,-2 4.72,4.58 8.32,0.81 3.6,-3.77 0,0 1.13,3.03 1.12,3.04 2.47,3.18 5.4,-1.85 2.92,-5.03 1.46,2.59 3.93,-1.77 2.48,-4.37 3.6,4.59 7.2,-0.89 0.68,-0.89 1.02,-1.48 1.35,-1.85 -0.64,1.38 -1.09,2.79 -1.35,4.22 0,2.51 2.25,1.77 5.85,-1.7 3.6,-3.48 5.07,5.25 7.54,0 2.48,-5.26 3.6,5.91 7.65,0.81 4.05,-5.11 5.4,3.4 11.25,-1.04 5.85,-4.44 1.46,3.56 5.06,1.34 3.6,-2.22 2.93,4.58 8.78,-0.74 5.85,-5.33 0,0 0,2.07 0,2.07 2.92,5.25 6.19,1.4 3.26,-3.84 3.26,4.07 6.52,0 3.26,-4.07 4.73,4.96 8.33,1.41 3.6,-3.55 5.74,5.55 9.67,2 3.94,-3.55 3.94,4.14 9,-3.41 5.07,-7.54 5.52,6.51 7.99,4.07 2.48,-2.44 1.91,3.48 6.86,2 4.95,-1.48 0.79,6.36 4.39,1.92 3.6,-4.44 6.19,5.33 11.25,0.67 5.06,-4.66 5.4,4.22 7.54,0.67 2.14,-3.55 2.59,3.77 6.19,0.88 3.6,-2.88 2.58,3.11 5.4,0 2.81,-3.1 2.25,4.22 5.4,1.56 3.15,-2.67 3.37,4.59 7.98,-1.11 4.62,-5.7 4.73,5.1 5.85,2.44 1.13,-2.66 5.4,3.7 7.32,1.03 1.91,-2.66 2.92,-1.25 3.48,1.34 0.57,2.59 2.93,-1.48 2.93,-1.48 2.14,-2.22 4.72,3.1 6.97,1.03 2.25,-2.07 2.93,2.67 5.74,-0.89 2.81,-3.55 2.81,2.52 5.06,1.63 2.25,-0.88 3.27,4.37 6.53,1.33 3.27,-3.03 2.59,0 3.6,3.7 1.02,3.7 2.93,2.37 5.07,0 2.13,-2.36 3.6,-0.37 6.86,-3.4 3.26,-3.03 3.26,2.37 5.74,0.59 2.47,-1.77 5.06,2.67 7.31,0 2.25,-2.66 0,0 2.92,2.81 2.93,2.82 2.48,1.78 3.94,-1.33 1.46,-3.1 2.81,-1.48 2.81,-1.48 0,0 1.47,-2.51 3.72,0.82 2.25,3.33 2.13,2.44 3.6,-1.71 1.46,-4.14 9.45,2.59 12.6,-0.73 3.15,-3.33 7.31,1.77 9.45,-0.6 2.13,-2.36 3.48,2.81 5.51,1.41 2.69,-6.36 3.23,-13.03 1.57,-19.53l5.74 -0.52 6.75 2.96 5.18 -2.81 2.7 4.07c0,0 1.23,2.07 5.85,0.73 2.83,-0.67 5.93,-0.67 8.77,0l7.65 -0.51 7.88 0 6.41 0 2.7 -1.78 4.5 3.11 8.33 -0.67c0,0 2.7,4.89 5.73,0 3.04,-4.88 5.52,0 5.52,0l5.4 0c0,0 1.01,1.71 3.71,-3.33 2.7,-5.03 3.04,6.89 5.4,-1.25 2.36,-8.14 2.59,7.99 5.17,0 2.59,-8 6.53,1.25 6.53,1.25 0,0 0,6.51 3.6,-1.62 3.6,-8.14 4.84,2.36 4.84,2.36l4.05 0.6 6.63 1.77 11.93 0 4.95 -1.48 5.17 1.26c0,0 1.24,3.7 3.94,-4.22 2.7,-7.92 5.18,0 5.18,0l11.92 0 6.98 -3.4 7.65 -4.22 2.36 -1.78 4.84 -1.92 5.17 0 5.85 -1.48 5.52 -2 6.75 -1.85 0 -5.4 3.93 4.15 0 -6.89 3.49 5.55 2.48 -5.84 4.83 5.84 2.14 -4.36 6.19 4.14c0,0 1.46,2.37 2.59,-8.21 1.12,-10.58 5.85,7.99 5.85,7.99l0.67 -7.77c0,-7.84 2.7,3.26 2.7,3.26l3.94 -2.37 2.14 -5.18 6.41 6.88 5.17 -2.81 3.6 1.85 7.43 -3.92 5.17 1.18 8.1 -3.92 4.95 2.74 6.42 -4.22 3.94 3.92 5.17 -1.11 5.51 3.7 5.18 -1.48 11.25 1.48 5.74 -2.29 4.5 1.55 5.17 -3.55 5.85 2 7.31 0.59 5.4 -1.92 5.29 1.92 7.31 -0.59 5.85 -2 5.18 3.55 4.5 -1.55 5.74 2.29 11.25 -1.48 5.28 1.48 5.4 -3.7 5.18 1.11 3.94 -3.92 6.41 4.22 4.95 -2.74 8.1 3.92 5.29 -1.18 7.31 3.92 3.6 -1.85 5.18 2.81 6.41 -6.88 2.14 5.18 4.05 2.37c0,0 2.02,-11.1 2.7,-3.26l0.56 7.77c0,0 4.61,-18.5 5.85,-7.99 1.24,10.51 2.7,8.21 2.7,8.21l6.07 -4.14 2.14 4.36 4.95 -5.84 3.38 5.84 4.16 -5.1 0 6.88 3.94 -4.14 0 5.4 6.75 1.85 5.51 1.99 5.85 1.48 5.17 0 4.85 1.93 2.36 1.78 7.65 4.21 6.97 3.41 11.93 0c0,0 2.47,-8 5.17,0 2.7,7.99 3.94,4.21 3.94,4.21l4.5 -1.7 4.84 2.15 11.92 0 6.64 -1.78 4.05 -0.59c0,0 1.46,-10.51 4.84,-2.37 3.37,8.14 3.71,1.63 3.71,1.63 0,0 3.6,-9.03 6.41,-1.26 2.82,7.77 2.7,-8.36 5.18,0 2.47,8.36 2.7,-3.7 5.4,1.26 2.7,4.96 3.71,3.33 3.71,3.33l5.4 0c0,0 2.48,-5.03 5.51,0 3.04,5.03 5.74,0 5.74,0l8.33 0.66 4.5 -3.1 2.7 1.77 6.41 0 7.88 0 7.65 0.52c2.87,-0.67 6.01,-0.67 8.88,0 4.5,1.33 5.74,-0.74 5.74,-0.74l2.7 -4.07 5.18 2.81 6.75 -2.96 5.73 0.52c-1.66,6.51 -1.12,13.18 1.58,19.53 2.02,1.41 3.49,-3.77 5.51,-1.4 2.03,2.37 6.08,-2.66 9.45,0.59 3.38,3.26 11.25,-3.48 12.6,0.74 1.35,4.22 1.46,5.03 3.71,1.7 2.25,-3.33 3.6,-0.81 3.6,-0.81 0,0 1.47,-1.63 2.93,1.48 1.46,3.11 1.01,4.14 3.94,1.33 2.92,-2.81 0.67,-5.77 2.81,-2.81 2.14,2.96 4.72,-1.63 7.31,0 2.59,1.63 2.48,-3.7 5.74,-0.59 3.26,3.1 4.73,1.25 6.86,3.4 2.14,2.15 3.94,3.55 5.07,0 1.12,-3.55 0,-6.81 3.6,-3.7 3.6,3.11 4.38,-2.22 6.52,-1.33 2.14,0.89 2.25,-5.11 5.06,-1.63 2.82,3.48 3.6,-1.03 5.74,0.89 2.14,1.92 4.84,-3.26 6.98,-1.04 0,0 2.13,4.15 2.92,1.48 0.79,-2.66 1.69,-3.92 3.49,-1.33 1.8,2.59 6.3,-3.7 7.31,-1.03 1.01,2.66 1.24,-8.14 5.85,-2.45 4.61,5.7 4.61,-1.55 7.99,1.11 3.37,2.67 2.47,-4.44 5.4,-1.55 2.92,2.89 1.69,-3.11 5.4,0 3.71,3.11 4.05,-4.37 6.19,-0.89 2.13,3.48 2.13,-5.25 7.53,-0.66 5.4,4.58 7.99,-5.03 11.25,-0.67 3.27,4.37 -0.9,-3.55 4.39,-1.92 5.29,1.62 4.28,-4.44 6.86,-2 2.59,2.44 2.93,-11.69 7.99,-4.07 5.07,7.62 5.07,0 9,3.4 3.94,3.41 6.08,-5.55 9.68,-2 3.6,3.56 5.06,-5.47 8.32,-1.4 3.27,4.07 3.27,-3.85 6.53,0 3.26,3.85 6.52,0.52 6.19,-1.41 -0.34,-1.92 -6.19,-7.4 0,-2.07 6.18,5.33 5.06,-1.48 8.66,0.74 3.6,2.22 0,-5.77 5.06,-1.33 5.06,4.44 6.86,-4 11.25,1.04 4.39,5.03 5.06,-6.07 7.65,-0.82 2.59,5.25 3.94,-3.48 7.54,0 3.6,3.48 5.85,4.22 5.85,1.7 -0.25,-1.43 -0.71,-2.84 -1.35,-4.21 0,0.37 0.67,0.96 1.35,1.85 3.6,5.47 4.61,-3.56 7.2,0.88 2.59,4.44 1.01,-3.25 3.94,1.78 2.92,5.03 4.38,4.81 5.4,1.85 1.01,-2.96 -2.48,-6.73 1.12,-3.03 3.6,3.7 5.4,-2.82 8.33,-0.82 2.92,2 2.13,-4.36 5.06,-0.89 2.92,3.48 4.39,-4.21 7.2,-1.11 2.81,3.11 6.19,-2.36 7.65,0 1.47,2.37 1.47,-6.8 6.08,-1.55 4.61,5.25 4.72,-2.22 6.97,3.11 2.25,5.32 6.19,2.37 7.99,0 0.59,-1.76 0.59,-3.57 0,-5.33l1.91 2.96c4.39,6.81 4.73,-0.89 8.33,2.59 3.6,3.48 5.06,-2.44 6.86,-0.44 1.8,1.99 2.59,-5.7 6.86,-1.56 4.28,4.15 9,-4.14 12.27,1.56 3.26,5.69 8.66,3.03 9.45,1.25 -0.03,-1.4 -0.37,-2.8 -1.02,-4.14 0,0.37 0.79,1.18 1.69,2.44 3.94,6.14 6.86,-2.59 9,0.67 2.14,3.25 6.3,-6.22 8.44,-1.33 2.14,4.88 3.94,3.7 5.4,1.11 0.32,-1.72 0.09,-3.46 -0.68,-5.11 0.89,0.77 1.62,1.61 2.14,2.52 4.61,5.92 3.15,-0.74 7.99,2.36 1.67,1.16 3.8,1.99 6.14,2.41 2.33,0.41 4.8,0.4 7.13,-0.04 3.94,-0.44 4.39,-5.18 8.78,-1.7 4.39,3.48 6.86,0 9.68,1.55 2.81,1.56 -1.47,-4.44 8.32,-0.44 9.79,3.99 10.13,3.11 14.51,3.18 3.99,-0.32 7.83,-1.2 11.25,-2.59 0,0 1.8,-5.62 5.85,-1.03 4.05,4.58 5.4,2.22 9.34,3.62 3.94,1.41 7.65,-0.52 9.79,0 0,0 1.8,-4.29 3.27,-2.29 1.47,1.99 6.84,-3.33 7.19,-1.33 0.34,1.99 1.47,-3.56 3.72,-1.11 2.25,2.44 4.28,-2 5.28,-0.45 1.03,1.56 2.94,-5.7 4.4,-3.03 1.44,2.66 2.91,-2.96 4.72,-1.78 1.78,1.19 7.19,7.4 6.85,5.7 -0.16,-1.43 -0.16,-2.86 0,-4.29 0,2.59 3.28,2.14 4.28,2.74 1.03,0.59 8,-4.44 8.65,-1.93 0.69,2.52 2.6,-2.22 4.41,0.45 1.78,2.66 8.66,0 8.66,0 0,0 2.93,5.92 3.25,4.88 0.34,-1.04 3.62,-8.44 3.62,-5.33l0 3.11c0,0 7.53,-2.66 7.97,-1.78 0.19,1.48 0.19,2.97 0,4.44 0,0 3.94,-3.77 4.41,-1.55 -0.03,0.56 0.22,1.1 0.75,1.55 0.5,0.44 1.22,0.76 2.06,0.89 0,0 3.25,-3.77 4.72,-1.63 1.47,2.15 3.94,2.08 5.4,3.04 1.44,0.96 4.25,-3.48 6.19,0 1.91,3.47 7.19,0 7.19,0l2.59 2.96 2.13 -2.96 0 5.62c0,0 5.06,-2.88 5.4,-1.78 0.19,1.46 0.19,2.92 0,4.37 0,0 2.6,-3.92 3.6,-1.48l1.12 2.37c0,0 1.47,-3.26 3.28,0 1.79,3.25 -0.81,2.66 1.79,3.11 2.59,0.44 2.46,-4.44 4.96,-1.78 2.47,2.66 4.04,-2.22 6.29,0.67 2.25,2.88 3.15,-2.67 3.93,0 0.78,2.66 0,-3.33 2.82,0.44 2.81,3.77 4.71,-5.92 8.78,0.44 4.06,6.37 5.75,7.4 7.18,4.37 0.44,-1.62 0.19,-3.27 -0.65,-4.81 0,0 0.78,0.52 2.12,2 4.72,4.88 6.88,-2.44 9.35,1.03 2.47,3.48 5.5,-1.03 6.97,2.22 1.46,3.26 9.68,-1.48 9.68,-1.48 0,0 3.38,-0.37 5.85,2.67 2.47,3.03 8.31,-2.22 9,0.59 0.68,2.81 0.68,-5.03 3.59,0.66 2.94,5.7 5.06,-2.88 7.31,2 2.25,4.89 8.57,7.4 8.57,4.15 0,-3.26 1.46,-4 2.9,-0.6 1.47,3.41 1.81,-2.07 5.06,1.71 3.29,3.77 5.88,-3.48 8.69,0.88 2.81,4.37 8.31,6.59 9,3.33 0.66,-3.25 2.25,-6.36 4.03,-2.66 1.82,3.7 3.72,-0.67 6.32,1.33 2.59,2 5.4,-2 8,0.59 2.56,2.59 3.46,0 5.62,2.3 2.13,2.29 11.25,-1.04 11.25,0 0,1.03 2.69,1.11 4.59,0.74 2.29,-0.73 4.47,-1.6 6.54,-2.59 0,0 0,-3.26 3.93,0 3.94,3.25 6.53,2.22 9,2.96 2.47,0.74 5.85,-2.3 8,0 2.13,2.29 1.13,-4.22 4.38,0 3.25,4.21 -1,3.47 3.15,4.36 0,0 4.85,1.78 5.5,0 0.69,-1.77 3.6,0 3.6,0.74 0,0.74 2.37,-3.18 3.94,0 1.59,3.18 -0.66,-4.29 3.71,1.92 4.41,6.22 2.16,1.71 5.29,4.15 3.15,2.44 2.25,-6.81 5.87,-2.22 3.59,4.59 1.91,-3.7 6.19,0 4.25,3.7 2.12,0.44 6.19,2.44 4.03,2 2.81,-4.22 5.28,0 2.47,4.22 2.25,-4.44 7.65,2.66 5.38,7.11 4.03,1.34 7.97,5.26 3.94,3.92 2.6,-3.48 6.88,0 4.28,3.47 3.25,-0.74 7.65,1.26 4.38,1.99 2.82,-6.37 7.19,-3.26 0.56,0.41 1.25,0.72 2,0.92 0.78,0.21 1.63,0.29 2.44,0.25 0.84,-0.05 1.62,-0.21 2.34,-0.49 0.72,-0.28 1.31,-0.67 1.78,-1.12 0,0 2.91,-5.92 6.97,-2.67 4.03,3.26 5.06,-8.29 8.31,-3.48 3.29,4.81 4.63,-1.77 8,2.89 3.38,4.66 4.29,8.58 5.72,5.48 1.47,-3.11 2.25,-6.59 3.94,-2.37 1.69,4.21 0,6.06 1.81,4.14 0.28,-0.36 0.69,-0.67 1.16,-0.91 0.5,-0.24 1.06,-0.4 1.66,-0.47 0.59,-0.07 1.21,-0.05 1.81,0.06 0.59,0.11 1.12,0.31 1.56,0.58 0.78,0.89 1,0.45 2.94,1.48 1.9,1.04 1.44,-1.03 3.59,0 2.13,1.04 6.85,-1.63 6.85,-1.63 0,0 1.46,-4.88 5.53,-1.55 4.03,3.33 5.06,-0.81 6.06,0 1.03,0.81 1.47,-5.11 5.06,-2.15 3.63,2.96 9.47,-2.66 12.38,1.04 2.93,3.7 6.53,3.11 8,1.11 1.47,-2 -5.85,-5.92 1.47,-2 7.31,3.92 2.81,-4.14 5.28,-1.48 2.47,2.67 5.18,-1.18 6.18,0.45 1,1.62 1.82,-3.56 5.07,0 3.25,3.55 8.31,2.51 8.31,0.88 -0.31,-1.03 -0.78,-2.04 -1.34,-3.03 0.4,0.54 0.84,1.06 1.34,1.55 3.94,4.15 8.34,-0.44 8.34,-0.44l1.47 -1.11c0.66,-0.12 1.25,-0.38 1.69,-0.74 1,0 2,0 2.69,0.96 0.68,0.96 0.78,0.82 1.12,0 0.35,-0.81 0.56,0.52 1,0 0.47,-0.52 1.69,-1.18 2.72,-0.96 0.41,0.36 1,0.62 1.69,0.74l1.47 1.11c0,0 4.25,4.59 8.31,0.44 0.78,-0.74 1.12,-1.18 1.47,-1.55 -0.66,0.97 -1.16,1.99 -1.47,3.03 0,1.63 4.94,2.45 8.31,-0.88 3.38,-3.33 3.94,1.77 5.06,0 1.13,-1.78 3.63,2.22 6.1,-0.45 2.47,-2.66 -1.69,5.48 5.4,1.48 7.07,-3.99 0,0 1.44,2 1.47,2 5.06,2.59 8,-1.11 2.94,-3.7 8.66,1.78 12.38,-1.04 3.72,-2.81 3.93,3.04 5.06,2.15 1.12,-0.89 2.12,3.33 6.06,0 3.94,-3.33 5.53,1.55 5.53,1.55 0,0 4.72,2.67 6.97,1.63 2.25,-1.03 1.69,1.04 3.5,0 1.78,-1.03 2.13,-0.59 2.91,-1.48 0.47,-0.27 1,-0.47 1.59,-0.58 0.56,-0.11 1.19,-0.13 1.78,-0.06 0.6,0.07 1.19,0.23 1.66,0.47 0.5,0.24 0.87,0.55 1.16,0.91 1.46,1.92 0,0 1.81,-4.14 1.78,-4.15 2.59,-0.74 3.94,2.37 1.34,3.1 2.59,-0.89 5.71,-5.48 3.16,-4.59 4.75,1.92 8,-2.89 3.25,-4.81 4.38,6.89 8.32,3.48 3.93,-3.4 6.87,2.67 6.87,2.67 0,0 4.38,3.55 8.66,0.44 4.28,-3.11 2.94,5.03 7.22,3.26 4.25,-1.78 3.37,2.21 7.62,-1.26 4.28,-3.48 2.81,3.92 6.88,0 4.06,-3.92 2.47,1.7 8,-5.26 5.5,-6.95 5.06,1.48 7.53,-2.66 2.47,-4.14 1.47,1.92 5.4,0 3.94,-1.92 1.91,1.55 6.19,-2.44 4.28,-4 2.56,4.36 6.19,0 3.59,-4.37 2.47,4.59 5.72,2.22 3.28,-2.37 1.12,2 5.4,-4.15 4.29,-6.14 1.91,1.48 3.6,-1.92 1.69,-3.4 3.84,0 3.94,0 0.12,0 2.93,-2.51 3.71,-0.74 0.79,1.78 5.54,0 5.54,0 4.25,-0.89 0,0 3.12,-4.36 3.16,-4.37 2.16,2.14 4.41,0 2.25,-2.15 5.4,0.74 7.97,0 2.59,-0.74 5.06,0 9,-2.96 3.93,-2.96 3.93,0 3.93,0 2.07,0.99 4.25,1.86 6.53,2.59 1.82,0 5.07,0 4.72,-0.74 -0.31,-0.74 9,2.14 11.25,0 2.25,-2.15 3.16,0 5.75,-2.3 2.6,-2.29 5.41,1.33 7.88,-0.59 2.47,-1.92 4.5,2.37 6.31,-1.33 1.78,-3.7 3.25,-0.67 3.94,2.66 0.65,3.33 6.19,1.04 9,-3.33 2.81,-4.36 5.5,2.89 8.75,-0.88 3.28,-3.78 3.62,1.55 5.06,-1.71 1.47,-3.25 2.94,-2.66 2.94,0.6 0,3.25 6.53,0.74 8.65,-4.15 2.16,-4.88 4.29,3.7 7.22,-2 2.91,-5.69 2.82,2.15 3.6,-0.66 0.78,-2.81 6.18,2.81 9,-0.59 2.81,-3.41 5.72,-2.67 5.72,-2.67 0,0 8.43,4.81 9.9,1.48 1.47,-3.33 4.28,1.33 6.88,-2.22 2.59,-3.55 4.59,3.85 9.43,-1.03 4.85,-4.89 0,0 1.35,2.81 1.37,2.81 3.28,2.07 7.22,-4.37 3.93,-6.43 5.84,3.33 8.65,-0.44 2.82,-3.77 2.25,2.22 2.94,-0.44 0.66,-2.67 1.78,2.88 3.94,0 2.12,-2.89 3.59,1.99 6.19,-0.67 2.56,-2.66 2.46,2.22 5.06,1.78 2.56,-0.45 0,0 1.78,-3.11 1.81,-3.11 3.28,0 3.28,0l1.13 -2.37c1,-2.44 3.59,1.48 3.59,1.48 -0.25,-1.45 -0.25,-2.91 0,-4.37 0,-1.1 5.41,1.78 5.41,1.78l0 -6.29 2.12 2.96 2.59 -2.96c0,0 5.41,3.41 7.19,0 1.81,-3.4 4.75,0.96 6.19,0 1.47,-0.96 3.94,-0.81 5.41,-3.03 1.46,-2.22 4.62,1.63 4.62,1.63 0.81,-0.15 1.53,-0.46 2.06,-0.9 0.53,-0.44 0.85,-0.99 0.85,-1.55 0,-2.22 4.4,1.56 4.4,1.56 -0.18,-1.45 -0.18,-2.91 0,-4.37 1.22,0.05 2.41,0.18 3.6,0.37l4.37 1.33 0 -0.51c0.88,0.14 1.69,0.34 2.5,0.59l0 0c0,0.96 0.78,1.85 0.88,2.14 0.12,0.3 0.9,-0.51 1.68,-1.77l6.32 0.89 9.12 -0.6 5.16 -1.99 1.59 0c0.31,0.05 0.66,0.05 1,0l0 0 4.28 0.51 0 1.04c0,0.59 0.57,0 1.57,-0.89l6.53 0.82 4.93 -2.45 4.5 4.15 10.47 0c1.69,0.81 3.38,1.7 4.16,0.74 0.81,-0.96 3.16,2.29 3.16,2.29 2.25,-0.52 5.84,1.41 9.9,0 4.06,-1.4 5.41,0.96 9.35,-3.62 0.37,-0.47 0.87,-0.9 1.46,-1.26l1.91 -0.45c1.69,0.45 2.34,2.74 2.34,2.74 3.47,1.36 7.29,2.24 11.25,2.59 3.29,0.29 6.63,-0.15 9.47,-1.26l-8.09 -3.1 3.12 0 10.38 1.7 13.37 -2.59c0,0 1.91,2.74 7.88,-2.81 5.97,-5.55 5.19,4.81 5.19,4.81l4.25 -1.48 4.4 2.44 14.72 -5.11 9.69 0.89 7.87 0.37 6.75 -3.77 4.29 5.62 4.84 -2.74 5.16 5.03 7.09 -0.74 6.66 2.96 5.15 -2.81 2.81 4.07c0,0 1.13,2.07 5.63,0.74 2.91,-0.68 6.09,-0.68 9,0l7.53 -0.52 8 0 6.31 0 2.82 -1.77 4.5 3.1 8.18 -0.66c0,0 2.82,4.88 5.88,0 3.03,-4.88 5.37,0 5.37,0l5.53 0c0,0 0.91,1.7 3.6,-3.33 2.69,-5.03 3.15,6.88 5.5,-1.26 2.37,-8.14 2.5,7.99 5.19,0 2.68,-7.99 6.4,1.26 6.4,1.26 0,0 0,6.51 3.72,-1.63 3.72,-8.14 4.84,2.37 4.84,2.37l3.94 0.59 6.75 1.78 11.25 0 0 -43.73 -11.25 0 -7.09 -1.78z"/>
 </g>
</svg>
